<svg width="378" height="378" viewBox="0 0 378 378" fill="none" xmlns="http://www.w3.org/2000/svg">
<path d="M158.29 361.511L158.702 338.015C137.679 333.893 118.305 325.237 101.817 313.282L84.916 329.771C78.7328 335.954 68.4275 335.954 62.2443 329.359L44.9313 311.634C38.7481 305.45 38.7481 295.145 45.3435 288.962L62.2443 272.473C51.1145 255.16 42.8702 235.786 39.5725 214.763L15.6641 215.176C7.00763 215.176 0 207.756 0 199.099L0.412215 174.366C0.412215 165.71 7.83206 158.702 16.4885 158.702L38.7481 159.115C54.4122 169.008 72.9618 173.542 91.9237 172.305C96.8702 171.893 101.405 173.542 104.29 176.84L107.176 179.725C106.763 182.611 106.763 185.496 106.763 188.382C106.351 233.725 142.626 271.237 187.969 271.649C191.679 271.649 195.389 271.649 198.687 271.237L199.511 272.061C202.809 275.359 204.458 280.305 204.046 285.664C201.985 305.038 206.107 323.588 215.588 340.076L214.763 362.336C214.763 370.992 207.343 378 198.687 378L173.954 377.588C165.298 377.588 157.878 370.58 158.29 361.511ZM332.656 66.3664L315.343 48.6412C309.16 42.458 299.267 42.0458 292.672 48.229L275.359 65.1298C258.87 53.5878 239.496 44.9313 218.885 40.8092L219.298 16.4886C219.298 7.83206 212.29 0.412213 203.634 0.412213L178.901 0C170.244 0 162.824 7.00763 162.824 15.6641L162.412 38.7481C171.893 54.8244 176.015 73.7863 173.954 93.1603C173.542 98.5191 175.191 103.053 178.489 106.763L179.313 107.588C183.023 107.176 186.321 107.176 190.031 107.176C235.374 107.588 271.649 145.099 271.237 190.443C271.237 193.328 270.824 196.214 270.824 199.099L273.71 201.985C277.008 205.282 281.542 206.931 286.076 206.519C305.038 205.282 323.588 209.817 339.252 219.71L361.511 220.122C370.168 220.122 377.588 213.114 377.588 204.458L378 179.725C378 171.069 370.992 163.649 362.336 163.649L338.427 163.237C334.718 142.214 326.885 122.84 315.343 105.939L332.656 89.0382C338.84 82.855 338.84 72.5496 332.656 66.3664ZM296.794 284.84C305.038 276.595 318.229 276.595 326.061 284.84L343.786 302.565C349.145 307.924 358.626 304.214 358.626 296.382C359.038 278.656 352.443 260.931 339.252 247.74C325.237 233.725 306.275 227.13 287.725 228.366C276.595 229.191 265.878 225.481 258.458 217.649L206.931 166.122L162.824 122.427C154.58 114.183 150.87 102.641 152.107 91.0992C154.168 71.7252 147.985 51.5267 133.145 36.687C118.305 21.4351 98.1069 15.2519 78.7328 17.313C71.313 18.1374 68.4275 27.2061 73.7863 32.1527L93.5725 51.9389C101.817 60.1832 101.405 72.9618 93.5725 81.2061L81.2061 93.5725C72.9618 101.817 59.771 101.817 51.9389 93.5725L34.2137 75.8473C28.855 70.4885 19.374 74.1985 19.374 82.0305C18.9618 99.7557 25.5573 117.481 38.7481 130.672C52.7634 144.687 71.7252 151.282 90.2748 150.046C101.405 149.221 112.122 152.931 119.542 160.763L170.656 211.878L214.351 255.572C222.595 263.817 226.305 275.359 225.069 286.901C223.008 306.275 229.191 326.473 244.031 341.313C258.87 356.153 279.069 362.336 298.443 360.275C305.863 359.45 308.748 350.382 303.389 345.435L283.603 325.649C275.359 317.405 275.771 304.626 283.603 296.382L296.794 284.84Z" fill="#F94144"/>
</svg>
