<svg width="1024" height="909" viewBox="0 0 1024 909" fill="none" xmlns="http://www.w3.org/2000/svg">
<path d="M305.094 110.628C307.931 107.484 311.636 104.774 315.292 102.646C324.358 97.3685 334.122 92.964 343.519 88.2956C362.06 79.0376 380.677 69.9363 399.371 60.9917L471.416 26.4718C487.11 18.8325 502.543 10.5488 518.418 3.29368C521.768 1.76257 525.886 -0.569764 529.524 0.968018C536.699 4.00005 530.646 14.2201 533.56 19.1344C535.58 22.5391 570.768 39.6242 576.288 42.0472C583.054 39.3377 589.36 35.427 596.096 32.5728C601.801 35.0051 606.735 37.0184 611.051 41.6519C616.216 37.5482 624.059 36.3675 630.36 34.7525C634.637 33.6498 638.936 32.6444 643.258 31.7361C647.58 30.8278 651.92 30.0177 656.279 29.3059C660.638 28.5947 665.011 27.9821 669.397 27.4681C673.784 26.9544 678.18 26.54 682.585 26.2252C686.99 25.9104 691.4 25.6954 695.815 25.5801C700.23 25.4649 704.645 25.4496 709.061 25.5342C713.477 25.6189 717.888 25.8034 722.295 26.0876C726.703 26.3719 731.101 26.7558 735.491 27.2392C748.5 28.7197 761.699 30.5092 774.453 33.5205C787.614 36.6272 800.663 41.2412 813.199 46.2771C860.944 65.4558 895.515 93.0276 927.441 133.175C934.568 142.14 940.52 151.764 946.374 161.587C987.53 230.649 1004.51 321.169 995.348 400.777C992.088 429.099 987.212 456.771 979.033 484.11C974.89 497.962 968.881 511.468 965.36 525.443C980.057 532.178 1001.48 537.81 1012.3 550.002C1015.95 554.118 1019.03 559.278 1020.11 564.721C1022.27 575.645 1021.5 597.732 1021.84 609.873L1023.16 654.554C1023.37 663.107 1023.88 671.815 1023.39 680.358C1018.42 683.463 1012.37 685.515 1007.01 687.955C995.225 693.284 983.502 698.743 971.84 704.332C933.651 723.115 895.611 742.198 857.722 761.582C790.81 795.024 724.624 829.89 657.425 862.775C632.916 874.769 608.68 887.975 583.505 898.53C572.418 903.179 560.844 905.564 548.906 906.568C517.557 909.205 479.698 908.062 449.813 897.238C441.716 894.305 434.05 889.752 426.514 885.615L393.482 867.358C339.532 837.515 285.764 807.342 232.18 776.841C174.747 744.773 116.959 713.273 59.9051 680.537L22.3653 659.339C15.4632 655.367 7.92011 651.484 1.81241 646.327C0.688902 643.311 0.334283 639.99 0.311079 636.781C0.202969 621.815 1.99342 606.387 2.92114 591.413C3.69178 578.976 3.6504 566.217 5.12617 553.871C5.47709 550.935 6.05358 548.1 7.01826 545.302C9.12761 539.183 12.2874 535.42 17.4957 531.648C23.5966 527.231 30.7364 524.316 37.5263 521.135L62.0304 509.538C85.5107 498.182 108.623 486.085 132.127 474.769C136.535 467.11 139.525 458.603 143.893 450.843C152.324 451.671 160.734 453.046 169.164 453.969C194.248 440.51 220.677 429.168 246.545 417.305C267.391 407.744 287.765 397.354 309.07 388.787C308.466 376.588 308.575 364.287 308.427 352.072L307.637 273.38L305.891 158.366C305.676 142.462 304.922 126.531 305.094 110.628Z" fill="url(#paint0_linear_2_512)"/>
<path d="M257.833 604.063C258.335 605.714 258.254 609.036 257.581 610.655C257.194 611.586 256.974 611.669 256.045 612.043L253.791 610.552C252.667 610.094 251.999 609.997 251.222 609.019C252.124 607.077 255.963 605.302 257.833 604.063Z" fill="#FDFCFC"/>
<path d="M90.6468 581.629C91.2546 582.111 91.2567 582.029 91.6787 582.732C93.8963 586.43 92.4661 590.683 91.4784 594.519C90.962 594.572 90.4446 594.494 89.9281 594.451C88.2793 591.325 89.8275 584.976 90.6468 581.629Z" fill="#F6D8D6"/>
<path d="M916.677 665.802C918.409 666.791 920.186 667.949 921.712 669.243C922.781 670.148 923.096 671.073 923.258 672.443C922.809 674.115 921.982 674.771 920.738 675.862L915.758 678.145C916.187 674.034 916.449 669.93 916.677 665.802Z" fill="#F7EEE2"/>
<path d="M308.312 393.439L308.901 393.639C309.89 396.352 309.385 400.766 309.402 403.715L302.335 400.683L297.286 398.257L308.312 393.439Z" fill="#F6D8D6"/>
<path d="M926.854 627.43C927.916 627.508 928.272 627.811 929.156 628.362L929.24 629.489C926.815 634.602 922.89 637.547 918.261 640.525C916.977 640.819 917.576 640.904 916.458 640.335C916.477 639.557 916.436 638.615 916.64 637.861C917.643 634.172 923.777 629.599 926.854 627.43Z" fill="#FDFCFC"/>
<path d="M268.922 618.873C269.48 619.99 269.835 620.72 269.944 621.989C265.922 625.623 250.221 631.707 244.506 634.305L243.833 634.09C245.368 630.992 264.716 621.139 268.922 618.873Z" fill="#FDFCFC"/>
<path d="M186.498 449.471C192.618 452.716 198.938 455.548 205.229 458.443L195.563 457.357C189.121 456.651 182.29 456.226 175.989 454.732C179.403 452.769 182.922 451.118 186.498 449.471Z" fill="#F6D8D6"/>
<path d="M128.922 481.266L129.209 481.493C129.602 483.483 123.607 494.099 122.377 496.558L115.8 493.459C113.788 492.505 111.813 491.451 109.826 490.446C116.129 487.211 122.404 484.049 128.922 481.266Z" fill="#FDFCFC"/>
<path d="M269.272 599.488C273.346 600.16 276.601 602.55 280.077 604.622C276.263 608.466 272.111 611.478 267.495 614.29C265.046 615.733 262.49 617.001 259.97 618.315C261.308 613.198 261.302 605.27 264.592 601.103C265.65 599.764 267.686 599.734 269.272 599.488Z" fill="#FDFCFC"/>
<path d="M244.722 612.202C245.108 612.153 245.498 612.134 245.886 612.125C250.533 612.01 254.391 617.083 257.3 620.079C251.32 624.385 244.416 627.789 238.021 631.467C235.437 629.819 233.031 628.274 231.411 625.611C235.934 625.64 240.007 624.94 243.964 622.596C245.615 621.618 246.67 620.93 247.179 619.088L246.702 618.493C241.695 618.387 237.277 621.134 232.085 620.684L231.416 619.433C234.462 615.161 240.029 613.814 244.722 612.202Z" fill="#FDFCFC"/>
<path d="M926.514 617.821C929.039 617.703 930.944 617.994 933.249 619.123C935.666 620.307 937.207 622.06 937.973 624.654C939.134 628.585 938.278 632.706 936.318 636.222C933.448 641.369 924.893 649.675 919.202 650.954C918.142 651.193 917.979 651.058 917.121 650.515C916.736 649.321 916.572 648.427 917.014 647.202C917.565 645.676 920.18 644.517 921.57 643.708C924.591 641.654 927.409 639.508 929.754 636.68C931.721 634.307 933.866 630.973 933.406 627.727C933.169 626.05 932.011 624.264 930.532 623.412C924.931 620.188 920.852 628.811 916.623 630.249C915.941 628.531 916.635 626.157 917.332 624.485C918.746 621.093 923.27 619.049 926.514 617.821Z" fill="#94C5C2"/>
<path d="M226.157 617.685C214.176 617.839 201.845 615.467 189.995 613.848L120.656 603.715C115.143 602.924 109.618 602.222 104.083 601.61C99.6909 601.165 94.9353 601.176 90.6704 600.053L90.1909 599.235C90.7566 598.288 90.8172 598.019 91.9496 597.721C97.3398 596.304 138.036 603.928 145.839 605.082L194.936 611.977C201.366 612.922 215.292 616.065 221.249 614.849C222.748 614.543 223.535 613.948 224.359 612.676C225.017 611.661 225.292 610.3 225.585 609.14L226.572 609.086C226.426 611.949 226.234 614.82 226.157 617.685Z" fill="#F6D8D6"/>
<path d="M251.476 580.006C258.749 584.17 280.424 594.042 284.907 598.823L284.688 599.475C281.182 600.887 274.795 596.543 271.192 595.539C269.229 594.992 266.885 595.26 264.864 595.365C258.867 596.888 254.537 601.928 249.426 605.204C245.902 607.463 242.391 608.755 238.442 610.025C242.735 599.983 247.438 590.163 251.476 580.006Z" fill="#FDFCFC"/>
<path d="M283.845 487.312C284.533 488.002 284.92 489.065 285.19 489.994C285.89 492.398 285.412 494.768 284.632 497.076C281.487 506.398 276.959 515.494 272.863 524.438L249.839 573.598C246.195 581.429 242.651 589.305 239.206 597.226C236.847 602.587 234.688 608.198 231.648 613.214L231.157 613.547L230.726 612.763C230.995 608.326 231.534 603.899 232.937 599.661C237.133 586.991 244.452 573.132 250.122 560.807L283.845 487.312Z" fill="#9EA2B9"/>
<path d="M148.282 612.318C156.347 612.937 164.476 614.591 172.465 615.859C187.602 618.259 203.315 620.819 218.575 622.078C222.527 622.403 226.512 621.616 230.476 621.716C227.242 621.928 223.635 624.097 220.691 625.46C212.405 629.653 204.049 633.701 195.622 637.603C180.142 628.643 163.866 621.092 148.282 612.318Z" fill="#F7EEE2"/>
<path d="M314.716 603.91C318.676 603.526 321.827 606.089 324.867 608.253C314.023 612.886 303.623 618.664 293.094 623.962C283.528 628.775 273.769 633.19 264.239 638.081C256.354 642.128 248.113 647.496 239.844 650.559C238.115 651.2 237.37 651.26 235.576 650.844C232.055 648.835 228.419 647.042 224.803 645.214C229.282 643.155 233.654 640.912 238.035 638.655L240.678 640.035C246.749 640.031 305.052 609.1 314.716 603.91Z" fill="#FDFCFC"/>
<path d="M873.713 611.36C880.457 610.057 889.13 611.186 895.779 612.617C900.373 613.605 906.143 614.937 908.827 619.119C908.999 620.447 909.161 621.365 908.251 622.488C904.368 627.279 892.563 628.75 886.839 629.514C878.49 630.25 870.248 629.748 862.148 627.458C858.343 626.382 853.972 624.958 851.957 621.311C851.932 619.993 851.786 619.314 852.693 618.232C856.551 613.628 868.04 612.006 873.713 611.36Z" fill="#7AA7AD"/>
<path d="M696.665 244.314C706.545 238.687 717.213 234.225 727.411 229.171L786.873 199.501L828.659 178.304C834.997 175.156 841.28 171.52 847.964 169.175C848.124 171.511 848.32 173.85 848.409 176.19C818.61 191.357 788.344 205.532 758.418 220.436C746.512 226.433 734.565 232.347 722.578 238.18C717.356 240.731 711.799 244.048 706.364 245.977L705.699 245.775C708.181 242.819 714.433 242.442 717.246 239.246C717.957 238.439 717.918 238.401 717.814 237.291C717.35 236.9 716.835 236.246 716.206 236.187C711.178 235.714 702.675 244.455 697.36 244.362C697.127 244.358 696.896 244.329 696.665 244.314Z" fill="#FDFCFC"/>
<path d="M105.131 492.986C109.531 494.003 116.25 499.052 120.42 501.358C115.873 513.525 109.799 525.504 104.585 537.434C98.7525 534.687 93.0934 531.593 87.4066 528.559C78.7062 524.017 69.8787 519.567 61.4287 514.576C75.7521 506.947 90.5472 500.106 105.131 492.986Z" fill="#F7EEE2"/>
<path d="M457.932 186.554C460.546 187.208 463.35 187.502 465.965 186.671C472.458 184.609 478.843 180.854 484.937 177.808L520.775 159.671C553.181 143.294 586.043 127.938 618.659 111.998L654.454 94.2823C659.947 91.541 665.381 88.3788 670.98 85.8983C672.986 85.0092 675.434 84.8038 677.608 84.925C679.241 85.0163 680.983 85.2771 682.08 86.5112C681 88.5533 674.247 91.2001 672.029 92.3408C659.756 97.158 647.923 103.497 636.145 109.402L584.149 134.803C575.619 138.919 566.46 142.585 558.229 147.221C545.238 153.555 532.293 159.982 519.395 166.503C513.999 169.204 507.288 171.717 502.411 175.147C489.425 181.075 476.93 187.719 463.596 192.903C461.051 192.202 458.507 191.53 456.021 190.635L457.932 186.554Z" fill="#94C5C2"/>
<path d="M395.151 163.166C403.228 157.633 412.999 153.741 421.782 149.392L464.604 128.153C495.393 113.23 526.512 99.0933 557.43 84.4527C573.567 76.811 589.374 68.3603 605.674 61.0759C607.121 60.4301 608.753 59.542 610.359 59.656C611.146 60.7165 611.308 61.9352 611.209 63.235C611.107 64.5851 610.975 65.4003 609.999 66.3346C609.653 66.1673 609.021 65.85 608.67 65.7473C605.458 64.8151 577.352 80.0666 572.12 82.4527C535.587 99.4472 499.232 116.812 463.053 134.547C452.327 139.722 441.57 145.062 430.797 150.094C424.747 152.921 417.999 155.359 412.251 158.728C410.24 159.907 408.822 160.864 408.212 163.183C408.898 164.654 409.542 164.962 410.832 165.905C420.792 170.677 431.037 174.892 441.151 179.327C446.641 181.735 452.226 184.801 457.932 186.554L456.021 190.635C435.421 181.873 415.124 173.348 395.151 163.166Z" fill="#C2B1BE"/>
<path d="M96.0368 580.722C106.112 582.111 116.097 584.287 126.141 585.908L181.172 594.529C192.722 596.457 208.095 597.743 219.07 600.671C220.406 601.028 221.046 601.198 221.603 602.573C222.584 604.988 221.596 608.497 220.654 610.772C219.712 611.104 218.647 611.409 217.637 611.318C210.381 610.66 202.934 608.974 195.672 607.979C178.03 605.56 160.316 603.358 142.709 600.697C127.145 598.345 111.558 595.36 95.8726 593.943C96.581 589.333 96.545 585.348 96.0368 580.722Z" fill="#F6D8D6"/>
<path d="M773.843 147.091C775.214 148.571 774.523 154.009 774.49 156.036C758.988 164.084 742.782 171.054 727.025 178.628L628.174 226.04C618.052 230.913 607.966 235.859 597.916 240.879C594.364 242.632 589.895 245.578 586.13 246.599C584.697 246.987 583.277 245.909 582.02 245.313L578.895 242.995C592.037 236.398 605.389 230.285 618.608 223.85L686.511 190.387C715.695 176.16 745.075 162.139 773.843 147.091Z" fill="#F6D8D6"/>
<path d="M292.285 400.651C295.881 400.83 306.106 407.048 309.696 408.931L310.179 451.489C300.624 446.643 291.007 441.927 281.326 437.339C270.13 432 259.005 426.516 247.952 420.888C262.989 414.836 277.405 407.117 292.285 400.651Z" fill="#F7EEE2"/>
<path d="M936.473 658.213C944.633 660.889 952.481 665.508 960.098 669.438C972.162 675.539 984.112 681.858 995.946 688.395C984.747 693.443 973.845 698.822 962.852 704.313L946.098 712.378C937.528 707.59 928.395 703.175 919.433 699.168C925.024 696.965 930.838 694.017 935.581 690.292C939.971 686.844 943.377 682.309 943.959 676.615C944.714 669.217 940.832 663.674 936.473 658.213Z" fill="#F7EEE2"/>
<path d="M916.938 652.993C919.859 654.464 922.853 654.618 926.049 654.776C928.045 656.096 929.853 657.637 931.611 659.255C935.799 663.109 939.823 668.367 939.91 674.291C939.974 678.643 937.823 682.458 934.721 685.388C921.196 698.167 897.136 700.74 879.488 700.162C862.157 699.594 839.268 695.964 826.828 682.662C826.188 681.695 825.486 680.486 825.21 679.358C824.715 677.335 825.29 675.255 826.366 673.524C830.103 667.516 838.661 664.445 845.218 662.922C845.181 667.027 844.762 671.866 845.771 675.857C846.771 679.818 850.13 682.801 853.546 684.789C866.531 692.343 887.019 692.339 901.111 688.379C908.306 686.357 923.343 681.592 926.914 674.753C927.808 673.039 927.973 671.114 927.255 669.3C925.613 665.154 920.726 663.181 916.971 661.424L916.938 652.993Z" fill="#94C5C2"/>
<path d="M529.005 12.83C529.018 15.071 528.907 17.3108 528.823 19.5499C529.294 20.5342 529.739 21.3551 529.93 22.4404C520.42 28.2556 504.683 34.5051 494.24 39.3757L426.351 71.5893C408.868 80.0164 391.168 88.1755 373.825 96.8695C366.856 100.362 355.073 107.799 348.402 109.866C343.562 109.027 338.124 116.762 334.62 115.421C336.222 114.237 337.791 113.039 339.319 111.76L338.471 111.321C336.256 112.202 334.427 113.928 332.747 115.563L324.449 111.993C352.833 98.7617 380.482 83.7792 408.691 70.1437C448.683 50.8131 489.206 32.578 529.005 12.83Z" fill="#C2B1BE"/>
<path d="M338.471 111.321C346.887 104.913 362.574 98.1242 372.501 93.2032C399.423 80.0342 426.438 67.0571 453.544 54.272L503.337 30.6458C511.433 26.858 520.206 21.891 528.823 19.5499C529.294 20.5342 529.739 21.3551 529.93 22.4404C520.42 28.2556 504.683 34.5051 494.24 39.3757L426.351 71.5893C408.868 80.0164 391.168 88.1755 373.825 96.8695C366.856 100.362 355.073 107.799 348.402 109.866C343.562 109.027 338.124 116.762 334.62 115.421C336.222 114.237 337.791 113.039 339.319 111.76L338.471 111.321Z" fill="#020022"/>
<path d="M131.128 674.827C151.326 686.872 172.617 697.179 193.234 708.486L328.463 782.708C360.035 799.941 391.495 817.375 422.844 835.012C436.727 842.689 450.635 851.503 464.945 858.262C530.905 824.2 597.242 790.89 663.956 758.332L699.551 740.819C704.43 738.406 710.271 734.582 715.43 733.271L715.807 733.721C715.526 735.239 714.433 736.064 713.381 737.099C704.353 742.644 694.427 746.804 684.928 751.483C663.014 762.279 640.795 772.547 619.011 783.587L523.067 832.567C503.941 842.426 484.837 853.287 465.088 861.805C456.537 858.12 448.298 852.811 440.153 848.285L397.739 824.777C363.109 805.426 328.381 786.252 293.555 767.256L182.315 706.662L148.039 688.412C141.264 684.813 133.356 681.109 127.143 676.628L131.128 674.827Z" fill="#EAA9AC"/>
<path d="M936.045 516.77C946.225 521.649 956.496 526.333 966.856 530.82C980.657 536.749 997.57 541.167 1008.41 551.981C1017.86 561.413 1016.64 572.704 1016.66 585.08C990.201 570.728 963.104 557.719 936.996 542.694C935.977 534.237 936.236 525.308 936.045 516.77Z" fill="#F7EEE2"/>
<path d="M694.644 104.508C694.875 104.822 695.129 105.121 695.24 105.509C695.592 106.748 695.564 107.576 694.778 108.587C692.013 112.139 679.673 116.217 675.185 118.441C637.122 137.137 598.92 155.541 560.577 173.653C546.727 180.099 532.946 186.689 519.234 193.423C511.11 197.34 502.567 201.109 494.772 205.638C494.08 206.04 493.746 206.429 493.358 207.119C493.661 208.196 493.774 208.5 494.704 209.214C499.788 213.116 544.85 231.631 550.109 230.968C554.58 230.403 576.506 218.288 582.298 215.423L694.416 159.266C711.78 150.352 728.784 140.527 746.268 131.905C748.62 130.745 751.96 129.004 754.586 128.95C756.245 128.916 757.267 129.574 758.461 130.633C757.621 132.208 751.725 134.4 749.87 135.299L595.331 213.745C584.91 218.906 560.663 232.913 550.941 235.162C542.704 237.069 489.75 212.672 480.579 206.849C499.964 198.23 518.702 188.315 537.884 179.28L694.644 104.508Z" fill="#EAA9AC"/>
<path d="M270.519 539.538C292.79 550.421 314.781 561.844 336.492 573.807L310.159 587C303.745 590.251 297.28 593.396 290.764 596.435C278.63 590.054 265.199 583.295 253.524 576.294C258.201 563.79 264.763 551.595 270.519 539.538Z" fill="#F7EEE2"/>
<path d="M847.424 181.364L848.229 181.594C848.875 183.236 848.362 185.701 848.226 187.446C838.365 191.443 828.765 196.541 819.181 201.182L753.633 233.69L696.214 261.932C685.017 267.347 673.185 272.23 662.432 278.475C660.491 279.601 658.89 280.544 658.274 282.789C658.562 283.443 658.544 283.491 659.063 284.149C661.958 287.811 695.283 303.871 700.896 305.492C701.987 305.809 703.092 306.067 704.211 306.266C705.33 306.464 706.457 306.602 707.591 306.679C708.725 306.758 709.86 306.774 710.996 306.73C712.131 306.686 713.261 306.581 714.386 306.416C723.551 305.041 731.011 299.483 739.02 295.255C744.973 292.113 751.053 289.181 757.076 286.17L871.631 228.91C882.058 223.686 892.325 218.187 902.66 212.786C907.596 210.207 912.582 207.295 917.696 205.109C919.485 204.343 922.369 203.212 924.368 203.717C925.892 204.102 926.051 204.407 926.832 205.654C925.465 208.541 920.445 210.021 917.63 211.275C894.082 222.821 870.636 234.571 847.292 246.527L769.657 284.938C759.311 290.083 749.102 295.539 738.84 300.85C732.456 304.154 725.84 308.158 718.916 310.141C713.952 311.564 708.433 312.015 703.336 311.095C695.73 309.723 688.685 305.964 681.737 302.74C668.483 296.589 655.808 290.04 643.055 282.922C650.437 275.553 692.29 257.841 704.133 251.989L847.424 181.364Z" fill="#F6D8D6"/>
<path d="M525.437 4.29197C525.612 4.27688 525.785 4.2353 525.96 4.2468C527.381 4.34033 527.683 4.6241 528.673 5.54762C529.017 7.13653 529.009 7.99135 527.789 9.27287C525.813 11.3499 514.223 16.0464 510.97 17.5848C491.691 26.7047 322.181 107.049 319.896 111.39C320.779 113.39 322.981 114.646 324.822 115.686C333.819 120.77 344.124 124.517 353.585 128.709C360.943 131.97 368.23 135.887 375.676 138.861C379 140.189 382.072 140.608 385.51 139.451C391.33 137.492 397.152 133.884 402.66 131.104C414.247 125.19 425.881 119.373 437.563 113.652L557.401 56.3634C570.229 50.2515 582.584 43.041 595.561 37.2741C597.942 38.1026 600.109 38.9897 602.345 40.1735L595.778 43.1694C581.809 49.4497 568.188 56.5718 554.355 63.1519L425.067 125.505C410.57 132.499 396.322 140.095 381.644 146.695C371.977 142.316 362.268 138.033 352.516 133.845C340.814 128.812 318.446 120.344 309.162 112.237C318.214 103.472 352.942 88.1581 365.388 82.0657C392.564 68.7607 419.696 55.2731 447.056 42.3562L491.253 21.1139C502.702 15.6145 514.284 10.3852 525.437 4.29197Z" fill="#C2B1BE"/>
<path d="M56.8009 516.829C61.3415 520.138 66.9629 522.506 71.9449 525.122C82.4268 530.528 92.8339 536.076 103.166 541.764C96.7596 555.647 88.236 569.314 85.0888 584.363L69.685 575.387C57.7347 568.557 45.8457 561.622 34.0179 554.582C27.1318 550.49 20.0314 546.579 13.5122 541.925C20.8921 530.68 44.5863 522.2 56.8009 516.829Z" fill="#F7EEE2"/>
<path d="M912.271 625.573L912.668 626.306C912.443 635.849 912.376 645.394 912.467 654.939C912.47 660.039 912.827 665.434 912.238 670.501C911.912 673.298 911.214 677.327 909.383 679.506C904.72 685.055 893.224 686.26 886.431 686.55C875.169 687.03 860.827 686.113 852.06 678.094C851.171 676.741 850.371 675.46 850.072 673.846C848.95 667.794 849.748 660.938 849.802 654.785C849.885 645.456 849.788 636.118 849.748 626.787C853.849 629.351 858.059 631.171 862.752 632.369C863.786 632.64 864.826 632.884 865.872 633.103C866.918 633.322 867.969 633.516 869.024 633.683C870.08 633.851 871.138 633.993 872.201 634.108C873.263 634.224 874.328 634.314 875.395 634.377C876.461 634.441 877.529 634.479 878.598 634.49C879.667 634.501 880.735 634.486 881.802 634.445C882.87 634.404 883.937 634.337 885.002 634.244C886.066 634.151 887.128 634.031 888.186 633.886C889.245 633.741 890.299 633.569 891.35 633.372C892.4 633.176 893.445 632.953 894.484 632.705C895.524 632.457 896.557 632.183 897.583 631.885C898.609 631.586 899.627 631.262 900.637 630.913C901.647 630.564 902.648 630.191 903.64 629.793C904.632 629.396 905.613 628.974 906.585 628.528C907.556 628.082 908.516 627.613 909.464 627.12C910.412 626.627 911.348 626.111 912.271 625.573Z" fill="#94C5C2"/>
<path d="M287.825 502.26C299.812 508.355 312.148 513.79 324.23 519.7C343.921 529.355 363.444 539.336 382.802 549.644C374.694 554.141 366.376 558.31 358.158 562.603C352.664 565.576 347.104 568.42 341.478 571.135C333.44 567.818 325.478 562.91 317.736 558.858C302.699 550.969 287.614 543.172 272.48 535.468C277.771 524.48 282.365 513.161 287.825 502.26Z" fill="#F7EEE2"/>
<path d="M640.303 279.631L640.825 280.302C639.85 282.433 639.608 284.197 639.495 286.508C638.861 299.456 639.274 312.632 639.273 325.606L639.321 399.663L639.279 641.821C636.018 643.382 632.767 644.962 629.525 646.563C628.262 633.092 628.105 619.451 627.82 605.927C627.436 579.643 627.393 553.36 627.693 527.076C628.274 474.197 629.191 421.324 630.445 368.458C631.444 339.464 632.179 310.464 632.649 281.457C635.233 281.038 637.772 280.285 640.303 279.631Z" fill="#EAA9AC"/>
<path d="M701.169 748.163C703.195 747.955 775.802 788.051 785.254 793.589C779.886 796.755 774.1 799.448 768.558 802.311C758.475 807.518 748.394 812.765 738.038 817.414C736.741 817.439 662.281 776.003 653.764 771.346C669.226 763.056 685.34 755.731 701.169 748.163Z" fill="#F7EEE2"/>
<path d="M494.671 851.804C509.491 844.115 523.994 835.737 539.148 828.704C541.17 827.764 541.851 827.345 543.99 828.142C560.81 838.468 578.874 847.31 596.231 856.715C606.083 862.055 615.517 868.281 625.588 873.197C618.836 878.365 584.893 894.393 576.318 897.014C567.02 892.296 557.94 886.77 548.788 881.74C530.677 871.891 512.638 861.912 494.671 851.804Z" fill="#F7EEE2"/>
<path d="M648.925 773.342C654.125 775.084 667.943 783.65 673.809 786.877C693.721 797.833 714.127 808.353 733.571 820.111C717.66 829.111 700.653 837.157 684.105 844.945L631.056 815.711C620.422 809.81 610.022 803.439 598.951 798.373C615.667 790.148 632.151 781.483 648.925 773.342Z" fill="#F7EEE2"/>
<path d="M936.818 547.624L986.09 573.933C996.23 579.255 1007.01 584.008 1016.74 590.025C1017.89 606.533 1018.1 623.243 1018.63 639.788C1011.11 635.773 1003.52 631.914 995.847 628.211C964.241 612.15 933.526 594.273 901.504 579.05C912.086 573.523 927.771 567.227 936.964 560.432C937.165 556.181 936.924 551.879 936.818 547.624Z" fill="#F7EEE2"/>
<path d="M595.273 800.513C623.532 815.482 651.475 831.371 679.253 847.226C673.478 850.26 632.925 871.668 629.574 871.048C628.21 871.691 626.749 872.227 625.588 873.197C615.517 868.281 606.083 862.055 596.231 856.715C578.874 847.31 560.81 838.468 543.99 828.142L544.328 827.79H546.309C547.271 826.832 547.128 826.639 547.389 825.366L547.265 824.67C552.821 820.697 560.144 817.82 566.281 814.736C575.766 809.969 585.437 804.473 595.273 800.513Z" fill="#F7EEE2"/>
<path d="M547.389 825.366C566.697 835.878 585.947 846.495 605.138 857.218C613.179 861.767 621.879 866.011 629.574 871.048C628.21 871.691 626.749 872.227 625.588 873.197C615.517 868.281 606.083 862.055 596.231 856.715C578.874 847.31 560.81 838.468 543.99 828.142L544.328 827.79H546.309C547.271 826.832 547.128 826.639 547.389 825.366Z" fill="#000012"/>
<path d="M605.238 42.8532C605.352 42.848 605.466 42.8265 605.58 42.8367C606.316 42.9096 606.758 42.9096 607.219 43.5226C609.595 46.6786 609.24 51.5667 608.975 55.308C586.411 64.3398 564.753 76.1355 542.764 86.5195C503.318 104.747 464.106 123.464 425.128 142.672C418.157 146.113 396.906 155.447 391.934 160.14C389.787 167.921 390.958 179.614 390.93 187.73L390.769 231.799L389.949 301.189C389.875 343.153 390.299 385.112 391.219 427.066C391.531 453.959 392.14 480.846 393.045 507.727L386.715 509.4L382.121 510.896C382.695 475.58 382.98 440.262 382.975 404.941L383.114 222.83L383.132 173.965C383.085 166.246 382.638 158.513 382.86 150.8C401.28 142.35 419.178 132.931 437.404 124.098L552.163 68.6098C569.849 60.0431 587.277 50.8141 605.238 42.8532Z" fill="url(#paint1_linear_2_512)"/>
<path d="M797.896 630.991C799.195 629.358 801.137 629.154 803.057 628.67C811.679 633.086 820.24 637.614 828.742 642.256C834.284 645.241 840.369 648.095 845.362 651.933C845.023 653.232 844.411 654.382 844.04 655.659C844.523 656.161 844.913 656.73 845.331 657.286C845.261 657.631 845.352 658.054 845.123 658.322C843.308 660.446 829.17 661.422 822.512 672.056C820.884 674.657 820.199 677.661 821.021 680.66C822.486 686.005 827.974 690.054 832.522 692.806C855.221 706.54 888.704 707.031 913.812 700.802C923.113 704.498 932.294 709.859 941.229 714.41C927.539 723.099 909.823 730.698 895.048 738.023C877.359 726.984 858.216 718.26 839.67 708.801C807.398 692.49 775.372 675.709 743.591 658.46C755.042 652.581 766.522 646.761 778.03 640.998C784.003 638.05 792.815 634.986 797.896 630.991Z" fill="#F7EEE2"/>
<path d="M797.896 630.991C799.195 629.358 801.137 629.154 803.057 628.67C811.679 633.086 820.24 637.614 828.742 642.256C834.284 645.241 840.369 648.095 845.362 651.933C845.023 653.232 844.411 654.382 844.04 655.659C829.97 647.588 812.678 637.022 797.896 630.991Z" fill="#000012"/>
<path d="M762.924 133.656C766.038 135.418 771.041 137.571 773.187 140.507C773.756 141.285 773.573 141.33 773.48 142.215C767.75 146.083 760.862 148.97 754.678 152.069C742.706 158.091 730.693 164.031 718.639 169.891L617.108 219.691C605.957 225.091 594.64 230.172 583.65 235.897C580.777 237.393 577.391 238.713 574.727 240.524C573.558 241.319 573.223 241.863 572.989 243.216C574.279 245.532 577.093 246.933 579.411 248.073C585.395 251.015 591.739 253.269 597.781 256.124C608.696 261.28 620.761 268.222 632.31 271.554C634.644 272.228 636.539 272.4 638.921 271.922C646.631 270.373 665.18 259.422 673.49 255.318C680.396 251.908 688.906 246.821 696.005 244.519C696.223 244.449 696.444 244.382 696.665 244.314C696.896 244.329 697.127 244.358 697.36 244.362C702.675 244.455 711.178 235.714 716.206 236.187C716.835 236.246 717.35 236.9 717.814 237.291C717.917 238.401 717.956 238.439 717.246 239.246C714.433 242.442 708.181 242.819 705.699 245.775L706.364 245.977C697.188 251.667 686.275 255.884 676.475 260.524C666.208 265.386 655.588 271.324 644.915 275.091C641.283 276.374 636.83 276.651 633.023 277.514C622.423 274.273 570.78 250.859 564.055 245.321C564.857 244.343 565.921 243.91 567.026 243.355C567.427 242.185 567.336 242.177 566.881 241.009C566.147 240.59 565.657 240.337 564.774 240.388C562.725 240.507 560.39 242.081 559.093 243.597C558.372 244.439 558.004 245.378 557.877 246.482C556.69 256.94 557.034 268.086 556.755 278.633C556.186 301.412 555.804 324.194 555.61 346.979C554.994 403.367 554.907 459.755 555.348 516.142C555.719 543.744 556.338 571.341 557.205 598.932C553.761 599.899 550.607 601.381 547.366 602.867C547.442 517.987 548.154 433.113 549.505 348.244C550.056 312.002 551.361 275.754 551.657 239.513C561.56 236.636 570.51 231.186 579.652 226.524L613.417 209.48L709.834 161C727.586 151.972 744.876 142.122 762.924 133.656Z" fill="#EAA9AC"/>
<path d="M896.922 581.343C904.074 584.299 910.939 588.388 917.785 592.002L951.864 609.932C974.022 621.641 996.824 632.457 1018.65 644.722C1018.96 655.703 1019.18 666.685 1019.28 677.669C1013.28 680.451 1007.29 683.499 1001.02 685.648C976.511 675.016 953.981 659.163 928.506 650.81C934.649 645.641 942.291 639.711 942.944 631.049C943.3 626.335 941.776 621.537 938.529 618.064C935.865 615.215 932.03 613.369 928.104 613.272C922.18 613.124 919.347 619.346 915.02 619.962C914.916 619.749 914.816 619.536 914.709 619.325C911.894 613.753 906.362 611.445 900.691 609.662C886.84 605.308 868.72 604.788 855.579 611.731C851.49 613.891 848.102 616.747 845.799 620.8C845.641 630.974 846.54 641.888 845.362 651.933C840.369 648.095 834.284 645.241 828.742 642.256C820.24 637.614 811.679 633.086 803.057 628.67C823.492 618.154 844.019 607.822 864.638 597.674C875.391 592.256 885.995 586.382 896.922 581.343Z" fill="#F7EEE2"/>
<path d="M675.53 92.9917C678.803 91.5557 682.052 90.0653 685.276 88.5204C689.316 90.4003 692.528 92.9085 693.975 97.3603C694.259 98.236 694.277 98.9763 694.248 99.8849C693.568 100.974 693.633 100.797 692.567 101.269C680.832 105.801 669.556 112.016 658.116 117.304C625.708 132.28 593.731 148.006 561.559 163.469L505.397 190.47C498.552 193.775 482.949 199.97 477.742 204.682C475.176 210.637 476.731 244.655 476.457 253.464C476.198 261.763 475.939 270.144 475.173 278.409C474.012 290.937 472.225 303.365 471.898 315.964C471.038 349.158 471.795 382.61 472.123 415.819C472.373 461.411 473.012 506.998 474.042 552.579C470.037 554.023 466.156 555.653 462.262 557.372C461.45 487.149 461.896 416.934 463.598 346.728C464.32 317.828 465.926 288.964 466.702 260.072C467.07 238.729 467.244 217.386 467.225 196.041C473.717 193.215 492.952 183.988 498.09 180.207L498.007 179.189C504.575 175.032 512.234 172.194 519.104 168.5C516.512 168.114 506.218 174.3 503.083 175.753L502.411 175.147C507.288 171.717 513.999 169.204 519.395 166.503C532.293 159.982 545.238 153.555 558.229 147.221C566.46 142.585 575.619 138.919 584.15 134.803L636.145 109.402C647.923 103.497 659.756 97.158 672.029 92.3408C673.341 92.4003 674.394 92.272 675.53 92.9917Z" fill="#94C5C2"/>
<path d="M502.411 175.147C507.288 171.717 513.999 169.204 519.395 166.503C532.293 159.982 545.238 153.555 558.229 147.221L558.903 148.321C558.097 148.829 557.35 149.204 556.485 149.582C555.579 149.978 555.334 150.09 554.806 150.879L554.768 151.501C547.795 156.289 538.693 159.883 531.077 163.726C520.234 169.198 509.278 175.579 498.09 180.207L498.007 179.189C504.575 175.032 512.234 172.194 519.104 168.5C516.512 168.114 506.218 174.3 503.083 175.753L502.411 175.147Z" fill="#000012"/>
<path d="M636.145 109.402C647.923 103.497 659.756 97.158 672.029 92.3408C673.341 92.4003 674.394 92.272 675.53 92.9917C662.756 99.0748 649.859 104.987 637.292 111.493C617.583 121.367 597.782 131.054 577.888 140.551C570.261 144.167 562.564 148.326 554.768 151.501L554.806 150.879C555.334 150.09 555.579 149.978 556.485 149.582C557.35 149.204 558.097 148.829 558.903 148.321L558.229 147.221C566.46 142.585 575.619 138.919 584.149 134.803L636.145 109.402Z" fill="#000012"/>
<path d="M773.973 161.587C781.761 167.848 802.959 177.426 812.756 181.692C794.256 191.685 775.173 200.698 756.3 209.96L689.509 242.921C678.885 248.111 668.301 253.382 657.757 258.735C650.972 262.166 644.156 266.111 636.976 268.632C634.919 268.095 632.886 267.374 630.856 266.736C617.338 261.406 604.155 254.828 591.009 248.635C615.348 236.676 640.016 225.387 664.408 213.527C700.71 195.875 736.97 177.71 773.973 161.587Z" fill="#FDFCFC"/>
<path d="M693.179 114.687C695.48 114.622 727.36 131.941 732.41 134.435C697.846 153.492 662.365 170.569 627.12 188.298C609.703 197.227 592.212 206.01 574.648 214.646C566.029 218.93 557.475 223.5 548.687 227.422L542.65 225.302C528.373 219.325 513.943 213.658 499.833 207.296C564.534 176.967 628.39 144.813 693.179 114.687Z" fill="#FDFCFC"/>
<path d="M11.3281 545.636C34.2931 561.022 60.732 574.807 84.7415 588.91C84.4508 592.409 84.0818 597.113 85.3864 600.402C86.902 604.224 91.7555 604.652 95.3284 605.076C108.089 606.588 124.153 607.508 136.257 611.146C141.632 612.762 147.502 616.889 152.552 619.544C165.617 626.414 178.629 633.439 191.964 639.774L171.408 650.074L135.426 667.688C116.765 658.967 98.736 647.783 80.7149 637.782C55.9804 624.056 30.9645 610.904 6.69531 596.357C9.01677 579.852 6.36287 561.596 11.3281 545.636Z" fill="#F7EEE2"/>
<path d="M639.279 646.067C644.451 651.042 692.929 674.077 702.253 678.452C714.671 672.978 726.876 666.511 739.015 660.415C756.006 670.081 773.506 678.89 790.851 687.896L891.402 740L881.622 745.192C868.723 752.087 855.42 758.944 841.979 764.709C834.465 760.132 826.583 756.094 818.851 751.892C797.65 740.368 776.087 729.554 754.764 718.263C713.178 696.095 671.789 673.565 630.597 650.674L639.279 646.067Z" fill="#F7EEE2"/>
<path d="M529.93 22.4404C542.94 30.7464 557.579 37.4918 571.452 44.2649C560.662 50.6283 548.822 55.7957 537.541 61.2443C517.373 71.1608 497.094 80.8446 476.704 90.2956L411.598 121.936C402.932 126.183 394.386 130.831 385.598 134.805C383.871 135.586 382.371 136.208 380.458 135.754C380.203 135.693 379.955 135.614 379.701 135.548C379.4 135.471 379.096 135.404 378.795 135.327C371.593 133.467 364.635 129.452 357.902 126.294C350.771 122.994 343.589 119.81 336.356 116.741C340.362 114.465 344.491 112.297 348.402 109.866C355.073 107.799 366.856 100.362 373.825 96.8695C391.168 88.1755 408.868 80.0164 426.351 71.5893L494.24 39.3757C504.683 34.5051 520.42 28.2556 529.93 22.4404Z" fill="#FDFCFC"/>
<path d="M848.646 192.329C856.399 195.704 863.864 200.026 871.525 203.644C878.953 207.153 886.63 209.889 894.355 212.656C857.995 231.221 821.524 249.565 784.942 267.689L743.27 288.854C735.973 292.613 728.772 296.973 721.246 300.247C717.71 301.786 714.277 302.496 710.444 302.783C699.696 302.721 674.596 288.202 663.539 282.746C675.158 276.134 687.548 270.658 699.564 264.814L761.198 234.592L819.969 205.605C829.204 201.094 838.795 195.197 848.646 192.329Z" fill="#FDFCFC"/>
<path d="M607.727 69.6848C616.734 74.0472 625.212 79.5112 634.296 83.6878C639.335 86.8655 645.429 89.1242 650.822 91.7094C641.594 96.9671 631.73 101.229 622.169 105.845L560.07 135.631L499.151 166.152C488.194 171.672 473.072 180.905 461.664 183.436C455.408 181.663 449.344 178.515 443.43 175.832C433.733 171.43 423.937 166.917 413.96 163.191L413.815 163.001L414.034 162.313C423.432 158.545 432.538 153.569 441.681 149.201C461.823 139.657 481.892 129.962 501.887 120.115C537.022 103.085 572.949 87.424 607.727 69.6848Z" fill="#FDFCFC"/>
<path d="M386.623 552.599C388.645 552.346 390.264 553.572 391.933 554.542C422.382 572.231 453.325 588.766 484.159 605.75L629.931 686.519C647.661 696.169 665.448 705.714 683.292 715.154C692.876 720.225 702.814 724.689 711.86 730.711C703.813 735.075 695.271 738.602 687.037 742.605C669.206 751.477 651.324 760.245 633.392 768.909C577.149 796.954 521.101 825.384 465.247 854.198C439.598 840.324 414.39 825.53 388.867 811.413L135.422 672.634L186.053 647.327C199.6 640.495 213.254 633.078 227.272 627.293C229.778 630.654 232.667 632.834 236.094 635.14C219.231 643.225 202.76 652.118 185.858 660.187C180.563 662.77 174.105 665.201 169.479 668.798C168.201 669.793 167.296 670.718 167.123 672.402C170.549 676.555 228.395 706.69 238.167 712.204C263.574 726.541 289.554 739.84 315.172 753.785C339.626 767.096 363.768 781.074 388.158 794.525C403.409 802.937 418.766 811.195 433.917 819.783C444.247 825.638 454.625 832.53 465.52 837.22C483.401 827.186 502.062 818.543 520.399 809.383L620.915 759.127L656.148 741.9C661.866 739.139 667.772 736.63 673.393 733.695C675.054 732.827 676.849 731.94 678.063 730.484L677.871 729.305C676.739 727.73 675.391 726.687 673.709 725.727C604.872 687.167 535.795 649.043 466.478 611.353L413.023 581.929C404.275 577.088 395.095 571.007 385.841 567.335C376.093 571.212 366.762 576.436 357.462 581.291C345.024 587.785 332.536 594.181 320 600.481C318.44 600.249 316.49 599.829 314.931 600.14C306.559 601.809 279.433 620.3 273.617 618.59C273.156 617.389 273.35 617.291 273.621 616.091C276.338 612.668 280.87 611.132 283.768 607.962C285.24 606.351 286.072 603.561 287.786 602.295C290.044 600.63 293.768 599.613 296.387 598.376C303.313 595.029 310.215 591.633 317.094 588.191C340.382 576.567 363.214 563.95 386.623 552.599Z" fill="#FDFCFC"/>
<path d="M146.082 455.398C192.486 461.156 238.81 467.499 285.054 474.427C274.407 496.133 265.039 518.65 254.899 540.622C248.517 554.218 242.247 567.865 236.087 581.563C233.298 587.757 230.162 593.988 227.728 600.326C226.735 602.911 226.787 606.329 226.572 609.086L225.585 609.14C225.843 606.285 226.42 602.968 225.938 600.135C225.569 597.961 222.486 597.169 220.668 596.687C209.202 593.642 196.026 592.445 184.248 590.534L106.096 577.926C104.041 577.586 92.5246 576.979 91.4958 576.258L92.7084 576.471L92.0852 576.713L91.8942 575.575L91.6386 575.263C92.7802 571.829 94.9589 568.306 96.5205 565.008C100.432 556.746 104.366 548.48 108.136 540.154L146.082 455.398Z" fill="#9EA2B9"/>
<path d="M171.288 463.676C171.409 463.79 171.542 463.891 171.65 464.017C173.838 466.574 174.246 474.214 174.153 477.584C174.044 481.456 143.502 550.44 140.51 555.249C137.358 560.315 132.304 565.139 127.96 569.22C127.833 569.068 127.703 568.919 127.578 568.766C123.536 563.815 124.087 556.611 124.756 550.586C125.028 548.138 125.572 545.915 126.467 543.622C130.249 533.929 135.248 524.475 139.48 514.943C144.272 504.154 151.193 484.949 157.405 476.241C160.937 471.29 166.576 467.452 171.288 463.676Z" fill="#000012"/>
<path d="M129.065 553.455L135.563 555.319L131.462 559.728C130.601 560.727 129.729 561.716 128.845 562.696C128.69 559.599 128.885 556.545 129.065 553.455Z" fill="#C2B1BE"/>
<path d="M168.844 470.95C170.243 472.414 169.592 478.614 169.575 480.695C167.235 480.358 164.908 479.803 162.591 479.327L161.269 478.918C161.946 476.004 166.632 472.86 168.844 470.95Z" fill="#C2B1BE"/>
<path d="M158.682 482.5C161.05 483.768 163.76 484.568 166.283 485.488C163.094 493.064 160.148 500.901 156.457 508.24L147.708 506.665L158.682 482.5Z" fill="#9EA2B9"/>
<path d="M146.111 510.594C149.038 511.055 151.92 511.639 154.817 512.256C149.543 525.318 144.113 538.853 137.657 551.372C134.908 551.425 131.549 549.631 129.056 548.559C134.374 535.857 139.872 522.862 146.111 510.594Z" fill="#9EA2B9"/>
<path d="M243.329 423.307C251.319 426.469 258.922 431.158 266.642 434.972C281.149 442.138 295.832 448.918 310.281 456.205C310.373 462.51 309.447 474.52 311.633 480.01C314.015 485.995 370.544 514.293 378.619 517.719C383.309 515 387.942 513.469 393.173 512.088C393.286 516.44 392.852 522.074 394.328 526.15C394.849 527.587 395.749 528.446 396.946 529.331C402.288 533.281 408.927 536.152 414.794 539.341C429.654 547.417 444.489 555.408 459.751 562.713C464.686 561.152 469.366 558.637 474.256 556.851C474.558 561.825 473.626 567.622 474.912 572.42C475.228 573.596 476.151 574.389 477.094 575.078C483.947 580.084 492.579 583.896 500.121 587.84C514.041 595.015 527.914 602.28 541.74 609.636C546.934 607.516 551.757 604.828 557.169 603.212C557.868 607.768 557.733 612.472 558.311 617.075C564.902 622.266 574.66 626.182 582.23 630.13L630.656 655.597C658.114 670.274 685.078 685.873 712.608 700.418L789.916 741.317C805.986 749.823 822.133 758.046 837.94 767.05C821.736 774.998 805.929 783.742 789.541 791.332L786.411 789.383C777.082 783.73 767.034 778.846 757.422 773.671C740.296 764.445 723.23 755.109 706.222 745.665C708.601 744.27 710.988 742.722 713.592 741.789C716.159 740.868 719.927 739.878 721.061 737.033C721.604 735.671 721.563 734.314 720.98 732.976C719.38 729.311 713.646 726.551 710.291 724.642C702.769 720.362 694.974 716.608 687.32 712.576L645.241 690.044L537.405 630.936L430.902 571.938C415.123 563.106 399.643 553.666 383.681 545.172C353.314 529.013 320.678 512.155 289.211 498.514C290.902 491.958 288.952 488.772 286.074 482.927C287.035 479.807 290.115 475.271 289.397 472.045C283.344 468.289 233.969 463.896 221.901 460.928C213.311 458.814 200.41 451.534 191.954 447.635C198.925 443.62 206.5 440.463 213.808 437.101L243.329 423.307Z" fill="#F7EEE2"/>
<path d="M6.37685 601.48C17.7878 606.623 30.3164 615.055 41.6431 621.175C71.304 637.204 101.299 652.969 130.119 670.471C128.201 671.43 126.272 672.388 124.427 673.482C122.69 674.514 121.477 675.366 120.959 677.372C122.635 680.079 128.021 682.353 130.856 683.907L464.68 866.696C473.246 862.561 481.768 858.335 490.244 854.019C513.9 867.495 537.79 880.909 561.901 893.54C564.998 895.165 567.997 896.913 570.995 898.713C561.406 900.779 551.938 902.264 542.148 902.949C513.733 904.936 479.061 903.587 452.07 893.657C438.833 888.787 426.315 880.79 414.061 873.89L373.773 851.708L208.795 759.012C158.786 731.492 108.99 703.592 59.4076 675.31C47.6393 668.798 35.912 662.214 24.2257 655.555C18.5516 652.322 10.738 648.851 6.09985 644.303C2.72778 640.996 6.10714 608.029 6.37685 601.48Z" fill="#F7EEE2"/>
<path d="M643.688 288.007C660.378 297.531 691.118 315.031 709.739 316.122C710.019 329.308 709.73 342.433 709.689 355.616C709.524 409.875 707.376 463.988 705.677 518.212C704.878 542.593 704.207 566.977 703.666 591.365C703.179 615.949 702.985 640.635 701.705 665.191L701.146 673.371C689.942 668.053 678.948 662.452 667.934 656.752C659.692 652.486 651.31 648.346 643.527 643.27C642.808 622.703 643.439 601.872 643.429 581.28L643.587 455.862L643.704 362.405C643.555 337.642 642.853 312.757 643.688 288.007Z" fill="#FDFCFC"/>
<path d="M651.188 373.757C652.379 373.778 653.429 373.937 654.543 374.356C660.93 376.753 667.347 380.565 673.482 383.586C680.506 387.043 688.664 390.232 695.121 394.56C695.83 396.024 695.655 396.106 695.241 397.708C694.087 397.788 693.045 397.873 691.929 397.517C687.052 395.959 654.506 379.941 650.936 377.136C650.412 375.548 650.671 375.294 651.188 373.757Z" fill="#020022"/>
<path d="M651.123 330.119C655.335 331.412 695.777 351.525 698.284 353.919C698.33 355.318 697.821 355.761 697.084 356.923C692.474 356.205 654.132 336.779 649.808 333.323C649.695 331.826 650.314 331.349 651.123 330.119Z" fill="#020022"/>
<path d="M651.75 352.698C655.24 352.942 694.061 372.618 697.495 375.216C697.994 376.866 697.658 377.284 697.128 378.882C693.02 378.741 655.231 359.319 651.401 356.085C651.017 354.538 651.26 354.172 651.75 352.698Z" fill="#020022"/>
<path d="M395.309 167.855C409.251 175.045 423.515 181.295 437.944 187.426C446.151 190.913 454.603 195.182 463.428 196.723C463.419 218.37 463.334 240.173 462.653 261.813C462.064 280.509 460.95 299.191 460.405 317.89C458.876 364.91 458.06 411.943 457.958 458.988C457.429 490.591 457.451 522.194 458.022 553.795C458.094 554.933 457.981 555.885 457.785 557.006C450.708 554.636 443.198 549.749 436.569 546.187C423.893 539.33 411.176 532.551 398.418 525.85C396.921 514.846 397.239 503.12 396.913 492.007C396.228 470.334 395.721 448.657 395.394 426.975C394.594 389.299 394.131 351.619 394.006 313.934L395.309 167.855Z" fill="#94C5C2"/>
<path d="M414.085 220.64C420.894 219.894 427.353 220.951 433.475 224.029C443.828 229.234 450.742 238.762 454.241 249.638C458.911 264.155 458.551 287.763 451.298 301.401C448.892 305.924 446.358 307.862 441.557 309.396C436.141 309.566 431.079 308.509 426.083 306.461C415.827 302.257 407.28 296.137 402.951 285.622C400.945 280.752 399.673 275.539 398.894 270.339C397.625 261.862 396.59 240.474 399.98 232.834C402.784 226.516 407.798 222.937 414.085 220.64Z" fill="#000012"/>
<path d="M417.307 224.76C418.1 224.715 418.894 224.703 419.688 224.725C420.482 224.746 421.273 224.8 422.062 224.887C422.852 224.974 423.637 225.093 424.417 225.245C425.196 225.397 425.968 225.581 426.733 225.797C427.497 226.012 428.252 226.259 428.996 226.538C429.74 226.816 430.471 227.125 431.189 227.463C431.907 227.802 432.611 228.171 433.298 228.568C433.986 228.965 434.657 229.389 435.31 229.842C444.951 236.451 450.027 247.514 452.035 258.731C454.201 270.837 453.793 290.648 446.264 301.014C443.955 304.193 442.065 304.862 438.262 305.418C432.247 304.338 426.697 302.288 421.345 299.33C412.262 294.31 407.395 287.647 404.639 277.728C401.973 268.128 399.879 241.036 404.925 232.76C407.772 228.089 412.242 226.092 417.307 224.76Z" fill="#FDFCFC"/>
<path d="M438.137 272.958L438.469 274.154C439.265 274.616 440.323 275.111 440.991 275.732C442.011 276.678 441.903 277.062 441.854 278.33L440.9 279.08C438.391 279.305 435.825 278.646 433.921 276.9C432.871 275.939 432.66 275.273 432.506 273.903C433.16 272.496 434.344 272.021 435.636 271.306C436.96 271.807 437.287 271.856 438.137 272.958Z" fill="#020022"/>
<path d="M407.223 268.427C413.19 270.2 419.339 275.125 425.002 278.033C432.138 281.697 439.575 284.745 446.688 288.442C447.269 289.923 446.812 290.741 446.451 292.265C442.191 292.459 411.111 276.306 407.308 272.942C406.551 271.296 406.895 270.121 407.223 268.427Z" fill="#020022"/>
<path d="M435.636 271.306C435.768 271.073 435.907 270.845 436.03 270.608C437.751 267.283 436.126 261.56 434.88 258.199C433.199 253.667 430.086 247.374 425.463 245.394C423.803 244.684 422.056 244.71 420.444 245.514C417.353 247.056 415.187 250.962 414.27 254.15C413.195 257.887 413.66 261 415.311 264.447L416.198 266.315C416.02 267.668 416.034 267.582 414.969 268.445C413.47 268.592 413.196 268.702 411.986 267.645C409.345 265.336 408.734 259.895 408.883 256.658C409.106 251.823 411.005 247.003 414.767 243.845C417.333 241.69 420.673 240.478 424.035 240.933C428.535 241.543 432.32 244.876 434.874 248.444C438.29 253.219 442.006 262.888 440.839 268.819C440.451 270.792 439.627 271.761 438.137 272.958C437.287 271.856 436.96 271.807 435.636 271.306Z" fill="#000012"/>
<path d="M562.253 248.992C583.925 260.709 606.115 270.743 628.641 280.71C626.313 356.364 624.71 432.032 623.831 507.715C623.419 533.635 623.287 559.555 623.436 585.476C623.511 605.306 623.517 625.39 625.009 645.167L624.867 646.606L624.214 647.093C619.416 645.884 609.999 639.951 605.063 637.344C590.712 629.868 576.408 622.3 562.154 614.639C560.707 600.077 560.99 585.025 560.664 570.393C559.857 542.897 559.503 515.395 559.603 487.887C558.721 408.235 559.604 328.604 562.253 248.992Z" fill="#EAA9AC"/>
<path d="M580.068 302.206C586.664 301.501 592.767 302.704 598.475 306.134C609.483 312.75 615.807 324.783 618.752 336.925C621.993 350.281 622.605 373.475 614.919 385.468C611.975 390.061 608.617 392.361 603.359 393.487C598.223 393.395 593.687 392.108 589.065 389.93C578.532 384.969 569.856 377.162 565.967 365.994C561.322 352.656 559.511 326.654 566.063 313.734C569.164 307.619 573.638 304.182 580.068 302.206Z" fill="#000012"/>
<path d="M583.258 306.33C588.897 306.118 593.789 307.837 598.329 311.133C608.714 318.673 613.891 332.737 615.789 344.96C617.441 355.596 617.301 374.99 610.47 383.838C607.755 387.353 605.003 388.54 600.679 389.069C597.885 388.39 595.159 387.501 592.502 386.4C589.845 385.3 587.288 384.003 584.831 382.507C576.072 377.11 570.347 369.457 568.072 359.395C565.573 348.337 564.496 323.381 571.054 313.606C573.939 309.305 578.316 307.308 583.258 306.33Z" fill="#FDFCFC"/>
<path d="M586.015 351.812C587.464 351.908 588.572 352.139 589.958 352.578C591.086 353.79 591.055 353.871 591.225 355.533C589.745 355.911 588.72 356.274 587.221 355.712C586.125 354.525 586.157 353.338 586.015 351.812Z" fill="#020022"/>
<path d="M572.453 353.557C578.777 355.452 585.315 359.59 591.363 362.394C597.626 365.298 604.976 367.505 610.733 371.242C611.451 372.765 611.091 373.078 610.625 374.647C604.513 374.242 577.346 361.848 572.281 357.493C571.682 355.779 572.005 355.276 572.453 353.557Z" fill="#020022"/>
<path d="M586.607 324.191C588.722 324.294 590.571 324.713 592.477 325.67C597.351 328.117 600.368 332.707 602.035 337.774C604.081 343.995 604.333 349.338 601.309 355.237C603.63 356.69 606.412 357.838 607.139 360.636L606.475 361.589C605.718 361.979 605.109 362.306 604.221 362.236C601.276 362.006 598.331 358.914 596.656 356.732C595.779 355.591 594.715 354.172 594.913 352.667C596.06 352.693 595.675 352.653 596.688 352.78L597.332 352.867L598.311 351.934C599.557 348.195 598.916 344.813 598.299 341.033C597.908 339.703 597.531 338.331 597.016 337.044C595.855 334.15 593.981 331.016 590.9 329.872C589.249 329.261 587.443 329.408 585.873 330.185C583.168 331.524 581.24 334.423 580.455 337.273C578.099 345.841 584.195 343.489 586.477 347.537C586.276 348.961 586.454 349.876 585.371 350.892C584.064 350.88 582.673 350.916 581.395 350.619C579.555 350.192 577.934 349.106 577.015 347.435C575.022 343.812 575.87 338.085 577.21 334.389C579.02 329.392 581.815 326.341 586.607 324.191Z" fill="#020022"/>
<path d="M309.163 117.343C331.604 130.019 355.716 138.519 378.628 150.099C379.622 187.724 378.578 225.286 378.545 262.902L378.245 511.641L377.818 512.348C373.359 511.892 321.896 483.035 315.284 479.088C314.431 462.173 314.53 445.183 314.276 428.252L313.082 368.403L309.163 117.343Z" fill="#9EA2B9"/>
<path d="M331.745 178.5C339.407 178.077 346.235 179.171 352.781 183.34C364.023 190.498 370.241 202.717 372.944 215.403C375.779 228.711 376.664 250.877 368.604 262.611C365.837 266.64 362.638 268.651 357.873 269.472C349.001 267.737 339.508 263.675 331.632 259.239C323.158 254.465 319.339 247.93 316.871 238.768C313.696 226.969 310.821 198.904 317.358 188.046C320.596 182.667 325.889 180.026 331.745 178.5Z" fill="#000012"/>
<path d="M333.2 182.595C341.82 182.231 349.31 185.199 355.597 191.029C366.631 201.257 370.171 216.579 370.689 231.152C371.002 239.996 369.604 256.038 363.093 262.602C360.967 264.744 358.934 264.79 356.036 264.869C348.579 262.667 341.109 259.471 334.34 255.649C326.508 251.227 322.979 245.976 320.684 237.403C317.963 227.25 315.722 199.173 321.287 190.169C323.969 185.832 328.415 183.759 333.2 182.595Z" fill="#FDFCFC"/>
<path d="M354.098 223.943C355.81 223.934 355.716 223.833 356.928 225.026C357.477 226.626 357.624 228.059 357.745 229.742L356.771 231.97C357.867 234.281 360.611 233.865 361.542 235.979C361.344 236.816 361.23 237.348 360.675 238.035C360.232 238.586 359.754 238.765 359.025 238.747C356.804 238.694 348.005 233.057 346.178 231.399C345.057 230.383 344.256 229.408 344.182 227.869L345.056 227.313C348.902 227.033 350.734 228.856 353.649 231.033C353.979 228.644 354.072 226.349 354.098 223.943Z" fill="url(#paint2_linear_2_512)"/>
<path d="M320.542 225.916C322.098 226.076 323.317 226.484 324.747 227.119C332.178 230.412 339.338 234.847 346.572 238.587C352.38 241.59 359.112 244.089 364.439 247.778C365.276 249.485 365.108 250.182 365.008 252.045C358.282 249.69 326.233 234.009 321.77 229.715C320.415 228.412 320.573 227.659 320.542 225.916Z" fill="url(#paint3_linear_2_512)"/>
<path d="M354.098 223.943C352.412 217.421 349.354 208.959 343.246 205.322C341.186 204.095 338.987 203.664 336.662 204.364C333.512 205.313 330.311 208.536 328.884 211.436C328.112 213.005 327.826 214.767 328.418 216.444C330.098 221.211 339.936 223.74 338.847 226.82C337.486 227.703 336.338 227.997 334.755 227.63C331.155 226.795 327.34 223.363 325.491 220.257C323.9 217.586 323.485 214.195 324.317 211.204C325.48 207.022 328.66 202.244 332.612 200.316C335.535 198.89 338.959 198.828 342.006 199.897C348.48 202.168 352.917 208.54 355.615 214.578C357.662 219.162 359.391 224.828 357.745 229.742C357.624 228.059 357.477 226.626 356.928 225.026C355.715 223.833 355.81 223.934 354.098 223.943Z" fill="#000012"/>
<path d="M480.58 211.951C491.257 217.806 502.658 222.365 513.833 227.177C524.704 231.857 536.051 237.58 547.653 240.078L543.533 484.774L543.272 564.773C543.277 576.632 544.408 593.535 542.888 604.883C536.835 603.432 526.041 596.597 520.067 593.47C506.222 586.22 492.134 579.351 478.637 571.46C478.543 539.054 477.225 506.65 476.681 474.247C476.136 422.722 475.91 371.195 476.003 319.668C476.099 310.288 476.664 300.936 477.697 291.613C478.595 283.869 479.944 276.118 480.42 268.335C481.557 249.715 480.692 230.604 480.58 211.951Z" fill="#EAA9AC"/>
<path d="M499.541 263.276C506.868 262.842 513.872 264.603 519.896 268.859C530.037 276.024 536.274 288.773 538.368 300.761C540.703 314.131 540.224 334.396 531.777 345.785C528.35 350.405 524.579 352.06 519.114 352.902C510.499 351.69 500.417 347.955 493.39 342.796C485.478 336.991 481.675 325.677 480.184 316.363C478.283 304.495 476.738 281.554 484.255 271.605C488.177 266.414 493.304 264.248 499.541 263.276Z" fill="#000012"/>
<path d="M499.011 267.801C504.669 267.491 509.486 267.995 514.58 270.781C524.538 276.228 530.102 286.825 533.078 297.397C536.623 309.994 536.945 328.487 530.132 340.111C527.483 344.63 524.295 347.03 519.285 348.354C513.388 348.06 506.034 345.058 500.816 342.255C493.171 338.149 488.717 332.06 486.25 323.86C483.363 314.26 481.048 285.515 485.976 276.809C488.817 271.79 493.644 269.262 499.011 267.801Z" fill="#FDFCFC"/>
<path d="M521.852 316.355C523.068 317.342 523.654 317.871 524.311 319.347C523.998 320.596 523.956 320.344 522.942 320.98C519.992 321.107 516.842 320.132 514.63 318.115C513.356 316.953 512.42 315.34 512.396 313.59C512.383 312.627 512.4 312.923 513.152 312.15C514.89 312.094 516.495 313.578 517.876 314.548C519.227 315.572 520.067 316.34 521.852 316.355Z" fill="#000012"/>
<path d="M488.369 311.016C498.426 317.173 520.839 324.08 528.283 330.879C528.882 332.458 528.585 332.788 528.122 334.365C522.549 332.33 491.078 318.286 487.342 315.226C487.01 313.71 487.798 312.389 488.369 311.016Z" fill="#020022"/>
<path d="M504.458 284.028C510.859 285.424 515.436 288.215 519.044 293.887C522.473 299.278 524.649 308.54 522.62 314.944C522.389 315.67 522.24 315.81 521.852 316.355C520.067 316.34 519.227 315.572 517.876 314.548C518.301 305.29 519.76 301.383 512.695 293.52C511.073 291.715 508.661 289.582 506.088 289.568C503.393 289.553 499.317 290.973 497.544 293.1C496.265 294.635 496.016 296.598 496.306 298.515C497.144 304.064 504.433 307.842 502.18 311.603C500.609 311.96 499.543 311.733 498.151 310.882C494.9 308.896 492.183 305.291 491.456 301.528C490.739 297.821 491.39 293.886 493.641 290.815C496.305 287.182 500.175 285.083 504.458 284.028Z" fill="#020022"/>
<path d="M611.051 41.6519C616.216 37.5482 624.059 36.3675 630.36 34.7525C634.637 33.6499 638.936 32.6444 643.258 31.7361C647.58 30.8278 651.92 30.0178 656.279 29.3059C660.638 28.5948 665.011 27.9822 669.397 27.4681C673.784 26.9544 678.18 26.5401 682.585 26.2252C686.99 25.9104 691.4 25.6954 695.815 25.5802C700.23 25.465 704.645 25.4497 709.061 25.5343C713.477 25.6189 717.888 25.8034 722.295 26.0877C726.703 26.372 731.101 26.7558 735.491 27.2392C748.5 28.7197 761.699 30.5092 774.453 33.5205C787.614 36.6273 800.663 41.2412 813.199 46.2772C860.944 65.4558 895.515 93.0277 927.441 133.175C934.568 142.14 940.52 151.764 946.374 161.587C987.53 230.649 1004.51 321.169 995.348 400.777C992.088 429.099 987.212 456.771 979.033 484.11C974.89 497.962 968.881 511.468 965.36 525.443C955.421 521.272 945.638 516.922 936.039 512.014C933.928 487.619 934.411 462.656 933.947 438.164L932.452 296.851C932.402 284.743 932.887 207.567 931.517 204.346C930.112 201.043 925.913 199.782 922.83 198.582C914.933 201.114 907.109 205.829 899.713 209.569C883.679 204.522 866.744 198.398 852.578 189.211C852.854 183.572 854.215 174.137 851.993 168.899C851.444 167.604 850.449 166.751 849.108 166.342C842.595 164.352 823.475 176.213 816.725 179.575C804.352 172.247 790.302 167.648 778.422 159.534C778.363 152.543 778.246 145.698 777.623 138.729C772.831 133.536 760.891 126.303 754.046 124.002C747.977 125.901 742.182 129.017 736.49 131.824C724.169 125.448 711.856 118.762 699.243 112.996C699.423 109.065 699.625 105.239 698.58 101.401C698.31 98.7864 697.482 95.9815 696.364 93.6016C692.834 86.0923 684.358 82.3963 676.919 79.8388C668.965 82.1098 661.768 86.6498 654.126 89.7566C651.606 88.0482 649.004 86.4777 646.318 85.0451C643.632 83.6119 640.878 82.3247 638.056 81.1837L637.661 81.0287C630.841 76.0657 622.264 72.9117 614.966 68.5646C615.29 66.5975 615.852 64.308 615.8 62.3203C615.725 59.3593 613.767 56.2741 613.27 53.309C612.862 50.8809 613.316 48.3501 612.73 45.9394C612.375 44.4815 611.661 43.0184 611.051 41.6519Z" fill="#F7EEE2"/>
<path d="M385.214 572.114C392.624 574.577 400.3 579.783 407.186 583.551L456.946 611.043L672.124 729.648C659.75 736.546 646.193 741.831 633.498 748.222L534.782 797.426C511.386 808.999 487.702 820.197 464.848 832.816L452.69 825.652C359.72 773.593 266.386 722.199 172.687 671.468C178.915 668.712 184.987 665.488 191.135 662.546C200.775 657.933 210.529 653.51 219.82 648.218C225.818 650.625 231.341 653.97 237.262 656.538C244.139 654.135 252.191 648.937 258.949 645.567C274.653 637.816 290.311 629.973 305.923 622.038C314.107 617.876 323.67 614.154 330.729 608.291C330.896 607.577 331.052 607.575 330.757 606.997C329.777 605.087 326.264 604.016 324.353 603.219C343.114 592.494 365.531 581.143 385.214 572.114Z" fill="#FDFCFC"/>
<path d="M447.492 680.527C449.394 683.77 450.821 687.008 452.026 690.57C451.893 690.599 451.756 690.615 451.627 690.658C450.251 691.121 449.696 691.536 448.196 691.244L446.626 686.042C447.295 684.096 447.542 682.585 447.492 680.527Z" fill="#000012"/>
<path d="M385.731 733.72L387.283 734.259C388.112 735.285 388.1 735.253 388.06 736.571C385.652 740.31 365.28 750.385 360.207 753.019C359.85 752.984 359.509 752.975 359.173 752.807C357.97 752.204 357.708 751.701 357.228 750.545C357.654 749.58 357.867 749.315 358.779 748.707C361.787 746.702 365.419 745.189 368.622 743.477C374.431 740.411 380.134 737.159 385.731 733.72Z" fill="#020022"/>
<path d="M330.102 624.712C336.249 626.419 342.447 632.694 347.378 636.722C347.04 638.448 346.893 640.477 345.362 641.59C342.292 643.819 337.176 642.189 333.77 641.527C331.081 641.047 328.399 640.525 325.726 639.962C331.24 636.576 334.596 636.928 340.8 637.916C337.834 635.471 330.542 631.964 329.258 628.318C328.714 626.771 329.426 626.05 330.102 624.712Z" fill="#020022"/>
<path d="M365.277 608.167C373.285 607.729 387.802 619.121 396.656 622.368C400.55 621.5 410.661 616.664 413.696 617.287C415.122 617.58 415.382 617.95 416.075 619.089C415.774 620.437 415.541 620.486 414.476 621.404C408.12 624.537 401.325 626.543 394.517 628.411C389.419 625.84 369.588 614.746 366.289 611.575C365.113 610.443 365.252 609.725 365.277 608.167Z" fill="#020022"/>
<path d="M444.902 742.423C446.062 742.502 446.663 742.887 447.402 743.692C447.366 743.846 447.35 744.007 447.296 744.156C446.741 745.683 445.081 746.679 443.772 747.513C436.654 752.045 428.47 755.55 420.913 759.35C409.599 765.039 398.365 770.975 386.883 776.313L385.682 776.452C384.583 775.581 384.827 775.163 384.603 773.83C385.061 772.708 385.937 772.263 386.937 771.662C389.597 770.061 392.631 769.021 395.374 767.538C411.632 758.739 428.47 750.91 444.902 742.423Z" fill="#020022"/>
<path d="M561.71 686.601C561.902 686.699 562.103 686.783 562.287 686.896C563.499 687.64 563.736 687.792 564.132 689.093C563.385 690.448 563.064 690.678 561.747 691.49C554.21 696.134 543.262 700.53 535.021 704.534C520.182 711.747 505.31 719.714 490.045 725.952C488.538 726.179 488.615 726.14 487.341 725.284L487.361 724.527C488.27 723.143 489.533 722.361 490.938 721.538C499.274 716.655 508.465 712.853 517.162 708.629C532.052 701.369 546.902 694.026 561.71 686.601Z" fill="#000012"/>
<path d="M262.248 666.309C264.299 666.081 266.58 665.726 268.333 666.985C269.089 668.121 269.354 668.246 269.249 669.583C266.717 672.416 258.748 671.002 254.98 671.564C252.465 671.939 250.247 672.471 248.704 674.551C248.335 676.396 248.439 677.643 249.247 679.368C250.844 682.779 254.071 685.775 257.665 686.955C262.267 688.468 266.151 686.92 270.283 684.968C270.324 683.299 270.2 681.288 270.662 679.681C270.973 678.6 271.03 678.535 272.055 678.031C273.684 678.603 274.452 679.821 275.478 681.122C275.767 683.416 276.014 685.884 274.499 687.828C272.203 690.776 266.367 692.083 262.801 692.463C257.866 692.989 253.13 691.801 249.299 688.582C245.879 685.709 242.628 680.653 242.389 676.093C242.285 674.11 242.832 672.105 244.2 670.626C248.352 666.14 256.59 666.598 262.248 666.309Z" fill="#020022"/>
<path d="M350.301 616.376C351.342 616.255 352.322 616.162 353.373 616.238C357.56 616.541 362.319 620.223 366.097 621.962C372.075 624.712 383.524 628.074 387.728 632.98C387.556 634.158 387.358 634.314 386.578 635.237C382.239 636.486 377.178 631.299 372.627 630.838C371.542 630.729 371.556 631.009 370.749 631.637C367.856 633.686 364.803 634.915 361.526 636.194C363.285 637.828 365.764 639.888 366.11 642.412C366.299 643.791 365.993 644.333 365.172 645.386C364.518 645.514 363.768 645.734 363.101 645.57C358.896 644.535 350.377 630.877 348.057 626.803C347.116 625.146 345.107 621.873 345.775 620.002C346.514 617.932 348.463 617.253 350.301 616.376Z" fill="#020022"/>
<path d="M351.423 621.336C351.894 621.391 352.367 621.439 352.835 621.522C356.33 622.143 365.151 624.87 367.255 627.798L366.123 628.626C363.639 629.702 361.082 630.464 358.499 631.251C356.298 627.854 353.803 624.613 351.423 621.336Z" fill="#FDFCFC"/>
<path d="M313.382 634.775C320.753 634.695 328.092 641.202 334.402 644.601C337.706 646.382 341.054 647.761 344.602 648.975C346.779 647.872 348.86 646.124 351.385 645.934C352.79 645.828 353.824 645.7 354.896 646.636L354.809 647.81C352.499 651.914 348.057 653.903 343.788 655.397C334.511 651.18 326.033 645.528 316.909 641.025L324.118 649.355L327.21 652.465C328.889 654.126 330.543 655.736 331.426 657.988C331.939 659.299 331.82 659.834 331.233 661.063C330.823 661.284 330.64 661.423 330.12 661.474C324.781 662.007 305.263 649.833 299.999 646.527C298.625 645.665 297.197 644.686 296.801 643.036C297.3 642.31 297.199 642.184 298.115 641.919C303.342 640.397 314.482 648.298 319.085 650.913C315.919 647.274 310.567 642.116 310.297 637.089C311.173 635.587 311.84 635.503 313.382 634.775Z" fill="url(#paint4_linear_2_512)"/>
<path d="M288.964 646.433C296.915 650.435 304.619 656.011 311.448 661.698C313.416 663.336 316.366 665.483 316.602 668.189C314.623 671.269 314.275 668.975 311.85 669.726C311.042 669.975 297.046 679.47 294.486 681.092C289.215 677.642 266.568 663.909 264.455 660.481C265.83 657.601 276.859 654.161 280.079 652.18L280.73 651.774C283.019 651.749 285.371 654.737 286.94 656.243C282.173 658.246 276.72 659.237 271.737 660.688C274.51 662.249 277.32 663.698 280.167 665.12C282.79 664.194 285.353 663.086 287.969 662.134C290.154 661.34 293.137 660.351 295.331 661.537C296.085 661.944 295.873 661.836 296.162 662.681C293.986 665.586 289.064 667.121 285.811 668.416C288.652 670.893 291.544 672.906 294.757 674.872C298.336 673.332 304.285 670.447 306.83 667.468C307.505 666.678 307.335 667.049 307.297 665.999C302.14 659.622 292.618 654.455 285.678 650.062L288.964 646.433Z" fill="#020022"/>
<path d="M455.615 657.28C457.137 657.443 457.285 657.485 458.465 658.455L458.534 659.455C456.762 662.236 437.861 669.845 433.228 672.183L381.795 698.434C362.299 708.349 342.689 718.172 323.969 729.516C322.407 729.107 321.456 728.795 320.44 727.543L320.729 726.339C324.202 722.979 334.234 718.655 338.802 716.181C358.854 705.32 379.163 695.057 399.509 684.761C418.119 675.346 436.612 665.891 455.615 657.28Z" fill="#020022"/>
<path d="M443.106 623.928C444.389 624.297 444.459 624.444 445.32 625.485L445.189 626.633C442.466 630.257 423.343 638.633 418.302 641.194L322.803 690.634L296.373 704.84C290.73 707.879 285.062 711.286 279.045 713.515C277.965 713.017 277.539 712.782 276.957 711.732C277.415 710.429 277.886 709.872 279.102 709.158C282.811 706.974 286.913 705.137 290.712 703.067C303.555 695.976 316.496 689.068 329.535 682.346C367.134 662.372 404.991 642.9 443.106 623.928Z" fill="#020022"/>
<path d="M459.512 633.665C460.692 634.087 461.308 634.357 462.143 635.303L462.075 636.36C458.725 639.832 401.563 667.701 392.581 672.39C373.423 682.391 354.54 692.967 335.53 703.251C322.806 710.134 309.884 716.642 297.272 723.733C296.092 723.678 295.464 723.28 294.463 722.683C294.343 722.112 294.238 722.104 294.454 721.606C295.044 720.238 296.61 719.272 297.824 718.503C304.5 714.277 312.06 710.936 319.077 707.285C329.103 702.068 338.966 696.456 348.939 691.124C385.583 671.535 422.074 651.723 459.512 633.665Z" fill="#020022"/>
<path d="M454.309 697.209C463.597 693.492 506.449 670.729 511.287 670.982L511.599 672.206L511.767 671.086L512.663 671.651L512.629 672.718C511.558 674.054 510.503 674.865 509.024 675.731C502.232 679.704 494.342 682.821 487.241 686.301C477.211 691.218 467.162 696.824 456.843 701.062C461.336 711.216 466.127 721.188 470.404 731.445C472.237 730.503 474.107 729.466 476.033 728.729C477.571 728.139 479.057 728.015 480.581 728.688L480.776 729.67C478.926 732.93 475.609 733.92 472.356 735.387C473.931 739.283 475.466 743.196 476.961 747.125C493.005 742.287 568.717 701.052 573.834 701.632C574.633 702.601 574.77 702.577 574.725 703.811C573.923 705.058 573.067 705.764 571.78 706.512C568.713 708.294 565.236 709.584 562.044 711.176L535.809 724.229C517.187 733.437 498.345 743.681 479.014 751.28C482.509 760.052 492.822 780.808 490.399 789.482C489.845 791.468 488.864 792.96 487.009 793.948C485.264 794.877 482.845 794.616 481.047 794.012C471.302 790.74 464.428 769.641 460.155 760.666C454.57 763.319 415.779 784.164 413.2 784.336C411.68 784.439 410.706 784.228 409.597 783.196L409.731 782.31C411.565 779.88 452.462 759.899 458.326 756.958C452.994 744.372 447.752 731.748 442.6 719.086C438.196 722.821 434.408 725.672 429.095 727.969C430.203 729.453 431.664 731.449 431.904 733.303C432.004 734.071 431.546 734.433 431.04 734.976C429.41 736.726 429.569 738.629 428.214 740.262C427.712 740.869 427.211 740.704 426.487 740.765C422.233 738.769 413.991 726.16 411.892 721.753L414.161 716.603C413.875 715.099 413.303 713.033 413.567 711.517C414.39 706.779 420.464 704.441 424.086 701.85C425.684 693.944 425.358 687.945 431.77 682.067C434.283 679.762 438.865 676.453 442.546 676.985C444.992 677.339 446.017 678.723 447.493 680.527C447.542 682.585 447.296 684.096 446.626 686.042L448.196 691.244C449.696 691.536 450.251 691.121 451.627 690.658C451.757 690.615 451.893 690.599 452.027 690.57C452.704 692.806 453.535 695.005 454.309 697.209Z" fill="#020022"/>
<path d="M422.74 727.94C423.977 727.984 424.744 728.121 425.873 728.633C426.892 729.967 426.771 731.217 426.8 732.813C425.61 732.916 425.338 732.771 424.231 732.279C423.176 730.871 423.014 729.653 422.74 727.94Z" fill="#FDFCFC"/>
<path d="M486.051 783.742L486.589 783.826C487.086 784.837 487.17 785.007 487.055 786.131C486.843 788.22 486.169 789.045 484.592 790.298C482.983 790.85 481.958 790.455 480.403 789.999C479.24 788.71 478.288 787.237 477.29 785.817L486.051 783.742Z" fill="#FDFCFC"/>
<path d="M448.196 691.244C448.36 691.809 448.687 692.696 448.671 693.312C448.639 694.589 448.136 695.979 447.193 696.869C446.233 697.776 444.914 698.143 443.617 697.952C442.31 697.759 441.067 697.058 440.342 695.937C439.671 694.899 439.701 693.754 440.025 692.612C440.95 689.337 443.916 687.65 446.626 686.042L448.196 691.244Z" fill="#FDFCFC"/>
<path d="M440.132 705.289C441.557 704.002 442.962 702.694 444.348 701.366C445.672 703.871 446.803 706.517 447.999 709.088L467.207 755.539C470.543 763.58 473.612 773.357 478.417 780.594C477.515 781.42 476.533 781.748 475.35 781.774C470.126 777.963 445.092 716.584 440.132 705.289Z" fill="#FDFCFC"/>
<path d="M441.15 680.274C442.13 680.363 442.669 680.6 443.559 680.988C445.036 684.164 437.971 687.041 437.044 690.26C435.706 694.905 439.637 697.408 437.285 704.921C438.327 708.777 439.41 712.463 439.879 716.442C435.709 719.964 431.692 723.02 426.166 724.007C423.818 722.195 421.49 719.65 419.716 717.276C418.624 715.813 417.816 714.033 418.308 712.17C419.347 708.236 424.753 705.943 427.932 703.852C428.233 700.78 428.325 697.498 428.989 694.485C430.572 687.306 435.431 684.09 441.15 680.274Z" fill="#FDFCFC"/>
<path d="M448.324 702.056L451.274 697.64C455.609 707.047 486.277 775.599 485.539 779.143C484.596 779.947 484.011 780.328 482.672 780.313C482.239 780.309 481.804 780.105 481.409 779.95L481.114 779.414L478.417 780.594C473.612 773.357 470.543 763.58 467.207 755.539L447.999 709.088L450.322 706.522L448.324 702.056Z" fill="#FDFCFC"/>
<path d="M447.999 709.088L450.322 706.522C461.301 730.47 470.646 755.227 481.114 779.414L478.417 780.594C473.612 773.357 470.543 763.58 467.207 755.539L447.999 709.088Z" fill="#000012"/>
<path d="M927.7 210.741C928.342 215.258 927.94 220.394 927.932 224.968L927.872 253.429L928.283 343.607C928.758 389.693 929.486 435.776 930.464 481.855C931.118 507.449 932.725 533.216 932.53 558.811C907.314 570.291 882.821 583.808 858.051 596.235C808.796 621.324 759.307 645.943 709.583 670.089L705.399 672.178C707.764 625.405 708.375 578.42 709.632 531.593L714.233 315.713C726.551 312.043 737.06 306.256 748.433 300.406C760.218 294.293 772.049 288.272 783.928 282.343L899.061 224.969C908.568 220.152 918.255 215.675 927.7 210.741Z" fill="#FDFCFC"/>
<path d="M866.343 415.341L868.478 415.691C868.8 415.971 869.204 416.179 869.444 416.533C870.344 417.851 870.556 445.87 870.874 450.174C873.752 448.638 878.196 445.947 881.532 446.803C882.383 447.021 882.15 447.045 882.584 447.914C882.176 449.479 881.481 450.399 880.514 451.644C876.981 453.176 872.661 455.679 868.833 456.074C868.016 455.549 867.603 455.095 867.224 454.214C864.863 448.731 864.124 421.111 866.343 415.341Z" fill="#020022"/>
<path d="M895.592 402.178C897.31 401.968 898.679 402.134 900.191 403.002L900.451 404.019C899.454 406.835 895.305 409.089 893.374 411.546C892.128 413.13 891.48 414.443 891.684 416.518C893.44 419.899 898.155 419.318 901.228 421.007C903.367 422.184 904.861 424.099 905.485 426.459C906.767 431.3 904.769 436.373 902.244 440.449C899.836 444.336 896.091 445.481 891.867 446.455C890.935 446.335 889.902 446.245 889.013 445.938C887.86 445.54 887.116 444.509 886.542 443.498L886.863 442.455C889.624 440.083 892.488 441.203 895.47 440.08C897.707 439.237 899.252 436.723 900.088 434.576C900.811 432.719 901.361 428.596 900.219 426.813C898.905 424.759 894.929 424.587 892.79 424.149C890.669 423.713 888.915 423.023 887.768 421.066C886.557 419 886.738 416.488 887.276 414.246C888.461 409.311 891.233 404.814 895.592 402.178Z" fill="#020022"/>
<path d="M845.484 366.843C845.916 367.011 846.648 367.27 847.009 367.54C848.082 368.344 848.044 368.861 848.016 370.048C845.469 373.606 837.821 375.601 833.855 377.727L833.868 388.862C836.131 387.942 839.046 386.355 841.509 386.383C842.862 386.398 843.493 386.727 844.367 387.693C844.246 388.626 844.084 388.993 843.48 389.755C841.211 392.625 837.252 393.162 833.88 393.686C833.889 398.147 834.163 402.602 834.387 407.056C837.783 404.816 841.234 403.072 845.023 401.6C846.41 401.175 847.64 400.954 848.982 401.62C849.079 402.578 849.135 402.871 848.536 403.706C846.43 406.642 837.101 411.516 833.545 411.934C832.164 412.096 831.667 411.854 830.58 411.05C827.512 402.443 828.646 384.191 829.057 374.816C833.777 371.172 839.929 368.887 845.484 366.843Z" fill="#020022"/>
<path d="M833.666 430.652C835.127 431.202 835.898 431.3 836.878 432.545C837.39 438.185 836.136 456.462 834.863 462.287C834.234 465.171 833.223 467.922 831.668 470.441C830.139 472.919 827.844 475.84 824.763 476.318C822.781 476.625 820.596 475.786 819.137 474.451C814.189 469.924 815.434 456.332 815.348 449.833C815.269 446.552 814.705 442.989 816.501 440.089C817.755 439.621 817.69 439.542 818.907 440.064C822.236 445.157 819.707 459.433 820.806 466.104C821.079 467.765 821.413 469.152 822.815 470.194C823.648 470.239 823.916 470.345 824.705 469.976C834.484 465.406 830.29 440.711 833.487 431.159C833.545 430.988 833.607 430.821 833.666 430.652Z" fill="#020022"/>
<path d="M849.645 422.327C850.911 422.619 852.505 423.041 853.426 424.031C855.396 426.149 861.42 454.058 861.459 458.085C861.472 459.485 861.343 460.113 860.32 461.046C860.081 460.949 859.283 460.64 859.092 460.514C857.598 459.535 856.606 457.401 856.172 455.73L854.372 449.053C852.519 449.776 850.714 450.784 848.922 451.656C844.143 454.663 847.726 463.143 843.53 466.504C842.185 466.548 842.271 466.558 841.261 465.662C838.305 456.235 847.657 432.255 849.645 422.327Z" fill="#020022"/>
<path d="M851.35 433.856C852.545 436.73 853.574 440.269 853.028 443.343C851.941 444.766 851.122 444.807 849.457 445.382C848.859 445.315 849.223 445.411 848.472 444.828C848.809 441.113 850.02 437.328 851.35 433.856Z" fill="#FDFCFC"/>
<path d="M771.711 457.337C772.478 457.452 773.156 457.66 773.897 457.884C776.728 461.034 786.226 485.927 786.721 490.927C786.85 492.225 786.672 492.667 785.811 493.597C784.855 493.617 784.637 493.702 783.728 493.263C780.44 491.669 779.743 486.071 778.726 482.859L771.853 484.807C766.981 485.988 769.727 498.05 765.872 501.294C764.762 501.44 764.679 501.435 763.684 500.925C763.457 500.312 763.255 499.754 763.167 499.102C762.713 495.745 767.957 466.858 769.263 462.401C769.831 460.466 770.518 458.963 771.711 457.337Z" fill="#020022"/>
<path d="M773.013 466.803C774.764 468.735 776.824 475.769 776.904 478.442L775.71 479.057C774.431 479.479 773.413 479.83 772.039 479.747C770.165 476.844 772.444 470.194 773.013 466.803Z" fill="#FDFCFC"/>
<path d="M807.074 444.132C807.116 444.153 807.162 444.166 807.198 444.194C808.189 444.96 808.412 445.33 808.729 446.575C810.104 451.968 812.655 475.941 810.165 479.753C809.682 480.49 809.326 480.386 808.539 480.586C804.206 478.753 796.963 465.6 794.112 461.352C794.446 468.93 796.187 480.296 794.548 487.434C793.557 488.673 792.27 488.758 790.804 489.066C790.336 483.409 787.654 454.787 789.375 451.789C790.524 451.266 790.877 451.053 792.172 451.3C795.38 451.911 804.205 467.179 806.524 470.658C805.892 462.608 803.988 454.505 803.76 446.488C804.608 445.109 805.648 444.854 807.074 444.132Z" fill="#020022"/>
<path d="M819.774 375.995C820.769 376 821.809 375.913 822.73 376.345C823.353 376.637 823.235 376.755 823.43 377.596C824.23 381.038 824.33 404.929 823.91 409.206C823.68 411.547 823.284 414.528 821.908 416.482C821.221 417.459 821.044 417.487 819.939 417.701C817.292 416.402 807.306 397.869 805.457 394.077C805.673 401.007 808.069 416.998 806.425 422.835C806.103 423.974 805.588 424.61 804.858 425.508C804.099 425.11 803.407 424.621 802.693 424.148C801.511 422.076 800.097 391.024 800.832 387.504C801.169 385.891 801.58 384.9 802.968 384.003C806.139 384.596 816.426 402.798 819.445 406.922C819.578 399.702 816.214 381.658 819.774 375.995Z" fill="#020022"/>
<path d="M862.548 358.203C864.876 358.26 867.314 358.543 869.184 360.078C870.712 361.331 871.468 363.08 871.584 365.025C871.932 370.842 869.74 372.967 866.25 376.714C866.004 378.647 872.735 385.318 873.372 389.318C872.947 390.772 872.879 390.824 871.68 391.758C866.565 391.778 865.577 383.409 861.63 380.97C861.376 380.813 861.114 380.671 860.857 380.522C860.186 380.856 858.817 381.406 858.322 381.906C855.116 385.15 859.867 396.166 856.407 400.723C855.315 401.164 855.225 401.371 854.019 401.134C853.722 400.464 853.455 399.853 853.303 399.13C852.182 393.835 851.366 366.667 854.046 362.437C855.918 359.481 859.393 358.942 862.548 358.203Z" fill="#020022"/>
<path d="M860.578 363.258C862.762 363.024 864.303 362.778 866.218 364.139C867.024 365.29 867.289 365.994 867.114 367.426C866.763 370.311 864.503 372.416 862.373 374.104L857.888 376.739C857.871 373.473 856.728 368.881 857.68 365.807C858.181 364.187 859.195 364.005 860.578 363.258Z" fill="#FDFCFC"/>
<path d="M792.535 387.546C794.024 388.318 794.745 388.504 795.648 389.948C795.596 395.861 792.348 425.672 789.347 429.439C788.387 430.645 788.136 430.666 786.703 430.829C782.949 428.749 781.389 422.89 780.143 419.016C779.022 425.04 778.347 434.852 774.094 439.448C773.389 439.7 773.024 440.071 772.309 439.684C768.772 437.777 764.996 419.097 763.936 414.668C763.034 410.936 761.474 406.902 762.735 403.124C763.812 402.177 763.91 402.228 765.356 402.12C768.512 406.785 770.294 422.541 772.942 429.248C773.009 429.417 773.08 429.584 773.148 429.751C774.234 424.339 774.928 415.802 778.642 411.68C779.651 411.294 780.088 410.98 781.123 411.583C784.165 413.356 785.625 418.801 786.825 421.877C788.434 414.59 789.817 391.8 792.535 387.546Z" fill="#020022"/>
<path d="M752.289 466.551C753.012 466.708 753.739 466.956 754.449 467.163C755.287 467.976 755.706 468.704 755.93 469.865C756.654 473.612 756.464 477.97 756.729 481.816C757.186 488.433 758.292 495.648 758.019 502.245C757.966 503.536 757.804 503.948 757.119 504.989C755.818 505.278 755.645 505.209 754.382 504.752C751.903 501.732 752.155 486.866 751.678 482.162C750.127 485.759 748.696 490.246 746.398 493.407C745.45 494.711 744.723 495.042 743.16 495.226C739.295 493.827 736.562 489.024 734.164 485.805C733.924 489.289 733.859 492.795 733.734 496.287C733.739 497.024 733.736 497.761 733.728 498.498C733.678 502.923 734.512 514.224 731.389 517.291L730.388 517.269C729.772 516.739 729.18 516.47 728.968 515.654C727.93 511.651 728.074 479.388 730.065 476.264C730.713 475.246 730.98 475.305 732.089 475.096C736.255 476.894 740.309 484.708 742.921 488.382C746.913 481.502 749.51 473.975 752.289 466.551Z" fill="#020022"/>
<path d="M746.362 410.511C747.97 410.562 749.404 410.713 750.894 411.372C753.516 412.533 755.384 414.704 756.376 417.364C758.906 424.15 757.139 433.986 754.263 440.457C751.589 446.474 747.902 450.517 741.757 452.919C740.18 452.757 738.534 452.644 737.084 451.957C734.192 450.586 732.166 447.934 731.195 444.929C728.866 437.729 730.862 428.183 734.146 421.533C736.922 415.914 740.407 412.478 746.362 410.511Z" fill="#020022"/>
<path d="M746.249 416.014C746.852 416.027 747.527 416.014 748.115 416.157C749.624 416.522 750.753 417.941 751.364 419.294C753.409 423.824 751.96 431.784 750.327 436.358C748.563 441.303 746.021 444.897 741.281 447.202C740.709 447.084 740.23 447.008 739.676 446.781C738.111 446.14 736.899 444.698 736.191 443.196C733.906 438.354 735.558 431.193 737.399 426.352C739.221 421.556 741.474 418.107 746.249 416.014Z" fill="#FDFCFC"/>
<defs>
<linearGradient id="paint0_linear_2_512" x1="445.107" y1="896.525" x2="656.978" y2="32.0425" gradientUnits="userSpaceOnUse">
<stop stop-color="#010007"/>
<stop offset="1" stop-color="#010229"/>
</linearGradient>
<linearGradient id="paint1_linear_2_512" x1="368.418" y1="284.48" x2="622.304" y2="267.85" gradientUnits="userSpaceOnUse">
<stop stop-color="#92ADBC"/>
<stop offset="1" stop-color="#A9ACBE"/>
</linearGradient>
<linearGradient id="paint2_linear_2_512" x1="347.378" y1="224.879" x2="361.425" y2="234.339" gradientUnits="userSpaceOnUse">
<stop stop-color="#00000F"/>
<stop offset="1" stop-color="#02032D"/>
</linearGradient>
<linearGradient id="paint3_linear_2_512" x1="340.867" y1="245.902" x2="343.596" y2="230.919" gradientUnits="userSpaceOnUse">
<stop stop-color="#00000C"/>
<stop offset="1" stop-color="#030125"/>
</linearGradient>
<linearGradient id="paint4_linear_2_512" x1="325.001" y1="634.797" x2="327.082" y2="660.064" gradientUnits="userSpaceOnUse">
<stop stop-color="#000006"/>
<stop offset="1" stop-color="#02012B"/>
</linearGradient>
</defs>
</svg>
