<svg width="1013" height="908" viewBox="0 0 1013 908" fill="none" xmlns="http://www.w3.org/2000/svg">
<g clip-path="url(#clip0_2_2)">
<path d="M30.7447 208.184C59.5 205.147 58.3582 206.5 64.4712 199.505C91.2929 168.811 122.55 143.135 163.149 129.054C192.662 118.819 220.235 118.254 250.837 124.19C273.484 128.581 290.18 135.381 313.47 128.229C347.605 117.746 385.892 83.4158 415.643 63.4609C458.58 34.6633 503.89 14.7555 556.153 5.39334C568.716 3.14283 581.153 1.24618 593.944 0.514887C616.59 -0.779808 638.988 0.475626 661.474 3.06773C666.275 3.62407 671.062 4.26191 675.836 4.98125C680.612 5.70053 685.37 6.50077 690.113 7.38197C694.855 8.26324 699.578 9.22488 704.282 10.2669C708.986 11.3088 713.668 12.4304 718.327 13.6317C722.985 14.833 727.618 16.1132 732.225 17.4721C736.833 18.8311 741.412 20.268 745.962 21.7828C750.511 23.2976 755.029 24.8892 759.514 26.5577C764 28.2263 768.451 29.9705 772.866 31.7905C837.649 58.818 895.064 104.497 935.383 158.271C941.937 167.012 947.568 176.097 953.387 185.243C955.899 189.191 958.807 192.928 961.274 196.899C972.135 214.381 981.182 233.676 988.869 252.525C992.853 262.297 991.446 257.456 994.5 267.5C1001.42 290.257 1002.83 288.508 1006 312C1007.13 320.814 1007.79 329.65 1008.5 338.5C1008.91 343.631 1009.78 350 1010 356C1010.34 365.212 1011.09 373.675 1011.14 382.89C1011.17 388.5 1011.84 397.5 1011.84 402.703C1012.84 422.576 1012.07 462.119 1011 482C1011 482 1012.02 546.5 1002.61 583.63C999.386 595.07 995.737 606.392 991.661 617.598C990.273 621.387 984.717 635.413 982.589 640.139C979.5 647 978.5 649.5 975.28 657.577C965.214 678.56 953.744 699.544 940.441 718.966C932.491 730.573 923.174 741.579 914.065 752.437C907.875 759.815 901.834 767.46 895.224 774.513C853.44 819.093 799.72 855.953 739.915 877.395C704.378 890.137 654.659 899.897 616.895 903.828C605.674 904.997 594.29 905.511 583.019 906.226C576.156 906.599 569.291 906.914 562.423 907.17C555.555 907.425 548.685 907.622 541.813 907.759C534.94 907.897 528.067 907.976 521.193 907.995C514.319 908.015 507.446 907.976 500.573 907.877C493.7 907.779 486.828 907.621 479.959 907.405C473.089 907.188 466.221 906.913 459.357 906.579C452.493 906.244 445.633 905.851 438.777 905.398C431.92 904.946 425.069 904.436 418.223 903.866C411.377 903.296 404.538 902.668 397.705 901.98C390.871 901.293 384.045 900.547 377.228 899.743C370.41 898.939 363.601 898.075 356.8 897.154C349.999 896.233 343.208 895.253 336.427 894.215C329.647 893.177 322.877 892.081 316.119 890.926C309.361 889.772 302.615 888.56 295.88 887.289C289.146 886.019 282.426 884.692 275.719 883.306C269.012 881.92 262.32 880.477 255.642 878.977C227.154 872.675 199.55 865.242 172.033 855.983C163.124 852.985 154.16 850.089 145.478 846.562C93.1098 825.286 26.217 785.51 4.6394 734.3C-0.34216 722.477 1.78842 704.5 1.58142 684.594C2.61272 669.996 1.76965 653.647 1.78842 638.889L1.83916 546.753L2.09002 269.761C2.07365 254.52 2.23559 239.259 2.00786 224.021C1.96323 221.033 0.357085 213.722 1.42919 211.267C10.9387 209.439 21.0655 209.206 30.7447 208.184Z" fill="#DEE9EA"/>
<path d="M633.689 755.355C636.005 754.102 638.337 752.865 641.045 753.53C643.527 754.138 645.301 756.202 646.524 758.332C648.977 762.612 653.414 772.275 651.301 777.093C650.378 779.197 647.143 780.804 645.189 781.902C631.696 789.494 616.97 795.66 602.984 802.357C588.886 809.107 575.007 816.553 560.744 822.915C557.623 823.503 554.025 822.85 551.283 821.22C548.088 819.32 545.87 815.646 545.012 812.095C543.664 806.518 545.127 801.747 548.02 797.025C554.839 792.886 562.713 789.643 569.893 786.122C591.059 775.744 612.819 766.289 633.689 755.355Z" fill="black"/>
<path d="M622.5 763.566C624.191 762.515 626.371 761.8 628.208 760.989C629.099 762.662 630.658 764.844 630.399 766.761C629.343 768.337 627.256 768.935 625.559 769.66C623.915 770.42 622.488 771.164 620.645 771.28C618.702 770.534 617.633 768.18 616.549 766.492L622.5 763.566Z" fill="#FEFEFE"/>
<path d="M631.37 759.155C634.153 757.889 636.814 756.564 639.833 755.971C640.897 756.158 641.446 756.335 642.337 757C643.444 757.827 644.239 759.252 644.321 760.62C644.379 761.565 643.79 761.784 643.176 762.412L633.252 766.417C632.188 764.468 630.812 762.445 630.495 760.222L631.37 759.155Z" fill="#FEFEFE"/>
<path d="M629.011 769.918C629.676 769.58 630.359 769.415 631.072 769.206C631.258 769.319 631.459 769.41 631.63 769.545C634.751 772.006 635.746 779.555 636.61 783.289L629.091 787.049L627.248 787.632C625.384 786.264 622.824 776.092 621.406 773.072L629.011 769.918Z" fill="#FEFEFE"/>
<path d="M644.998 762.842C645.398 763.069 645.801 763.568 646.034 763.928C647.678 766.462 649.891 772.316 648.943 775.331C647.858 778.781 642.564 780.623 639.591 782.116C638.343 781.459 634.757 769.417 634.016 767.466L644.998 762.842Z" fill="#FEFEFE"/>
<path d="M613.509 768.083L614.343 767.846C616.051 768.881 617.156 771.02 618.259 772.653C604.467 778.682 590.745 784.87 577.093 791.215C575.235 790.145 573.265 789.23 571.351 788.263C585.334 781.392 599.387 774.665 613.509 768.083Z" fill="#FEFEFE"/>
<path d="M566.421 790.662C567.626 790.004 568.641 789.604 569.975 789.277C571.925 789.622 573.347 791.172 574.8 792.432C570.13 794.631 565.444 796.744 560.727 798.841C559.228 799.507 558.867 799.702 558.296 801.165L559.021 801.638C564.884 799.756 570.681 796.589 576.334 794.075C579.354 799.559 581.376 803.725 580.591 810.198C576.455 812.672 566.232 819.345 561.788 819.492C560.831 819.525 560.385 818.642 559.757 818.009C557.056 813.73 555.32 807.852 552.2 804.124L551.568 804.437C551.532 804.668 551.475 804.898 551.462 805.134C551.177 810.351 557.126 817.685 560.668 821.182C559.181 820.926 557.6 820.71 556.155 820.272C552.76 819.24 549.603 816.184 548.065 813.034C546.646 810.128 546.198 806.665 547.426 803.615C550.248 796.61 560.073 793.591 566.421 790.662Z" fill="#FEFEFE"/>
<path d="M613.06 776.944C615.087 775.892 617.313 775.117 619.43 774.253C621.817 779.19 623.14 783.937 624.262 789.3C612.466 795.146 600.5 800.688 588.654 806.44L583.098 809.145C583.606 803.049 581.108 798.059 578.552 792.738C589.935 787.255 601.52 782.088 613.06 776.944Z" fill="#FEFEFE"/>
<path d="M612.131 113.079C662.684 108.795 713.092 102.022 763.648 97.5058C763.754 100.829 763.652 104.159 763.6 107.484C762.294 105.542 762.452 103.207 761.199 101.073C735.853 103.386 710.527 105.903 685.221 108.625C661.783 110.993 638.184 112.965 614.853 116.262C614.5 174.748 613.739 233.363 615.033 291.837L611.659 293.374C612.376 287.009 611.959 280.296 611.936 273.896L611.89 239.198L612.131 113.079Z" fill="black"/>
<path d="M457.756 128.877C506.951 122.399 556.71 118.18 606.099 113.331C606.205 128.876 606.17 144.422 605.993 159.968C605.056 160.805 605.226 161.229 605.006 162.426C605.253 158.774 604.214 154.379 604.126 150.618C603.872 139.796 605.738 127.506 603.822 116.904C585.775 117.675 567.53 120.156 549.549 122.03L460.686 131.45C460.136 190.184 460.172 248.918 460.794 307.653C502.78 302.953 544.947 298.017 587.061 294.675L589.936 295.901L589.165 297.296C577.471 298.909 565.601 299.734 553.851 300.902C521.753 304.089 489.329 306.792 457.386 311.101C456.962 278.407 456.887 245.712 457.162 213.016C457.211 184.968 457.41 156.922 457.756 128.877Z" fill="black"/>
<path d="M603.822 116.904C605.737 127.506 603.872 139.796 604.126 150.618C604.214 154.379 605.253 158.774 605.006 162.426C605.226 161.229 605.056 160.805 605.993 159.968C606.675 182.414 605.835 205.013 605.699 227.479C605.6 243.973 606.437 260.972 605.371 277.397C603.081 280.156 605.147 288.058 604.275 291.92L603.73 291.918C603.333 289.2 603.5 286.28 602.729 283.668L602.54 293.222C597.364 293.61 592.214 294.039 587.06 294.675C544.947 298.017 502.78 302.953 460.794 307.653C460.171 248.919 460.135 190.185 460.686 131.45L549.549 122.03C567.529 120.156 585.775 117.675 603.822 116.904Z" fill="#FEFEFE"/>
<path d="M495.374 166.15C495.095 166.208 494.817 166.269 494.536 166.322C492.261 166.748 491.435 167.035 489.54 165.736L489.574 164.503C491.352 163.144 491.993 163.325 494.176 163.201L495.374 166.15Z" fill="#00000E"/>
<path d="M523.475 225.258C525.594 225.288 527.83 225.504 529.402 227.133C530.653 228.431 530.619 228.917 530.657 230.598L530.098 230.87C529.085 230.075 528.945 229.993 527.599 229.764L527.117 230.898L529.155 232.028L528.397 232.979C526.9 232.886 525.617 232.874 524.136 233.117C516.254 243.49 509.294 255.157 501.879 265.936C502.099 266.222 502.942 267.285 503.061 267.585C503.669 269.1 502.316 271.341 501.759 272.798C501.482 272.87 501.208 272.953 500.93 273.015C498.52 273.557 494.659 273.198 492.65 271.662C491.211 270.561 490.653 269.668 490.357 267.918C490.858 266.86 490.865 266.443 491.925 265.786C494.754 264.034 497.843 265.007 500.888 265.581C506.944 254.269 515.54 244.506 521.725 233.273C523.081 230.808 521.738 228.512 523.475 225.258Z" fill="black"/>
<path d="M494.176 163.201C503.619 162.057 576.295 152.384 578.895 153.993L579.253 155.09C577.843 156.278 576.567 156.502 574.801 156.802C567.2 158.094 559.182 158.303 551.494 159.203C532.77 161.377 514.063 163.693 495.374 166.15L494.176 163.201Z" fill="black"/>
<path d="M576.655 138.992C577.209 138.821 577.882 138.99 578.456 139.045L579.16 140.32L578.451 141.623C570.946 144.103 560.587 143.916 552.602 144.767L491.667 151.268C490.728 151.543 490.503 151.354 489.584 151.114L489.19 149.61L489.904 148.586C499.571 146.637 509.857 146.284 519.69 145.229L576.655 138.992Z" fill="black"/>
<path d="M580.784 218.559C581.17 218.921 581.83 219.508 582.114 219.931C582.928 221.146 582.999 223.113 582.458 224.457C581.765 226.177 581.205 226.399 579.635 227.061C577.942 226.935 577.271 226.682 575.912 225.664C574.678 223.451 575.168 221.613 574.925 219.232C574.767 217.691 575.008 217.781 573.714 216.753C570.42 217.871 567.487 220.755 564.429 222.498C556.294 227.134 547.355 230.129 539.503 235.441C538.895 236.886 538.256 238.226 537.474 239.583C535.954 240.497 535.268 240.74 533.492 240.656C532.16 239.821 531.643 239.553 530.966 238.061C530.292 236.578 530.313 234.965 530.944 233.465C531.414 232.346 531.752 232.441 532.757 231.961C535.116 232.766 537.148 233.262 539.628 232.649C542.805 231.863 561.881 222.019 564.939 220.022C567.304 218.477 570.17 215.432 572.95 214.841C574.632 214.482 576.428 214.903 578.121 214.941C579.787 214.979 580.82 214.163 581.899 212.997C584.63 210.047 583.43 207.165 583.646 203.61C583.741 202.046 584.522 200.778 585.955 200.073C587.392 199.367 589.349 199.381 590.756 200.141C592.402 201.032 592.918 202.144 593.429 203.845C593.334 205.677 592.974 206.794 591.597 208.104C590.401 209.242 588.525 209.109 586.991 209.139C586.656 209.144 581.632 215.72 579.291 217.387L578.589 217.877L580.784 218.559Z" fill="black"/>
<path d="M532.28 234.122C534.008 234.739 535.543 235.407 537.168 236.263L537.255 238.145C535.851 238.509 534.989 238.504 533.563 238.269C532.316 236.682 532.447 236.086 532.28 234.122Z" fill="#E4E5F5"/>
<path d="M586.726 201.453C588.273 201.78 589.326 202.211 590.693 203.004C591.202 204.838 590.802 205.203 590.088 207.002C588.818 206.611 587.72 206.004 586.542 205.402C585.74 203.546 586.067 203.402 586.726 201.453Z" fill="#E4E5F5"/>
<path d="M578.589 217.877L580.784 218.559C580.676 220.298 580.707 221.981 579.804 223.527C579.229 224.513 579.337 224.233 578.166 224.457C577.807 223.965 577.494 223.599 577.289 222.998C576.648 221.111 577.72 219.466 578.589 217.877Z" fill="#FEFEFE"/>
<path d="M603.822 116.904C605.737 127.506 603.872 139.796 604.126 150.618C604.214 154.379 605.253 158.774 605.006 162.426C605.226 161.229 605.056 160.805 605.993 159.968C606.676 182.414 605.835 205.013 605.699 227.479C605.6 243.973 606.437 260.973 605.371 277.397C603.081 280.156 605.147 288.058 604.275 291.92L603.73 291.918C603.333 289.2 603.5 286.28 602.729 283.668C601.916 273.121 602.607 262.075 602.634 251.481L602.84 188.591L603.199 141.542C603.267 133.501 602.684 124.825 603.822 116.904Z" fill="#0C0D2E"/>
<path d="M761.199 101.073C762.452 103.207 762.294 105.542 763.6 107.484C764.673 132.591 763.591 158.173 763.564 183.323C763.53 213.824 764.362 244.575 763.656 275.05C763.613 276.937 763.809 278.629 762.745 280.235L761.651 280.288C759.62 278.562 757.686 278.612 755.106 278.398C711.269 281.095 667.601 287.683 623.804 290.901C620.923 291.216 617.92 291.745 615.033 291.837C613.739 233.363 614.5 174.748 614.853 116.262C638.184 112.965 661.784 110.993 685.221 108.625C710.527 105.903 735.853 103.386 761.199 101.073Z" fill="#FEFEFE"/>
<path d="M675.19 165.472C675.395 165.62 675.628 165.736 675.803 165.916C677.815 168.003 676.65 173.189 676.27 175.739L675.078 174.738C674.046 171.598 674.567 168.641 675.19 165.472Z" fill="black"/>
<path d="M667.792 144.452L669.004 146.049C670.282 146.183 671.878 146.058 673.085 146.346C669.728 147.309 666.005 147.448 662.534 147.824C662.322 147.492 662.156 147.125 661.896 146.828C660.698 145.45 657.758 146.079 656.101 146.113C659.888 145.278 663.938 144.961 667.792 144.452Z" fill="#03021E"/>
<path d="M695.707 246.872L697.055 247.639C698.433 250.57 698.54 254.038 698.931 257.228L697.009 257.408L695.894 256.432C694.887 253.349 695.459 250.059 695.707 246.872Z" fill="black"/>
<path d="M679.111 143.377C683.132 142.571 687.286 142.305 691.37 142.036C692.487 142.958 692.606 143.473 694.1 143.445C695.157 143.425 696.47 143.361 697.503 143.632C694.086 144.492 690.11 144.785 686.587 144.866C684.327 143.225 681.788 143.456 679.111 143.377Z" fill="#03021E"/>
<path d="M709.854 238.638L711.382 239.371C712.451 243.071 715.774 244.37 716.074 248.29C713.802 247.859 712.179 246.893 710.845 244.996C709.342 242.859 709.399 241.106 709.854 238.638Z" fill="black"/>
<path d="M676.198 248.422L677.118 249.704C677.056 253.203 676.667 258.415 674.204 261.057L672.936 259.69C672.642 255.859 674.696 251.87 676.198 248.422Z" fill="black"/>
<path d="M641.549 187.961C641.834 188.071 642.126 188.165 642.403 188.293C645.086 189.52 650.599 193.068 651.757 195.781C649.066 195.622 644.776 194.046 642.847 192.062C641.271 190.44 641.457 190.112 641.549 187.961Z" fill="black"/>
<path d="M667.792 144.452C671.555 143.986 675.328 143.628 679.111 143.377C681.788 143.456 684.327 143.225 686.587 144.866C682.088 145.542 677.622 145.997 673.085 146.346C671.878 146.058 670.282 146.183 669.004 146.049L667.792 144.452Z" fill="#00000E"/>
<path d="M717.726 139.376C722.088 138.756 733.905 136.048 737.225 138.182C735.009 140.79 730.18 140.457 726.956 140.714C725.915 140.795 726.256 140.771 725.08 140.771C722.279 140.632 720.173 140.889 717.726 139.376Z" fill="black"/>
<path d="M656.101 146.113C657.758 146.079 660.697 145.45 661.896 146.828C662.155 147.125 662.322 147.492 662.534 147.824C656.01 148.471 648.288 150.611 641.814 149.504L641.355 148.594C643.818 146.337 652.479 146.372 656.101 146.113Z" fill="black"/>
<path d="M691.37 142.036C699.761 140.468 709.185 139.786 717.726 139.376C720.173 140.889 722.279 140.632 725.08 140.771C716.055 142.161 706.618 143.145 697.503 143.632C696.47 143.361 695.157 143.425 694.1 143.445C692.606 143.473 692.487 142.958 691.37 142.036Z" fill="#00000E"/>
<path d="M729.686 123.478C732.017 123.222 734.313 122.745 736.42 123.823L736.293 124.97C731.587 127.551 659.124 133.223 647.034 134.811C646.074 134.993 645.103 135.198 644.134 135.326C642.485 135.541 641.919 135.821 640.524 134.708L640.651 133.248C640.989 132.917 641.222 132.419 641.666 132.255C645.657 130.778 656.159 130.656 660.889 130.172L729.686 123.478Z" fill="black"/>
<path d="M761.199 101.073C762.452 103.207 762.294 105.542 763.6 107.484C764.673 132.591 763.591 158.173 763.564 183.323C763.53 213.824 764.362 244.575 763.656 275.05C763.613 276.937 763.809 278.629 762.745 280.235L761.651 280.288C759.62 278.562 757.686 278.612 755.106 278.398C756.883 278.189 758.696 278.206 760.155 277.066C761.708 264.195 760.368 249.826 760.319 236.766L760.762 149.508C760.797 134.315 759.503 115.784 761.199 101.073Z" fill="#03021E"/>
<path d="M695.478 162.342C695.548 162.421 695.635 162.487 695.688 162.577C697.804 166.095 695.194 171.329 694.063 174.981C697.583 176.027 700.908 177.521 704.272 178.979C706.474 177.631 708.358 176.147 710.872 175.416L711.73 176.037C711.207 178.612 709.502 180.575 707.998 182.668C710.875 185.356 714.365 191.738 717.549 192.834C719.843 191.715 721.108 189.372 722.516 187.327L724.115 187.042L725.24 188.017L725.143 189.586C723.059 191.833 720.583 193.559 718.138 195.388C721.476 206.231 721.299 214.029 718.218 224.825C720.621 225.729 723.452 226.554 725.595 227.965C726.789 228.753 727.089 228.929 727.358 230.355C727.127 230.408 726.903 230.489 726.668 230.516C723.182 230.927 719.828 228.01 717.136 226.133C715.36 229.585 713.529 232.825 710.969 235.786C702.988 245.008 693.585 247.818 681.83 248.647C681.017 248.552 680.207 248.429 679.402 248.278C678.596 248.128 677.797 247.95 677.004 247.745C676.21 247.539 675.425 247.307 674.649 247.048C673.871 246.789 673.104 246.504 672.345 246.193C671.588 245.881 670.841 245.544 670.107 245.182C669.373 244.819 668.651 244.431 667.943 244.02C667.235 243.607 666.542 243.171 665.863 242.712C665.185 242.253 664.523 241.77 663.878 241.265C654.742 234.043 651.159 224.122 649.847 212.993C647.113 212.931 644.411 213.055 641.686 213.043C639.776 213.035 637.151 212.685 635.822 211.268C639.937 209.417 645.612 210.596 649.934 211.084C650.107 207.841 650.415 204.632 651.277 201.488C652.406 197.37 657.481 187.712 661.524 185.906C661.705 185.826 661.904 185.799 662.094 185.745L662.508 184.358C659.461 179.751 655.247 175.806 651.671 171.58L652.29 171.872C658.031 174.524 661.462 177.625 665.7 182.264C673.103 175.897 680.75 174.486 690.157 174.343L690.297 173.816C691.176 174.393 691.067 174.564 692.175 174.31C694.677 173.734 692.681 167.217 693.224 165.413C693.464 164.614 694.932 163.086 695.478 162.342Z" fill="black"/>
<path d="M685.033 176.25C691.333 175.149 700.143 178.209 705.219 181.892C712.682 187.304 717.464 196.248 718.545 205.332C718.616 205.96 718.671 206.589 718.71 207.219C718.749 207.849 718.773 208.48 718.782 209.11C718.792 209.742 718.785 210.373 718.762 211.004C718.74 211.635 718.703 212.265 718.649 212.894C718.596 213.524 718.528 214.151 718.444 214.777C718.36 215.402 718.261 216.026 718.147 216.648C718.032 217.268 717.903 217.886 717.759 218.501C717.614 219.115 717.454 219.726 717.28 220.332C717.105 220.939 716.915 221.541 716.711 222.139C716.507 222.736 716.289 223.328 716.055 223.914C715.823 224.502 715.576 225.082 715.314 225.656C715.052 226.231 714.777 226.799 714.487 227.36C714.198 227.921 713.894 228.475 713.578 229.022C713.262 229.568 712.932 230.106 712.589 230.636C712.246 231.166 711.891 231.688 711.522 232.201C711.153 232.713 710.772 233.216 710.379 233.71C703.763 241.968 695.851 245.184 685.673 246.485C678.916 246.807 672.797 245.232 667.229 241.294C659.157 235.585 653.425 225.822 652.008 216.062C650.69 206.985 653.481 198.246 659.006 191.042C665.671 182.348 674.21 177.675 685.033 176.25Z" fill="#77A1C2"/>
<path d="M682.668 182.898C688.58 182.368 693.777 182.877 699.026 185.895C705.4 189.558 709.747 196.058 711.448 203.133C713.309 210.871 712.221 219.122 707.959 225.89C703.471 233.014 696.807 237.176 688.755 239.075C683.71 239.472 678.663 238.913 674.052 236.728C667.939 233.833 663.668 228.54 661.511 222.192C658.839 214.336 659.499 205.243 663.399 197.911C667.587 190.037 674.292 185.348 682.668 182.898Z" fill="black"/>
<path d="M682.414 184.965C686.903 184.43 690.914 184.502 695.153 186.281C701.326 188.87 705.876 194.076 708.211 200.289C710.916 207.487 710.707 215.916 707.283 222.837C703.593 230.296 697.473 234.258 689.781 236.685C684.791 237.388 680.002 237.376 675.296 235.345C669.722 232.938 665.757 228.278 663.592 222.671C663.414 222.214 663.248 221.752 663.094 221.286C662.94 220.821 662.798 220.352 662.669 219.878C662.538 219.406 662.421 218.93 662.316 218.452C662.21 217.972 662.117 217.491 662.036 217.007C661.956 216.523 661.889 216.038 661.832 215.551C661.777 215.063 661.735 214.574 661.705 214.084C661.674 213.595 661.656 213.105 661.652 212.616C661.646 212.125 661.654 211.635 661.674 211.144C661.694 210.654 661.727 210.165 661.773 209.677C661.818 209.189 661.876 208.702 661.946 208.216C662.017 207.731 662.1 207.247 662.196 206.766C662.291 206.285 662.399 205.808 662.519 205.332C662.64 204.856 662.772 204.384 662.916 203.915C663.061 203.446 663.217 202.982 663.385 202.521C663.554 202.06 663.734 201.605 663.926 201.154C664.119 200.702 664.322 200.256 664.537 199.815C668.319 192.119 674.548 187.728 682.414 184.965Z" fill="#FEFEFE"/>
<path d="M671.537 206.307L673.948 205.912C672.994 208.793 672.61 211.145 672.596 214.181L670.779 215.291C670.196 212.181 670.605 209.294 671.537 206.307Z" fill="#00000E"/>
<path d="M671.537 206.307C673.218 202.009 675.534 198.594 679.937 196.739C684.289 194.907 689.088 195.606 693.255 197.586C696.535 199.145 699.467 201.677 700.63 205.213C702.063 209.577 701.068 214.598 698.941 218.567C698.661 219.1 698.356 219.618 698.026 220.121C697.694 220.625 697.339 221.11 696.959 221.577C696.58 222.045 696.178 222.492 695.753 222.919C695.329 223.347 694.884 223.751 694.419 224.133C693.954 224.516 693.472 224.874 692.97 225.208C692.47 225.543 691.954 225.852 691.423 226.134C690.891 226.416 690.346 226.672 689.788 226.901C689.232 227.129 688.665 227.329 688.087 227.5C684.624 228.503 680.731 228.523 677.6 226.541C674.145 224.354 671.707 219.918 670.887 215.99C670.84 215.76 670.814 215.525 670.779 215.291L672.596 214.181C673.426 217.112 674.531 220.47 676.833 222.599C679.091 224.684 682.22 226.067 685.318 225.952C688.97 225.815 692.183 223.708 694.469 220.969C694.85 220.514 695.207 220.042 695.539 219.551C695.871 219.06 696.176 218.553 696.455 218.029C696.734 217.506 696.985 216.971 697.208 216.422C697.432 215.873 697.627 215.313 697.792 214.744C697.957 214.175 698.092 213.598 698.197 213.015C698.302 212.432 698.376 211.845 698.421 211.254C698.465 210.662 698.479 210.07 698.462 209.478C698.443 208.886 698.395 208.295 698.316 207.708C697.879 204.576 696.44 201.672 693.77 199.879C690.941 197.981 686.838 197.479 683.553 198.222C679.053 199.241 676.434 202.262 673.948 205.912L671.537 206.307Z" fill="black"/>
<path d="M673.948 205.912C676.434 202.262 679.053 199.241 683.553 198.222C686.838 197.479 690.941 197.981 693.77 199.879C696.44 201.673 697.879 204.576 698.316 207.708C698.395 208.295 698.443 208.886 698.462 209.478C698.479 210.07 698.465 210.662 698.421 211.254C698.376 211.845 698.302 212.432 698.197 213.015C698.092 213.598 697.957 214.175 697.792 214.744C697.627 215.314 697.432 215.873 697.209 216.422C696.985 216.971 696.734 217.506 696.455 218.029C696.176 218.553 695.871 219.06 695.539 219.551C695.207 220.042 694.85 220.514 694.469 220.969C692.183 223.708 688.97 225.815 685.318 225.952C682.22 226.067 679.091 224.684 676.833 222.599C674.531 220.47 673.426 217.112 672.596 214.181C672.61 211.145 672.994 208.793 673.948 205.912Z" fill="#5887B4"/>
<path d="M914.398 81.3335C916.249 81.0579 917.758 80.7918 919.617 81.2412C920.779 82.6476 921.287 83.606 921.293 85.4957L920.378 266.179C872.677 268.986 824.888 274.5 777.305 279.017C774.932 279.314 772.354 279.916 770.058 279.097C769.075 273.212 769.649 266.576 769.656 260.599L769.697 225.698L769.658 96.8977L914.398 81.3335Z" fill="black"/>
<path d="M912.693 84.6785C914.343 84.4232 915.297 84.1735 916.888 84.8387C918.399 87.7397 917.01 242.853 916.998 263.052C870.139 266.862 823.439 272.342 776.577 276.026C775.282 276.234 774.603 276.317 773.37 275.831C772.522 274.259 772.35 272.832 772.276 271.075C772.134 267.603 772.609 264.102 772.595 260.617L772.55 221.14C772.79 180.586 772.807 140.033 772.599 99.4784L912.693 84.6785Z" fill="#FEFEFE"/>
<path d="M807.674 131.666L806.322 131.837C802.993 132.248 798.576 133.128 795.771 130.927L796.799 131.218L797.321 130.094C798.798 129.64 800.55 129.764 802.096 129.705C804.333 130.001 805.932 129.749 807.532 131.455C807.59 131.518 807.627 131.596 807.674 131.666Z" fill="black"/>
<path d="M808.996 129.041L816.053 128.287L817.852 130.619L809.967 131.505L807.674 131.666C807.627 131.596 807.59 131.518 807.532 131.455C805.932 129.749 804.333 130.001 802.096 129.705C804.364 129.366 806.71 129.253 808.996 129.041Z" fill="#00000E"/>
<path d="M829.727 126.966C839.322 125.834 881.768 120.539 888.243 121.456L889.168 122.373L888.727 123.467C884.012 125.065 877.68 124.866 872.662 125.341C860.271 126.514 847.857 127.582 835.483 128.922C829.616 129.591 823.739 130.156 817.851 130.619L816.053 128.287L829.727 126.966Z" fill="black"/>
<path d="M902.072 160.099C904.145 160.357 905.592 160.843 906.941 162.472C906.761 163.874 906.916 163.902 905.933 165.087C903.667 167.82 901.715 167.978 898.364 168.311C894.244 172.58 856.084 210.507 855.564 212.066C855.049 213.608 855.951 213.66 854.726 215.218L852.694 215.437C850.715 210.296 847.857 212.404 844.633 209.404C843.87 208.695 844.079 208.022 844.01 207.061C846.031 208.63 848.608 209.774 851.172 209.853C853.902 207.002 851.588 200.433 852.691 196.64C854.771 198.742 853.965 206.733 853.984 209.873C865.528 201.281 883.582 181.495 893.538 170.248C896.325 167.1 898.72 163.645 901.605 160.589L902.072 160.099Z" fill="black"/>
<path d="M848.673 174L848.714 175.014C843.645 182.341 840.175 192.11 833.129 197.417C834.554 198.672 835.657 199.766 836.781 201.319C835.008 201.109 833.743 199.665 832.434 198.547C825.02 205.47 817.842 212.629 810.9 220.025C805.843 225.309 800.787 231.605 794.816 235.836C794.818 238.869 795.075 242.002 794.159 244.921L793.248 244.94C792.272 242.487 793.678 240.342 792.577 237.996C790.617 238.547 788.741 239.024 786.721 239.301L786.673 238.432C788.085 236.52 789.315 235.113 791.218 233.679C790.858 234.948 790.838 235.084 791.171 236.446C791.34 236.355 791.522 236.287 791.677 236.174C793.378 234.935 794.368 232.001 794.63 230.021L793.94 229.207L792.357 230.046L789.466 224.468C789.933 223.691 790.419 222.927 790.926 222.175C792.16 220.385 793.188 219.634 795.314 219.246L795.663 220.087L793.563 224.379L791.993 224.436C792.486 226.491 796.207 229.464 797.764 231.092C803.906 224.312 810.342 217.641 816.939 211.303C821.679 206.751 826.837 202.467 831.195 197.55C837.692 190.219 841.759 181.085 848.673 174Z" fill="black"/>
<path d="M854.736 164.711L855.986 165.398C857.83 169.734 855.45 178.693 854.729 183.456C858.059 178.498 861.824 173.882 867.102 170.913C865.367 175.249 857.762 182.075 854.505 186.334C848.673 193.959 844.039 202.313 838.648 210.23C834.119 216.88 823.204 230.072 820.72 236.275C820.603 236.567 820.534 236.873 820.432 237.171C820.256 237.688 820.063 238.201 819.884 238.717C819.45 238.722 819.008 238.652 818.581 238.731C816.809 239.058 815.768 242.207 814.628 243.529L814.03 242.28C814.732 239.819 815.915 238.159 817.401 236.097C814.845 233.888 812.06 232.005 810.332 229.046L810.991 228.787C813.947 230.534 815.882 232.899 818.118 235.444C823.229 229.662 849.444 192.962 851.813 186.415C854.171 179.899 853.954 171.6 854.736 164.711Z" fill="black"/>
<path d="M882.595 107.21C883.762 107.007 885.387 106.562 886.549 106.687C888.176 106.862 888.513 107.397 889.349 108.598C888.231 109.817 887.021 109.983 885.42 110.223C874.595 111.843 863.374 112.412 852.469 113.466C834.799 115.27 817.117 116.946 799.423 118.495C798.219 118.726 797.451 118.751 796.248 118.508L795.731 117.166L796.538 115.975C805.08 114.098 814.549 113.988 823.279 113.143C843.066 111.308 862.838 109.33 882.595 107.21Z" fill="black"/>
<path d="M615.033 291.837C617.92 291.745 620.923 291.216 623.804 290.901L625.214 293.734C621.23 294.304 616.309 295.649 612.388 294.982L611.659 293.374L615.033 291.837Z" fill="#00000E"/>
<path d="M602.729 283.668C603.5 286.28 603.333 289.2 603.73 291.918L604.275 291.92C605.147 288.058 603.081 280.156 605.371 277.397C605.549 283.611 605.461 289.805 605.357 296.019C600.077 296.349 594.394 297.397 589.165 297.296L589.936 295.901L587.06 294.675C592.214 294.039 597.364 293.61 602.54 293.222L602.729 283.668Z" fill="#03021E"/>
<path d="M623.804 290.901C667.601 287.683 711.268 281.095 755.106 278.398C757.685 278.612 759.62 278.562 761.651 280.288C747.281 282.594 732.361 283.366 717.866 284.765C686.962 287.545 656.078 290.535 625.214 293.734L623.804 290.901Z" fill="black"/>
<path d="M808.122 383.269C843.619 392.178 868.732 406.58 888.066 438.675C907.364 470.711 911.572 510.851 902.568 546.878C893.999 581.163 872.078 613.152 841.419 631.146C840 631.982 838.56 632.782 837.1 633.547C835.64 634.312 834.162 635.041 832.667 635.732C831.17 636.423 829.658 637.077 828.131 637.694C826.602 638.311 825.059 638.889 823.502 639.429C821.946 639.969 820.376 640.471 818.794 640.934C817.213 641.397 815.621 641.82 814.018 642.204C812.415 642.587 810.805 642.931 809.185 643.236C807.565 643.539 805.938 643.803 804.306 644.027C802.673 644.251 801.036 644.434 799.393 644.576C797.752 644.718 796.108 644.82 794.461 644.881C792.815 644.943 791.167 644.963 789.52 644.942C787.871 644.922 786.225 644.861 784.58 644.759C782.936 644.657 781.294 644.514 779.657 644.331C778.019 644.147 776.387 643.923 774.76 643.659C773.133 643.396 771.514 643.092 769.903 642.747C768.291 642.403 766.688 642.02 765.096 641.596C755.368 638.989 746.249 634.46 736.522 631.798C738.508 630.455 740.656 629.459 742.793 628.379C754.22 635.71 767.49 639.648 780.926 640.987C809.147 643.795 834.453 634.176 856.035 616.247C883.166 593.706 899.9 558.089 902.885 523.218C905.988 486.978 896.713 451.613 872.869 423.668C856.67 404.683 834.305 391.089 809.179 388.976C808.356 387.202 808.343 385.202 808.122 383.269Z" fill="black"/>
<path d="M736.522 631.658C714.792 625.897 696.252 608.225 684.302 589.892C664.77 559.922 659.879 522.042 667.282 487.326C674.808 452.032 696.634 417.638 727.204 397.977C745.053 386.5 773.92 376.533 795.299 381.158C799.655 381.565 803.836 382.268 808.122 383.129C808.343 385.062 808.356 387.061 809.179 388.835L808.529 388.828C777.706 389.321 750.802 398.4 728.912 420.819C703.113 447.242 688.397 487.826 689.139 524.543C689.805 557.522 702.597 592.442 726.749 615.459C731.733 620.175 737.081 624.435 742.793 628.238C740.656 629.318 738.508 630.315 736.522 631.658Z" fill="#0C0D2E"/>
<path d="M795.299 381.299C799.655 381.705 803.836 382.409 808.122 383.269C808.343 385.202 808.356 387.202 809.179 388.976L808.529 388.968C806.401 388.419 804.158 388.282 801.975 388.025L803.265 387.687C804.571 386.352 804.252 387.15 804.235 385.298C802.087 383.595 801.32 383.41 798.551 383.253C796.804 383.154 796.567 382.439 795.299 381.299Z" fill="#00000E"/>
<path d="M809.179 388.976C834.305 391.089 856.67 404.683 872.869 423.668C896.713 451.613 905.988 486.978 902.886 523.218C899.9 558.089 883.166 593.706 856.035 616.247C834.453 634.176 809.148 643.795 780.926 640.987C767.491 639.648 754.22 635.71 742.793 628.379C737.081 624.575 731.733 620.316 726.749 615.6C702.597 592.583 689.805 557.662 689.139 524.684C688.397 487.967 703.113 447.382 728.912 420.959C750.802 398.541 777.706 389.461 808.529 388.968L809.179 388.976Z" fill="#77A1C2"/>
<path d="M790.966 412.807C809.09 410.706 826.754 415.738 841.677 426.104C863.316 441.139 876.465 466.509 880.93 492.047C886.413 523.416 877.975 556.765 859.604 582.679C844.811 603.547 822.888 613.821 798.276 618.094C780.186 620.229 762.814 614.427 748.098 603.967C726.201 588.403 712.639 563.134 708.482 536.888C703.75 507.018 710.642 475.31 728.718 450.838C744.153 429.942 765.326 416.561 790.966 412.807Z" fill="black"/>
<path d="M760.938 426.552C773.944 417.184 794.907 414.012 810.483 416.629C830.799 420.039 848.062 432.843 859.801 449.427C860.805 450.861 861.774 452.318 862.708 453.798C863.64 455.279 864.536 456.782 865.395 458.307C866.255 459.832 867.077 461.376 867.861 462.941C868.645 464.506 869.39 466.089 870.096 467.69C870.803 469.292 871.47 470.909 872.097 472.544C872.724 474.177 873.311 475.826 873.858 477.49C874.404 479.153 874.909 480.827 875.373 482.514C875.838 484.202 876.261 485.9 876.642 487.608C877.023 489.316 877.363 491.033 877.66 492.758C877.958 494.483 878.212 496.213 878.424 497.951C878.637 499.688 878.807 501.43 878.934 503.176C879.061 504.922 879.145 506.669 879.188 508.419C879.229 510.169 879.227 511.919 879.183 513.669C879.139 515.418 879.052 517.165 878.923 518.911C878.793 520.656 878.62 522.398 878.406 524.135C878.191 525.872 877.934 527.603 877.634 529.327C872.702 556.738 859.867 584.011 836.445 600.081C820.881 610.76 799.003 618.02 780.056 614.494C759.512 610.67 740.403 596.987 728.762 579.861C712.645 556.154 706.946 525.153 712.33 497.084C716.396 475.881 728.579 449.721 746.664 436.869C746.937 436.674 747.223 436.497 747.504 436.311C751.458 432.434 756.086 429.202 760.938 426.552Z" fill="black"/>
<path d="M760.938 426.552C759.918 429.075 758.894 429.412 756.697 430.932L757.263 431.401L761.698 429.22L763.286 430.01C759.494 432.139 752.378 437.43 748.116 436.969L747.505 436.311C751.458 432.434 756.086 429.202 760.938 426.552Z" fill="#E4E5F5"/>
<path d="M766.043 432.141C766.284 432.168 766.536 432.145 766.765 432.224C771.381 433.821 781.628 465.538 783.899 471.907C790.662 470.853 796.689 470.068 803.258 472.588C809.166 459.443 814.623 445.247 822.491 433.174C827.905 434.612 832.952 436.424 838.128 438.566C835.541 445.486 832.677 452.29 829.537 458.977C826.397 465.664 822.991 472.213 819.319 478.624C826.514 487.999 831.798 497.275 835.058 508.668C836.055 504.778 834.442 500.697 833.228 497.01C844.148 493.661 855.381 491.27 866.504 488.691C868.624 495.915 869.503 503.585 870.343 511.046C858.09 513.563 846.008 517.022 833.925 520.249C831.729 526.95 828.807 533.034 825.212 539.09C834.881 548.218 843.327 559.014 851.902 569.172C847.622 574.486 842.995 579.241 838.148 584.028C832.04 577.14 826.391 569.826 820.633 562.644L812.841 553.619C808.31 555.462 803.917 556.78 799.112 557.667C797.613 572.527 794.612 589.435 789.877 603.625C783.119 602.704 776.941 600.785 770.544 598.468C773.22 584.3 775.847 570.039 780.947 556.511C775.797 553.346 771.291 549.77 767.061 545.461C757.209 554.306 746.834 562.448 736.291 570.446C732.623 565.467 729.94 559.701 727.345 554.117C735.607 545.273 745.116 538.215 754.172 530.253C752.872 523.601 752.762 517.011 752.757 510.255C747.248 509.335 741.796 508.147 736.403 506.69C731.01 505.232 725.702 503.513 720.479 501.532C722.102 494.805 724.377 488.339 727.036 481.958C737.781 484.837 748.832 487.359 759.356 490.945C759.42 490.827 759.488 490.713 759.544 490.594C761.406 486.586 763.018 484.595 766.352 481.758L767.404 480.873C767.819 474.076 755.616 448.207 752.813 439.942C757.08 437.097 761.574 434.646 766.043 432.141Z" fill="#77A1C2"/>
<path d="M792.729 483.77C798.593 483.402 803.852 484.114 809.088 486.944C816.731 491.075 822.04 498.643 824.16 506.986C824.308 507.553 824.44 508.123 824.558 508.695C824.676 509.269 824.78 509.845 824.868 510.424C824.956 511.002 825.03 511.582 825.089 512.165C825.148 512.747 825.191 513.33 825.219 513.915C825.248 514.5 825.262 515.085 825.261 515.67C825.26 516.255 825.244 516.84 825.213 517.424C825.182 518.009 825.136 518.592 825.075 519.174C825.014 519.757 824.938 520.337 824.847 520.915C824.757 521.494 824.652 522.069 824.531 522.642C824.411 523.215 824.276 523.784 824.127 524.35C823.978 524.915 823.815 525.477 823.637 526.035C823.459 526.592 823.266 527.145 823.059 527.692C822.854 528.24 822.633 528.782 822.398 529.318C822.164 529.855 821.917 530.385 821.656 530.909C821.395 531.433 821.12 531.949 820.831 532.458C820.544 532.968 820.244 533.471 819.93 533.965C814.862 541.82 807.999 545.751 799.115 547.804C793.235 548.047 787.451 547.185 782.199 544.413C775.091 540.66 770.124 534.043 767.884 526.385C765.261 517.424 766.482 507.027 771.146 498.935C776.027 490.47 783.458 486.064 792.729 483.77Z" fill="black"/>
<path d="M791.698 487.601C796.8 487.185 801.637 487.38 806.339 489.543C813.036 492.624 817.79 498.563 820.137 505.478C820.305 505.973 820.46 506.473 820.603 506.976C820.745 507.479 820.875 507.985 820.992 508.494C821.109 509.003 821.213 509.516 821.303 510.031C821.394 510.545 821.472 511.062 821.536 511.581C821.601 512.1 821.652 512.619 821.691 513.141C821.729 513.662 821.754 514.184 821.766 514.708C821.777 515.23 821.775 515.752 821.76 516.274C821.745 516.798 821.717 517.32 821.675 517.84C821.634 518.361 821.58 518.881 821.512 519.399C821.445 519.918 821.363 520.434 821.269 520.948C821.175 521.462 821.068 521.974 820.948 522.483C820.828 522.991 820.695 523.497 820.549 523.999C820.402 524.501 820.244 524.999 820.074 525.493C819.902 525.987 819.719 526.477 819.523 526.962C819.327 527.446 819.118 527.925 818.899 528.399C818.678 528.874 818.445 529.342 818.201 529.804C814.199 537.319 808.11 541.565 800.169 544.138C794.842 544.886 789.397 544.348 784.523 541.976C778.406 539 774.165 533.677 771.946 527.317C769.07 519.073 769.593 509.367 773.565 501.567C777.582 493.679 783.585 490.13 791.698 487.601Z" fill="#DEE9EA"/>
<path d="M791.522 500.347C794.098 500.174 796.955 500.17 799.477 500.788C803.332 501.73 806.954 504.24 808.94 507.708C810.988 511.283 811.372 515.467 810.283 519.422C808.647 525.362 804.882 528.842 799.654 531.715C796.26 532.038 793.218 532.278 789.968 531.055C785.917 529.53 782.735 526.104 781.168 522.113C779.476 517.801 779.474 512.802 781.401 508.565C783.573 503.786 786.729 501.971 791.522 500.347Z" fill="black"/>
<path d="M792.979 503.356C794.944 503.311 796.769 503.403 798.681 503.919C801.656 504.722 804.158 506.808 805.64 509.493C807.317 512.53 807.469 516.271 806.366 519.525C804.854 523.994 802.11 526.21 798.078 528.368C795.447 528.497 792.717 528.66 790.297 527.453C787.2 525.908 784.902 522.985 783.916 519.688C783.786 519.257 783.678 518.82 783.593 518.378C783.506 517.936 783.441 517.491 783.399 517.043C783.357 516.594 783.336 516.144 783.339 515.694C783.342 515.244 783.366 514.795 783.413 514.346C783.46 513.898 783.529 513.454 783.62 513.014C783.711 512.572 783.823 512.136 783.957 511.707C784.091 511.276 784.246 510.854 784.421 510.439C784.598 510.025 784.794 509.62 785.01 509.225C786.873 505.826 789.407 504.498 792.979 503.356Z" fill="#5887B4"/>
<path d="M760.938 426.552C773.944 417.184 794.907 414.012 810.483 416.629C830.799 420.039 848.062 432.843 859.801 449.427C860.805 450.861 861.774 452.318 862.708 453.798C863.64 455.279 864.536 456.782 865.395 458.307C866.255 459.832 867.077 461.376 867.861 462.941C868.645 464.506 869.39 466.089 870.096 467.69C870.803 469.292 871.47 470.909 872.097 472.544C872.724 474.177 873.311 475.826 873.858 477.49C874.404 479.153 874.909 480.827 875.373 482.514C875.838 484.202 876.261 485.9 876.642 487.608C877.023 489.316 877.363 491.033 877.66 492.758C877.958 494.483 878.212 496.213 878.424 497.951C878.637 499.688 878.807 501.43 878.934 503.176C879.061 504.922 879.145 506.669 879.188 508.419C879.229 510.169 879.227 511.919 879.183 513.669C879.139 515.418 879.052 517.165 878.923 518.911C878.793 520.656 878.62 522.398 878.406 524.135C878.191 525.872 877.934 527.603 877.634 529.327C872.702 556.738 859.867 584.011 836.445 600.081C820.881 610.76 799.003 618.02 780.056 614.494C759.512 610.67 740.403 596.987 728.762 579.861C712.645 556.154 706.946 525.153 712.33 497.084C716.396 475.881 728.579 449.721 746.664 436.869C746.937 436.674 747.223 436.497 747.504 436.311L748.115 436.969C751.903 451.05 758.632 464.768 764.087 478.288C761.921 480.838 760.146 483.783 758.285 486.565C746.924 483.523 735.509 480.227 723.891 478.335C722.341 486.911 719.106 495.163 717.45 503.795C722.65 505.89 727.949 507.689 733.349 509.19C738.75 510.692 744.217 511.889 749.752 512.781C749.71 518.192 750.179 523.559 751.16 528.881C741.51 536.368 732.275 544.079 723.429 552.503C724.169 554.274 724.927 556.036 725.705 557.791C727.523 561.89 731.483 572.291 735.74 573.935C745.816 569.839 758.302 557.434 766.525 549.976L775.699 557.425C773.094 571.473 770.704 586.658 766.323 600.227C774.465 603.882 783.677 606.593 792.607 607.181C796.731 591.946 799.277 576.323 802.013 560.795L811.17 557.378C820.983 567.261 828.176 579.424 838.311 588.906C844.225 582.469 850.397 576.146 855.681 569.174C848.935 558.305 838.412 548.283 829.598 539.039C831.786 533.534 834.341 528.148 836.765 522.74C849.077 520.221 861.346 516.439 873.554 513.381C873.467 508.552 873.045 503.753 872.288 498.984C871.53 494.213 870.446 489.519 869.034 484.901C856.779 487.671 844.552 490.558 832.352 493.563C830.036 488.008 827.317 483.39 823.498 478.747C830.62 465.491 837.559 451.728 842.018 437.329C835.012 433.992 827.902 431.294 820.4 429.293C812.628 440.455 807.006 455.178 801.872 467.769C796.427 467.486 790.936 467.784 785.489 467.938C780.933 454.585 776.739 440.446 769.277 428.405L763.286 430.01L761.698 429.22L757.263 431.401L756.697 430.932C758.893 429.412 759.917 429.075 760.938 426.552Z" fill="#DEE9EA"/>
<path d="M31.2755 207.761C56.508 205.87 81.6359 202.707 106.788 199.994C144.151 196.277 181.486 192.291 218.792 188.039L282.465 181.29C292.547 180.249 303.449 179.929 313.346 177.964C319.949 181.33 354.9 198.195 357.523 202.043L357.595 203.248C354.284 204.691 350.305 204.679 346.757 205.28L347.258 290.444C347.299 295.193 346.788 313.895 347.629 317.349C347.689 317.598 348.161 318.251 348.298 318.37C348.624 318.654 349.513 319.114 349.91 319.33C350.741 322.392 351.372 331.274 350.076 334.092L348.157 334.534C346.204 338.693 346.985 370.123 347.621 376.532C358.796 367.715 370.278 364.998 383.938 362.086C385.566 359.083 387.248 356.118 388.516 352.942C388.121 350.773 387.673 348.601 387.364 346.419L381.785 345.792C378.948 341.15 376.503 335.586 372.489 331.88C373.292 325.59 373.933 321.105 377.551 315.718C376.464 309.648 376.939 305.576 378.722 299.735C374.243 296.304 363.51 289.653 362.785 283.956C362.675 283.092 363.009 282.689 363.349 281.929C365.911 279.945 369.63 279.785 372.747 280.188C376.435 280.663 380.236 282.419 383.596 283.962C390.002 276.838 396.832 270.275 407.068 269.872C414.35 269.586 420.904 274.117 425.9 279C432.261 285.218 440.514 295.156 440.438 304.524C440.301 321.297 414.652 344.808 425.24 356.678C430.97 363.099 440.978 364.275 447.36 371.305C459.756 384.957 465.284 439.74 464.737 458.636C464.421 469.575 457.179 478.198 449.498 485.331C445.764 488.798 441.64 492.173 437.319 494.888C437.534 522.351 444.496 549.27 446.672 576.643C449.743 615.275 446.642 653.752 448.29 692.332C449.067 710.53 453.892 728.683 455.919 746.812C458.04 765.787 457.216 784.714 457.506 803.761C457.557 807.089 458.724 826.311 458.078 827.505C458.002 827.645 456.697 829.013 456.662 829.108C455.188 833.114 459.124 841.035 455.07 848.042C456.179 856.981 461.872 868.645 457.648 877.388C453.304 880.727 443.334 879.24 438.173 878.556C429.157 877.36 392.228 869.743 388.133 863.527C387.081 861.93 387.075 859.933 387.669 858.149C389.497 852.669 391.933 846.749 397.507 844.282C401.804 842.38 417.047 841.845 418.623 837.975C419.451 835.939 418.575 832.439 418.173 830.252C416.391 820.57 413.48 810.892 411.443 801.202L398.148 735.688C391.152 736.075 384.222 737.369 377.245 737.697C375.712 750.983 367.589 834.646 362.468 840.686L360.536 841.234C357.546 849.65 365.079 878.75 359.358 881.3C349.445 885.72 303.667 878.48 293.553 874.111C289.9 872.534 285.803 870.101 284.29 866.2C282.955 862.758 284.638 857.967 286.258 854.82C287.382 852.637 288.558 851.777 290.885 851.127C297.014 849.416 303.819 849.402 310.132 848.706C315.213 848.145 320.204 847.021 325.129 845.676C325.144 843.339 325.53 840.309 324.656 838.134L322.953 837.641C322.354 835.617 323.358 795.618 323.33 790.387C323.169 775.285 322.733 760.191 322.021 745.105C304.514 746.406 287.058 748.663 269.575 750.299L128.126 763.788L74.7753 768.851C66.5819 769.587 57.7735 771.114 49.6011 770.703C43.4155 770.393 36.7142 768.381 30.6305 767.078C20.7338 764.959 10.7264 763.007 0.898439 760.61L0.777592 749.189C1.85608 732.599 0.97444 714.018 0.994068 697.247L1.04713 592.537L1.30948 277.742C1.29236 260.421 1.46171 243.077 1.22355 225.76C1.17688 222.364 -0.502768 214.056 0.618404 211.265C10.5631 209.187 21.1533 208.923 31.2755 207.761Z" fill="black"/>
<path d="M249.651 282.305L250.569 283.736L251.828 283.633L253.581 286.171C253.05 287.202 252.995 287.272 251.977 287.819C250.188 287.442 249.09 285.958 247.858 284.704L248.675 284.384L246.994 283.261C248.333 283.106 248.616 283.134 249.651 282.305Z" fill="#03021E"/>
<path d="M272.744 451.029C273.771 451.273 274.989 451.451 275.809 452.183C277.544 453.729 277.141 456.674 277.111 458.74C274.419 456.869 273.494 454.079 272.744 451.029Z" fill="#5887B4"/>
<path d="M244.688 446.431C246.546 448.586 247.752 452.468 248.918 455.127C247.51 455.182 246.654 455.222 245.32 454.674C243.888 452.624 244.594 448.912 244.688 446.431Z" fill="#E6D1E4"/>
<path d="M266.271 485.177C262.797 484.533 257.531 483.498 255.022 480.906C257.172 480.157 260.514 481.292 262.677 481.865C264.212 481.958 265.963 481.805 267.229 482.778C267.336 484.037 267.123 484.096 266.384 485.08C266.355 485.12 266.309 485.145 266.271 485.177Z" fill="#F2BFBB"/>
<path d="M243.233 285.125C244.96 285.274 246.199 285.165 247.858 284.704C249.09 285.958 250.188 287.442 251.977 287.819C252.995 287.272 253.05 287.202 253.581 286.171L255.057 286.356L256.298 287.512L255.088 290.262C251.03 288.945 246.844 287.416 243.233 285.125Z" fill="#00000E"/>
<path d="M259.649 291.776L261.319 292.777C261.658 296.037 262 299.042 261.218 302.266L260.478 303.061C259.494 302.808 259.116 302.658 258.242 302.069C259.317 299.342 259.127 294.829 259.649 291.776Z" fill="#9C5E5F"/>
<path d="M242.186 425.577C243.763 426.498 245.965 430.031 246.482 431.798C246.855 433.069 246.807 433.342 246.116 434.461L243.146 434.855L242.507 434.527C241.146 432.109 238.724 428.769 238.227 426.109L242.186 425.577Z" fill="#FEFEFE"/>
<path d="M381.36 706.397C384.678 706.267 390.082 705.311 392.973 706.982C393.739 708.253 393.756 708.173 393.458 709.621L392.156 710.233L386.291 711.021C384.442 711.281 383.341 711.412 381.577 710.752C380.622 709.209 381.127 708.159 381.36 706.397Z" fill="#DEE9EA"/>
<path d="M305.052 477.643L305.912 477.776C305.48 478.222 305.407 478.343 304.796 478.71C299.01 482.199 285.965 484.727 279.715 482.612C278.59 482.013 277.555 481.286 276.502 480.572C277.815 480.016 301.603 477.958 305.052 477.643Z" fill="#99A6CC"/>
<path d="M243.013 436.096C244.964 435.954 246.842 435.374 248.53 436.609C251.447 438.742 252.6 441.922 253.154 445.316C253.609 448.105 252.772 449.067 251.218 451.262C251.108 451.915 251.228 451.509 250.607 452.375C247.254 449.443 244.752 440.418 243.013 436.096Z" fill="#FEFEFE"/>
<path d="M243.002 302.035C243.199 301.708 243.466 301.412 243.591 301.05C243.697 300.746 243.67 299.486 243.717 299.172C243.761 298.877 243.871 298.595 243.948 298.306C245.419 303.001 242.672 312.488 244.79 316.328C244.828 317.808 244.893 318.934 245.339 320.363C248.798 324.27 254.503 324.925 259.091 327.054L259.712 327.347C254.118 327.503 248.516 327.346 242.921 327.258C242.83 318.85 242.857 310.442 243.002 302.035Z" fill="#CF7F77"/>
<path d="M70.2165 313.263C75.7076 313.101 78.8617 314.867 83.6032 317.319C79.5544 318.156 75.3219 318.334 71.2047 318.679C66.8786 319.058 60.6138 319.042 56.8799 316.431L56.8195 315.647C59.9599 313.008 66.251 313.461 70.2165 313.263Z" fill="#DB9587"/>
<path d="M16.2462 734.661C21.0011 732.402 34.0281 732.299 39.8338 731.792L39.7411 741.206C32.0238 739.591 23.939 738.336 16.4193 735.989L16.2462 734.661Z" fill="#9FBDE1"/>
<path d="M386.71 673.455C389.334 681.654 390.675 692.992 391.723 701.632C390.106 702.385 387.979 702.343 386.192 702.503C385.103 702.669 383.971 702.613 382.87 702.624L382.283 701.978C382.726 692.934 384.527 682.252 386.71 673.455Z" fill="#FEFEFE"/>
<path d="M189.856 301.274C191.452 301.107 192.937 301.081 194.543 301.126C194.611 301.443 194.745 302.023 194.79 302.376C195.298 306.328 195.578 331.643 194.021 333.762C192.594 333.847 191.548 334.131 190.235 333.503C188.999 324.063 190.027 311.196 189.856 301.274Z" fill="#AC696B"/>
<path d="M243.233 285.125C246.844 287.416 251.03 288.945 255.088 290.262C256.586 290.777 258.115 291.393 259.649 291.776C259.127 294.829 259.317 299.342 258.242 302.069C253.907 300.036 249.285 298.427 245.052 296.241C244.955 302.787 245.553 309.855 244.79 316.328C242.672 312.488 245.419 303.001 243.948 298.306C243.871 298.595 243.761 298.877 243.717 299.172C243.67 299.486 243.697 300.746 243.591 301.05C243.466 301.412 243.199 301.708 243.002 302.035C242.779 296.474 243.149 290.7 243.233 285.125Z" fill="#AC696B"/>
<path d="M148.158 303.94C149.432 303.982 150.606 304.148 151.861 304.356C152.441 310.902 152.949 331.406 151.845 337.125L148.645 338.235C147.783 337.954 147.006 337.587 146.184 337.207C145.761 334.626 145.682 306.585 146.162 305.177C146.462 304.296 147.361 304.258 148.158 303.94Z" fill="#9C5E5F"/>
<path d="M255.039 449.249C258.395 452.64 267.055 472.093 270.007 477.81C268.826 478.7 267.403 478.733 265.968 478.983C265.053 479.075 264.444 479.008 263.555 478.772C257.755 472.789 254.325 461.86 251.179 454.095C252.337 452.381 253.706 450.829 255.039 449.249Z" fill="#FEFEFE"/>
<path d="M271.215 474.139C276.796 472.254 284.6 472.233 290.542 471.334C297.701 470.252 304.9 468.339 312.111 467.841C312.057 470.15 312.226 472.39 311.143 474.49C307.121 475.988 277.437 478.634 273.814 477.633L271.215 474.139Z" fill="#77A1C2"/>
<path d="M56.5364 320.023C59.4452 320.797 62.1999 321.833 65.0037 322.909C65.1623 330.69 65.5081 338.533 65.2171 346.31L56.4942 347.238C56.3835 338.277 55.741 328.94 56.5364 320.023Z" fill="#9C5E5F"/>
<path d="M413.076 843.85L412.273 844.437C411.329 845.117 410.414 845.543 409.348 845.997C410.456 846.711 410.912 847.294 411.218 848.621C411.404 849.426 411.4 850.367 411.445 851.181C411.526 851.432 411.6 851.684 411.688 851.932C412.439 854.053 414.763 856.275 416.205 858.015L415.651 859.027C414.096 859.059 413.482 858.441 412.368 857.384C412.248 857.271 412.138 857.151 412.022 857.035L409.975 856.171C409.034 857.985 409.256 858.744 409.371 860.748L410.375 862.342C406.286 860.941 396.178 858.129 394.32 853.811C393.794 852.589 393.65 851.535 394.342 850.328C397.136 845.455 407.955 844.683 413.076 843.85Z" fill="#DB9587"/>
<path d="M401.718 848.436C402.716 848.685 403.396 848.764 404.143 849.516C405.299 850.68 408.22 855.171 408.606 856.796C408.744 857.381 408.453 858.704 408.401 859.355C407.575 859.427 408.074 859.461 406.957 858.955C406.287 854.87 402.444 853.455 401.718 848.436Z" fill="black"/>
<path d="M412.022 857.035C409.787 854.002 408.343 851.405 408.172 847.611L408.858 847.221C410.175 848.395 410.719 849.621 411.445 851.181C411.526 851.432 411.6 851.684 411.688 851.932C412.439 854.053 414.763 856.275 416.205 858.015L415.651 859.027C414.096 859.059 413.482 858.441 412.368 857.384C412.248 857.271 412.138 857.151 412.022 857.035Z" fill="black"/>
<path d="M390.9 856.54C398.548 862.887 428.086 871.226 438.32 873.094C441.853 873.739 452.817 873.885 455.078 875.461L454.67 876.563C453.656 876.67 452.653 876.749 451.634 876.789C440.036 877.242 398.306 869.058 390.34 861.677C389.716 859.82 390.365 858.33 390.9 856.54Z" fill="#7F6E98"/>
<path d="M255.057 286.356C269.614 284.19 284.557 283.325 299.218 281.968C309.986 280.973 321.803 278.91 332.565 279.612C334.911 279.765 336.995 280.726 339.138 281.62C321.173 282.329 303.156 284.759 285.308 286.83C277.696 287.712 269.545 289.471 261.919 289.296C259.818 289.248 258.15 288.434 256.298 287.512L255.057 286.356Z" fill="#F2BFBB"/>
<path d="M247.403 300.342C252.152 301.873 256.796 304.392 261.447 306.288C261.343 312.555 261.477 318.849 261.499 325.119C256.734 323.303 251.917 321.586 247.39 319.221L247.403 300.342Z" fill="#AC696B"/>
<path d="M327.57 837.827C337.684 838.605 347.534 840.186 357.717 840.349C357.336 843.474 357.305 846.662 357.164 849.806L356.702 850.134C349.6 851.181 334.595 847.398 327.597 844.738L327.57 837.827Z" fill="#CF7F77"/>
<path d="M142.027 304.72L142.881 304.822C143.142 305.269 143.291 305.457 143.4 306.026C144.521 311.834 143.425 319.618 143.408 325.615C143.399 328.685 143.799 331.802 143.688 334.859C143.65 335.865 143.359 336.493 142.883 337.358C141.283 338.758 139.149 338.675 137.125 338.86L136.266 338.668C134.269 336.042 135.454 310.406 135.47 305.34C137.609 304.995 139.865 304.919 142.027 304.72Z" fill="#AC696B"/>
<path d="M413.076 843.85L414.245 843.716C415.697 845.593 415.956 848.566 417.159 850.722C422.947 861.091 433.191 867.287 444.874 868.628C447.346 868.912 454.119 867.879 455.693 869.743C455.289 870.664 455.154 871.162 454.126 871.57C445.921 874.822 420.18 863.641 410.375 862.342L409.372 860.748C409.256 858.744 409.034 857.985 409.975 856.171L412.022 857.035C412.138 857.151 412.248 857.271 412.368 857.384C413.482 858.441 414.096 859.059 415.651 859.027L416.205 858.015C414.763 856.275 412.439 854.053 411.688 851.932C411.6 851.684 411.526 851.432 411.445 851.181C411.4 850.367 411.404 849.426 411.218 848.621C410.912 847.294 410.456 846.711 409.348 845.997C410.415 845.544 411.329 845.117 412.273 844.437L413.076 843.85Z" fill="url(#paint0_linear_2_2)"/>
<path d="M12.9984 340.25C22.128 342.493 31.2083 346.249 40.0735 349.375L39.8624 359.932C30.9117 356.21 21.1098 353.844 12.4476 349.565C12.3634 346.43 12.6871 343.363 12.9984 340.25Z" fill="#77A1C2"/>
<path d="M12.9436 596.914C21.8441 601.099 30.4149 604.471 39.7473 607.611L39.628 618.625C30.7474 615.814 21.2536 611.474 12.8581 607.417C12.796 603.917 12.8939 600.413 12.9436 596.914Z" fill="#77A1C2"/>
<path d="M300.539 873.021C297.36 872.494 292.32 870.909 289.853 868.87C288.446 867.707 286.952 865.261 286.848 863.462C286.743 861.644 286.857 858.712 288.129 857.319C288.555 858.424 288.737 859.599 289.2 860.693C291.146 865.286 296.496 867.918 300.814 869.84L301.512 870.144C304.935 870.148 308.603 871.155 312.009 871.667C321.008 873.018 330.011 874.505 339.022 875.751C345.657 876.668 352.193 876.354 358.813 876.858L358.955 877.91C357.719 879.326 356.872 879.706 354.98 879.87C347.151 880.55 307.745 876.342 300.539 873.021Z" fill="#7F6E98"/>
<path d="M13.0565 466.818C21.4902 467.732 31.3649 472.628 39.7936 475.055L39.7332 486.512C30.6285 483.478 21.1728 480.658 12.4362 476.69C12.3222 473.267 12.4201 470.19 13.0565 466.818Z" fill="#77A1C2"/>
<path d="M262.677 481.865C265.892 481.452 269.113 481.098 272.341 480.802C277.911 484.706 281.83 486.478 288.681 486.733L288.837 496.939C279.146 496.572 264.894 496.023 257.967 488.155C256.61 486.593 255.419 484.912 254.393 483.114C258.601 485.677 263.749 487.988 268.819 487.153L268.988 486.441C268.095 486.012 267.2 485.526 266.271 485.177C266.309 485.145 266.355 485.12 266.384 485.08C267.123 484.096 267.336 484.037 267.229 482.778C265.963 481.805 264.212 481.958 262.677 481.865Z" fill="#ECC1A2"/>
<path d="M390.921 713.253C392.026 713.064 392.453 713.104 393.517 713.305C396.499 717.536 396.642 727.604 397.747 732.866L384.297 734.301C382.137 734.564 379.946 734.67 377.777 734.833C378.761 728.004 379.422 721.133 380.143 714.271L390.921 713.253Z" fill="#77A1C2"/>
<path d="M451.967 829.628L453.304 829.507C455.291 832.612 454.154 841.232 454.084 845.076C444.603 846.436 436.107 846.996 427.42 842.323L421.752 838.556C421.423 835.652 420.915 832.74 420.492 829.847C431.077 832.18 441.376 831.146 451.967 829.628Z" fill="#AC696B"/>
<path d="M390.018 310.712C400.885 321.214 411.524 327.571 426.719 329.116C424.886 332.778 423.543 336.559 422.176 340.414C421.533 342.022 421.497 342.772 420.006 343.718C414.136 344.116 407.252 342.046 402.642 338.304C398.051 334.578 399.371 329.538 398.636 324.376C397.682 317.681 393.024 322.103 389.302 319.471C388.204 316.916 389.261 313.28 390.018 310.712Z" fill="#344174"/>
<path d="M421.153 840.585C421.671 841.197 422.163 841.763 422.777 842.282C431.26 849.461 441.017 849.201 451.375 848.243C452.693 852.282 454.614 856.461 455.401 860.613C455.768 862.556 455.881 864.232 454.748 865.896L452.915 866.158C449.369 866.073 445.783 866.046 442.279 865.451C432.95 863.863 425.588 858.567 420.19 850.951C418.858 849.073 416.298 845.748 416.679 843.412C417.979 842.774 419.215 842.158 420.349 841.246C420.62 841.028 420.885 840.806 421.153 840.585Z" fill="#CF7F77"/>
<path d="M308.702 415.387L313.698 414.86C315.635 420.867 318.06 427.544 322.315 432.312C320.75 437.658 319.044 442.959 317.197 448.214C311.855 439.472 307.792 428.975 300.884 421.342C294.394 421.48 287.869 422.402 281.468 423.428C271.817 424.615 259.086 427.924 249.839 427.61C247.836 427.543 246.35 427.238 244.998 425.72L245.196 424.775C249.764 423.555 254.423 423.312 259.062 422.536C275.542 419.776 292.116 417.489 308.702 415.387Z" fill="#5887B4"/>
<path d="M302.244 419.232C305.013 419.173 308.716 418.667 311.317 419.527C312.391 419.882 312.394 420.553 312.869 421.5C308.378 422.221 306.113 421.312 302.244 419.232Z" fill="black"/>
<path d="M67.8053 321.869C74.9876 321.548 88.4428 318.106 94.5902 321.381L92.9869 324.68C93.3863 328.247 92.5875 331.692 92.8476 335.184C92.9572 336.665 93.5323 337.929 93.5289 339.452C91.7213 340.222 89.867 340.615 87.9578 341.054C89.9526 341.027 91.4703 340.554 93.0576 341.829L93.2744 343.822C84.8916 344.243 76.6012 345.449 68.1876 345.626L67.8053 321.869Z" fill="black"/>
<path d="M86.4264 328.628C87.8962 328.074 89.2998 327.434 90.7193 326.765L91.9906 327.301C92.0145 328.988 92.4071 330.761 91.5022 332.205C84.6873 332.845 77.8062 333.011 70.9628 333.075L71.5413 329.654C76.4779 329.662 81.5035 329.025 86.4264 328.628Z" fill="#CF7F77"/>
<path d="M86.4263 328.628C87.8961 328.074 89.2997 327.434 90.7193 326.765L91.9905 327.301C91.5877 329.079 91.6892 329.683 90.2731 330.897C88.9197 330.963 88.4632 330.766 87.4088 329.856C87.0345 329.536 86.7104 329.033 86.4263 328.628Z" fill="#DB9587"/>
<path d="M67.8053 321.869C74.9876 321.548 88.4428 318.106 94.5902 321.381L92.9869 324.68L92.163 324.764C85.8182 325.353 77.4137 323.815 71.4866 326.282C70.8111 327.299 70.665 327.597 71.0884 328.79C71.1979 329.096 71.3908 329.367 71.5414 329.654L70.9628 333.075C71.1705 334.835 70.9514 335.335 72.3014 336.558C77.028 337.657 87.781 333.58 91.2386 336.749C87.1282 341.158 75.0983 336.897 71.2698 340.998C72.4007 342.159 73.4357 342.072 74.9922 342.117C79.2361 342.24 83.7413 341.522 87.9578 341.054C89.9526 341.027 91.4703 340.554 93.0576 341.829L93.2744 343.822C84.8916 344.243 76.6012 345.449 68.1876 345.626L67.8053 321.869Z" fill="#DB9587"/>
<path d="M76.26 290.587C83.5245 293.505 91.2626 296.139 98.2487 299.66C100.152 313.951 99.0954 328.77 99.1627 343.176C97.233 343.404 95.2109 343.786 93.2744 343.822L93.0576 341.829C91.4703 340.554 89.9526 341.027 87.9578 341.054C89.867 340.615 91.7213 340.222 93.5289 339.452C93.5323 337.929 92.9572 336.665 92.8476 335.184C92.5875 331.692 93.3863 328.247 92.9869 324.68L94.5902 321.381C94.7819 320.71 95.1972 320.083 94.8115 319.431C93.449 317.123 79.6914 311.714 76.2988 309.482C76.2908 303.185 76.341 296.883 76.26 290.587Z" fill="#9C5E5F"/>
<path d="M182.067 291.012C187.78 290.358 193.14 293.649 198.476 295.468C188.093 298.34 176.442 298.633 165.713 299.585C149.055 301.093 132.387 302.466 115.707 303.705L102.222 304.587C101.631 302.373 100.833 300.504 99.7766 298.474C127.228 296.826 154.715 293.851 182.067 291.012Z" fill="#ECC1A2"/>
<path d="M343.778 334.404L344.614 334.737C345.496 338.705 344.728 344.227 344.662 348.339C344.502 358.354 344.075 368.441 345.094 378.42C340.783 385.497 336.82 392.479 333.683 400.18L333.334 400.763L332.891 400.363C332.38 378.767 332.989 357.009 332.989 335.39C336.562 334.928 340.186 334.706 343.778 334.404Z" fill="#77A1C2"/>
<path d="M162.101 281.322C167.651 280.591 176.098 286.109 181.083 288.558C153.949 290.766 126.875 293.608 99.7218 295.682C94.6403 296.337 85.1631 291.493 80.6168 289.17C89.1537 287.829 98.1254 287.588 106.744 286.779L162.101 281.322Z" fill="#77A1C2"/>
<path d="M256.244 378.322C257.568 378.12 258.352 378.025 259.632 378.455C260.977 384.478 260.434 411.323 260.578 419.518L247.458 421.621C245.619 421.919 244.165 422.192 242.313 421.725C240.98 410.891 242.118 391.512 242.179 379.794C246.839 379.123 251.559 378.77 256.244 378.322Z" fill="#ECC1A2"/>
<path d="M323.999 499.847C325.616 499.569 327.485 499.609 329.137 499.504C329.056 510.476 325.826 570.823 323.824 576.103L323.563 575.891L323.218 576.342C321.169 576.539 319.154 576.887 317.142 576.313C315.716 569.319 316.755 560.112 316.755 552.901L316.771 500.319L323.999 499.847Z" fill="#DB9587"/>
<path d="M335.913 206.012L344.225 205.495C344.269 214.133 345.465 278.516 343.831 280.675L342.508 280.74L333.011 276.341C333.014 268.418 331.898 209.874 333.599 206.537L335.913 206.012Z" fill="#77A1C2"/>
<path d="M3.90833 736.294C18.7085 740.389 34.2862 741.769 48.8725 746.551C49.7225 753.634 49.3901 760.938 49.3786 768.062C43.3783 766.502 37.108 765.569 31.0291 764.293C21.9798 762.309 12.953 760.227 3.94872 758.048L3.90833 736.294Z" fill="#77A1C2"/>
<path d="M126.979 305.857C128.838 305.632 130.797 305.656 132.672 305.564L132.692 339.146C124.657 339.737 116.619 340.273 108.578 340.756C106.323 340.408 104.19 340.24 102.344 338.815C100.716 333.905 101.845 313.727 101.874 307.3C110.254 307.034 118.623 306.553 126.979 305.857Z" fill="#DB9587"/>
<path d="M380.244 301.789C383.304 303.88 385.864 306.288 388.517 308.867C387.618 311.536 386.936 314.629 386.948 317.462C386.956 319.133 387.43 320.733 388.848 321.76C391.05 323.356 393.922 322.502 396.385 322.093C396.196 327.769 395.795 333.889 399.363 338.717C403.928 344.896 413.117 345.957 420.129 347.218C420.016 348.289 419.931 349.362 419.876 350.438C419.674 354.879 421.789 357.428 424.608 360.555L413.263 360.181C404.38 360.018 395.395 361.049 386.549 361.808C389.177 357.173 391.472 352.151 390.738 346.631C390.514 344.957 389.922 343.948 388.618 342.925L386.071 343.93C381.44 343.511 378.311 334.052 374.878 330.089C374.27 324.559 378.455 323.468 379.449 318.736C380.624 313.141 378.978 307.617 380.244 301.789Z" fill="#FEFEFE"/>
<path d="M184.923 300.739C185.607 300.603 186.065 300.754 186.738 300.892C188.65 305.204 187.434 327.478 187.393 333.538C177.473 335.107 167.361 335.886 157.352 336.676C156.709 336.885 156.221 336.735 155.562 336.646C153.773 332.4 154.924 309.55 154.954 303.465C164.932 302.912 174.965 301.673 184.923 300.739Z" fill="#ECC1A2"/>
<path d="M324.899 847.051C327.547 847.002 332.167 849.333 335.014 849.996C342.243 851.678 349.6 852.522 356.953 853.468C357.286 858.08 357.676 862.688 358.123 867.291C345.08 867.213 342.47 866.78 332.098 858.739C329.599 856.801 327.206 854.739 324.312 853.407L323.807 853.767C324.287 855.032 324.042 854.643 324.839 855.733C330.619 863.628 338.625 868.228 348.096 869.917C350.046 870.02 351.993 869.971 353.945 869.956C355.887 869.942 357.03 869.594 358.472 871.017C358.751 872.532 358.845 872.577 358.114 873.91C357.107 874.232 356.277 874.396 355.21 874.412C344.122 874.586 332.402 871.5 321.461 869.77C314.908 868.734 307.714 868.511 301.415 866.392C298.343 865.359 294.948 862.922 292.729 860.587C291.412 859.203 290.667 858.023 290.68 856.045C293.776 850.836 307.073 852.104 312.653 851.185C317.173 850.441 320.865 849.215 324.899 847.051Z" fill="url(#paint1_linear_2_2)"/>
<path d="M305.559 856.012C308.626 857.895 309.969 862.487 313.107 864.852C312.637 865.013 312.298 865.148 311.789 865.225C310.5 865.42 309.456 865.054 308.472 864.207C306.173 862.228 305.601 858.878 305.559 856.012Z" fill="black"/>
<path d="M315.373 853.096C315.848 853.294 316.258 853.436 316.687 853.708C319.955 855.785 323.726 861.266 324.506 864.984C324.073 864.885 323.613 864.812 323.214 864.601C319.892 862.85 316.615 856.502 315.373 853.096Z" fill="black"/>
<path d="M340.182 284.182C340.532 284.155 340.881 284.106 341.232 284.098C342.017 284.079 343.113 283.907 343.622 284.597C344.661 286.003 344.654 288.216 344.56 289.89C344.394 292.853 344.369 295.811 344.325 298.778C318.928 301.018 293.566 303.606 268.24 306.542C267.217 306.708 266.428 306.665 265.402 306.598C263.017 304.046 264.634 296.387 263.971 292.76C263.939 292.59 263.901 292.422 263.867 292.253C272.929 290.462 282.393 289.739 291.573 288.708C307.776 286.888 323.901 285.149 340.182 284.182Z" fill="#CF7F77"/>
<path d="M300.986 631.105C301.049 631.135 301.125 631.145 301.174 631.193C301.428 631.439 301.717 631.668 301.884 631.978C302.198 632.564 301.994 697.377 302.018 704.934C296.986 705.621 291.912 706.064 286.87 706.715C286.295 706.699 285.773 706.536 285.216 706.399C284.268 698.665 284.999 690.18 285 682.326L285.019 632.682C290.327 632.056 295.666 631.617 300.986 631.105Z" fill="#AC696B"/>
<path d="M318.298 629.367C319.782 629.188 320.96 628.971 322.403 629.52C323.396 637.377 322.285 646.353 322.107 654.335C321.673 670.67 321.468 687.008 321.492 703.348C317.197 703.885 312.865 704.24 308.558 704.673C307.099 704.815 306.252 705.24 305.031 704.337C304.058 697.136 304.721 689.114 304.659 681.8L304.445 630.874C309.013 630.1 313.686 629.8 318.298 629.367Z" fill="#ECC1A2"/>
<path d="M168.915 386.888L170.857 386.828C172.174 389.081 171.05 452.519 171.054 461.845C166.288 462.089 161.475 462.791 156.725 463.292C155.832 463.235 155.026 463.091 154.15 462.921C152.756 457.309 153.787 447.139 153.787 441.151L153.794 388.55L168.915 386.888Z" fill="#ECC1A2"/>
<path d="M210.124 382.886C211.357 382.685 212.481 382.756 213.724 382.815C215.378 385.244 214.717 449.789 214.742 457.641L202.394 458.768C200.569 458.959 198.324 459.488 196.651 458.645C195.54 450.692 196.273 441.723 196.282 433.646L196.368 384.38C200.904 383.629 205.547 383.326 210.124 382.886Z" fill="#ECC1A2"/>
<path d="M448.227 378.545C448.355 378.673 448.493 378.792 448.612 378.929C457.188 388.862 462.609 446.31 461.877 460.693C461.404 469.966 451.961 479.353 445.531 485.277C442.886 487.543 440.178 489.489 437.279 491.413C436.789 453.378 453.616 416.915 448.227 378.545Z" fill="#FEFEFE"/>
<path d="M341.293 301.882L343.49 301.869C345.836 304.409 344.639 315.123 344.605 318.615C319.144 320.981 293.725 323.74 268.348 326.892C267.203 327.046 266.362 327.094 265.225 326.87C262.889 323.396 264.256 314.023 264.282 309.777C289.914 306.901 315.568 303.787 341.293 301.882Z" fill="#ECC1A2"/>
<path d="M147.692 389.162C149.054 389.05 149.73 388.683 150.861 389.548C151.461 395.832 151.098 402.337 151.078 408.66C151.019 426.814 149.978 445.573 151.346 463.636C146.264 464.26 141.137 464.656 136.041 465.151C134.838 465.339 134.04 465.336 132.849 465.081C131.11 460.626 132.203 400.621 132.197 390.757C137.322 390.033 142.54 389.673 147.692 389.162Z" fill="#CF7F77"/>
<path d="M101.09 393.724C102.79 393.392 104.809 393.475 106.55 393.376L106.637 468.053C102.038 468.338 97.4525 468.761 92.8795 469.32L87.7615 469.776L87.5961 394.944L101.09 393.724Z" fill="#DB9587"/>
<path d="M276.224 633.353C278.083 632.984 280.229 633.037 282.133 632.903L282.158 707.219C277.638 707.536 273.103 708.165 268.597 708.653C266.719 708.965 264.751 709.048 262.854 709.231L262.767 634.832C267.237 634.254 271.742 633.844 276.224 633.353Z" fill="#DB9587"/>
<path d="M182.332 642.49C184.473 642.166 186.785 642.18 188.953 642.036L189.114 716.365L175.459 717.729C173.39 718.027 171.278 718.161 169.196 718.363L169.476 643.873C173.745 643.325 178.051 642.947 182.332 642.49Z" fill="#DB9587"/>
<path d="M192.317 384.637L192.761 384.623C192.971 384.908 193.236 385.162 193.39 385.481C193.995 386.734 193.618 452.789 193.703 459.512C188.054 460.281 182.361 460.815 176.689 461.385C175.717 461.452 175.077 461.355 174.146 461.075C172.658 456.305 173.979 396.499 174.1 386.643C180.081 385.537 186.262 385.198 192.317 384.637Z" fill="#DB9587"/>
<path d="M300.041 500.263C304.557 500.048 309.146 500.23 313.67 500.243L313.917 576.928L308.856 577.34C304.153 578.015 299.38 578.365 294.651 578.827C294.223 563.746 294.61 548.572 294.613 533.477C294.614 523.291 293.866 512.435 294.978 502.359C296.105 501.115 298.44 500.735 300.041 500.263Z" fill="#ECC1A2"/>
<path d="M123.264 391.432C125.18 391.068 127.375 391.11 129.334 390.966L129.458 465.846L114.417 467.276L109.467 467.674L109.569 393.009C114.053 392.197 118.729 391.917 123.264 391.432Z" fill="#ECC1A2"/>
<path d="M102.021 520.397C102.069 520.388 102.116 520.374 102.164 520.37C103.588 520.239 104.378 519.914 105.513 520.854C106.431 529.631 105.676 539.1 105.616 547.937L105.357 598.194C100.245 598.574 95.1299 599.189 90.0279 599.695C89.9948 599.703 89.9617 599.714 89.9275 599.719C88.6506 599.865 87.6692 600.247 86.6524 599.41C85.6322 590.857 86.3511 581.624 86.3523 572.981L86.3568 521.971C91.484 521.092 96.8359 520.868 102.021 520.397Z" fill="#DB9587"/>
<path d="M229.869 637.92C231.634 637.589 233.626 637.608 235.429 637.467C235.453 662.338 235.189 687.272 235.894 712.132L222.699 713.227L215.412 713.879L215.4 639.556C220.197 638.867 225.051 638.444 229.869 637.92Z" fill="#DB9587"/>
<path d="M81.33 395.442C82.672 395.257 83.0828 395.135 84.3803 395.643C85.7268 401.171 84.734 412.008 84.7398 418.054L84.7831 470.324C79.0249 470.746 73.2701 471.359 67.5199 471.887L65.5914 471.778C65.3426 471.398 64.9489 471.079 64.8451 470.637C64.0098 467.066 64.7709 456.402 64.755 451.954L64.5324 396.98C70.1001 396.226 75.7304 395.886 81.33 395.442Z" fill="#9C5E5F"/>
<path d="M244.131 507.271L245.036 507.371C246.459 509.948 245.694 575.854 245.707 583.951C239.637 584.242 233.571 585.035 227.535 585.73L226.531 585.605C226.33 585.36 226.058 585.16 225.928 584.872C225.245 583.348 226.091 516.341 226.115 508.7C232.077 507.978 238.14 507.711 244.131 507.271Z" fill="#CF7F77"/>
<path d="M150.206 515.843C150.445 516.137 150.781 516.375 150.923 516.725C151.615 518.423 150.986 584.662 150.989 593.338C144.724 594.057 138.421 594.578 132.145 595.192L131.949 595.036C130.7 592.726 131.412 526.143 131.409 517.487C137.677 517.038 143.945 516.394 150.206 515.843Z" fill="#ECC1A2"/>
<path d="M208.388 640.212C209.753 640.018 210.876 639.911 212.261 640.029C212.889 648.36 212.429 657.021 212.449 665.405L212.559 714.115C207.636 714.772 202.656 715.18 197.715 715.699L191.8 716.185L191.926 641.816C197.391 641.145 202.906 640.732 208.388 640.212Z" fill="#ECC1A2"/>
<path d="M290.894 502.746L291.241 502.786C291.438 503.052 291.734 503.266 291.833 503.581C292.497 505.699 291.802 570.22 291.82 579.356C285.389 579.643 278.903 580.507 272.509 581.262C272.389 581.126 272.283 580.976 272.148 580.854C272.036 580.752 271.898 580.681 271.774 580.596C270.868 572.406 271.457 563.63 271.442 555.38L271.4 504.883C277.881 504.454 284.43 503.471 290.894 502.746Z" fill="#CF7F77"/>
<path d="M264.428 505.558C265.889 505.365 267.025 505.109 268.42 505.747C269.309 514.121 268.666 523.112 268.662 531.546L268.712 581.643C262.961 581.99 257.23 582.622 251.498 583.199C250.654 583.414 249.915 583.361 249.049 583.349C248.827 583.032 248.514 582.763 248.381 582.399C247.793 580.784 248.239 515.275 248.216 507.069L264.428 505.558Z" fill="#ECC1A2"/>
<path d="M125.092 518.126C126.228 517.891 126.807 517.783 127.906 518.195C129.296 520.928 128.363 587.469 128.354 595.547C122.823 596.276 117.254 596.817 111.708 597.441C110.455 597.689 109.749 597.805 108.52 597.414C107.066 591.024 108.26 578.813 108.315 571.936C108.479 554.54 108.544 537.144 108.51 519.748C113.943 518.827 119.599 518.602 125.092 518.126Z" fill="#ECC1A2"/>
<path d="M164.45 644.219C164.866 644.172 165.566 644.311 165.991 644.356C167.323 646.912 166.457 710.668 166.46 718.634C160.007 719.162 153.55 719.63 147.088 720.04L145.957 720.089C144.425 717.447 145.324 654.925 145.323 646.158C151.679 645.322 158.055 644.676 164.45 644.219Z" fill="#ECC1A2"/>
<path d="M167.043 514.219L174.35 513.565L174.336 591.235C169.431 591.569 164.532 591.977 159.64 592.459L153.966 592.986L153.986 515.391C158.317 514.868 162.696 514.59 167.043 514.219Z" fill="#DB9587"/>
<path d="M252.985 635.647C255.298 635.271 257.785 635.244 260.129 635.054L259.985 709.448C255.477 710.333 250.735 710.639 246.166 711.131L238.97 711.922C238.312 687.036 238.188 662.147 238.598 637.257C243.307 636.406 248.22 636.135 252.985 635.647Z" fill="#ECC1A2"/>
<path d="M79.9435 522.681C81.3516 522.504 81.6221 522.318 82.988 522.869C84.1554 530.299 83.3018 538.977 83.2904 546.546C83.263 564.5 82.9104 582.52 83.4536 600.465C77.6555 600.929 71.8585 601.536 66.0661 602.075C64.7389 602.161 63.737 602.571 62.686 601.689C61.7754 592.792 62.4703 583.259 62.4886 574.306L62.5 524.14C68.3069 523.562 74.1214 523.075 79.9435 522.681Z" fill="#9C5E5F"/>
<path d="M220.928 509.011C221.487 508.899 222.159 508.99 222.732 509.007C222.941 509.371 223.282 509.688 223.359 510.099C224.111 514.176 223.192 524.66 223.184 529.411L223.13 586.246C217.154 586.558 211.226 587.266 205.282 587.939C204.162 588.054 203.158 588.029 202.035 587.985C200.774 581.163 201.724 571.586 201.727 564.47L201.774 510.627L220.928 509.011Z" fill="#CF7F77"/>
<path d="M195.867 511.277C196.772 511.071 197.382 511.133 198.296 511.21C198.51 511.6 198.855 511.944 198.937 512.381C199.72 516.54 198.87 527.029 198.87 531.921L198.904 588.486C192.694 589.396 186.422 589.947 180.179 590.599L178.292 590.764L177.517 590.107C176.574 582.127 177.293 573.242 177.295 565.168L177.476 513.291C183.51 512.305 189.777 511.912 195.867 511.277Z" fill="#ECC1A2"/>
<path d="M238.44 380.104L239.025 380.282C240.296 383.45 239.486 416.246 239.264 422.021C237.738 423.344 236.154 422.359 234.535 423.745C234.342 429.852 240.244 435.112 241.798 440.957C242.902 445.104 242.241 450.708 242.214 455.051C237.027 455.304 231.858 455.893 226.693 456.405L217.279 457.444L217.081 382.109C224.16 381.219 231.333 380.744 238.44 380.104Z" fill="#AC696B"/>
<path d="M405.199 362.922C410.317 362.585 415.664 362.62 420.782 363.004C424.355 363.273 428.353 363.656 430.74 366.635C438.787 376.681 437.537 398.988 436.044 410.835C433.257 411.082 430.44 411.171 427.645 411.326C417.584 412.064 407.437 411.609 397.37 411.215C397.679 395.132 397.546 379.744 395.435 363.739C398.658 363.326 401.956 363.174 405.199 362.922Z" fill="#FEFEFE"/>
<path d="M142.315 646.513C143.003 647.306 142.954 712.965 142.997 720.583C134.635 721.162 126.293 721.956 117.971 722.967C117.375 714.21 117.84 705.106 117.834 696.309L117.656 646.928C126.01 647.608 133.989 647.186 142.315 646.513Z" fill="#9C5E5F"/>
<path d="M405.998 272.676C409.982 272.514 413.48 273.46 416.917 275.481C424.727 280.076 435.183 291.803 437.173 300.759C438.531 306.875 435.732 316.022 432.343 321.219C430.679 323.768 428.532 325.685 425.448 326.169C417.801 327.367 407.783 321.113 401.765 316.941C395.05 311.886 389.308 305.301 383.002 299.711C378.601 295.809 373.539 292.556 369.31 288.52C368.247 287.505 367.267 286.431 366.805 285.011C366.506 284.09 366.855 283.981 367.314 283.237C368.079 282.99 368.11 282.943 369.042 282.853C373.936 282.376 380.125 285.427 383.973 288.231C389.856 279.895 395.538 274.579 405.998 272.676Z" fill="#CF7F77"/>
<path d="M247.768 430.172C253.171 429.648 258.613 428.418 263.998 427.646C275.732 425.974 287.488 424.478 299.266 423.158C306.064 431.506 311.099 442.321 316.044 451.865C308.588 454.801 287.963 459.036 280.17 458.415C277.14 456.578 280.062 453.871 278.325 450.993C275.356 449.31 272.922 449.625 269.598 449.875C271.104 453.773 272.746 457.331 275.101 460.794C286.932 461.105 303.511 458.805 314.725 455.118C313.701 459.312 312.511 463.533 312.111 467.841C304.9 468.339 297.701 470.252 290.542 471.334C284.6 472.233 276.796 472.254 271.215 474.139C268.732 471.228 266.867 466.402 265.167 462.958C259.779 452.051 254.981 439.974 247.768 430.172Z" fill="#5887B4"/>
<path d="M289.707 441.727C291.3 441.833 291.855 442.033 293.082 443.056C292.926 444.136 290.485 444.395 289.402 445.501C292.455 446.638 295.93 444.632 299.193 445.72C299.509 445.825 299.82 445.946 300.132 446.06C299.779 446.334 299.218 446.807 298.78 447.022C296.389 448.189 289.462 448.966 287.045 447.779C286.226 447.378 286.368 447.08 286.141 446.283C286.78 444.215 288.15 443.161 289.707 441.727Z" fill="black"/>
<path d="M243.781 457.63C245.677 457.225 248.021 457.419 249.979 457.364C251.365 461.113 252.943 464.674 254.697 468.264C234.499 470.899 214.211 472.652 193.947 474.678L66.9311 486.697C63.2171 487.064 59.5015 487.41 55.7844 487.735L55.8734 475.503C118.543 469.901 181.178 463.943 243.781 457.63Z" fill="#77A1C2"/>
<path d="M18.6409 355.248C25.7469 357.39 32.8013 359.69 39.8044 362.148L40.1117 434.044C40.1682 446.784 40.7074 459.78 39.9061 472.492C32.4332 470.432 25.2573 467.641 18.0333 464.858L18.0141 396.258C18.051 382.666 17.5561 368.792 18.6409 355.248Z" fill="#DEE9EA"/>
<path d="M18.2795 613.279C25.4626 616.024 32.63 618.809 39.7817 621.635C39.7997 631.947 40.0904 727.319 39.3919 728.668L37.9709 728.898C31.4289 729.961 24.6991 730.439 18.1025 731.133L18.2795 613.279Z" fill="#DEE9EA"/>
<path d="M18.4306 224.208C25.4817 227.931 33.1302 230.577 40.2793 234.175C40.4807 271.452 40.3315 308.726 39.8318 346C33.9773 345.723 24.9857 341.265 19.2339 339.321C18.2819 322.798 18.4822 306.254 18.4705 289.711L18.4306 224.208Z" fill="#FEFEFE"/>
<path d="M17.9628 482.157C25.2296 484.585 32.5254 486.922 39.8503 489.169C39.6729 527.649 40.2582 566.143 39.7875 604.621C32.5495 602.153 25.3145 599.717 18.207 596.889C17.6492 583.511 18.0309 569.965 18.0185 556.57L17.9628 482.157Z" fill="#DEE9EA"/>
<path d="M319.342 706.425L320.685 706.308C322.577 708.389 321.574 715.005 321.485 717.795C276.749 722.76 231.783 726.367 186.987 730.826C158.73 733.801 130.453 736.575 102.156 739.147C87.2775 740.588 72.4176 742.388 57.5098 743.478C56.6539 743.601 57.1434 743.642 56.113 743.004C55.4648 739.44 55.7695 735.618 55.8209 731.997C92.7025 728.043 129.626 725.088 166.539 721.526L319.342 706.425Z" fill="#77A1C2"/>
<path d="M345.891 321.309C346.701 321.195 346.192 321.192 347.373 321.674C348.19 324.707 347.795 328.141 347.731 331.266C321.06 334.239 294.315 336.424 267.622 339.149L59.0493 360.47L57.2234 360.178C55.7331 357.623 56.4623 352.611 56.5399 349.639C68.6029 348.865 80.7743 348.166 92.7734 346.69C98.4985 345.987 104.114 344.502 109.845 343.919C134.767 341.385 159.758 339.804 184.638 336.77C192.044 335.868 199.269 333.922 206.674 333.096C216.885 331.956 227.368 330.795 237.63 330.422C247.22 330.074 256.76 330.498 266.348 329.699C292.911 327.486 319.285 323.274 345.891 321.309Z" fill="#77A1C2"/>
<path d="M320.501 578.562L323.009 578.469L323.847 579.394C324.666 583.586 323.818 588.1 323.478 592.336C297.284 594.478 271.161 598.033 244.992 600.544C183.549 605.853 122.179 611.915 60.8841 618.73C60.0453 618.88 59.1073 619.116 58.2595 619.13C57.4093 619.142 56.8011 619.196 56.2499 618.514C55.1487 617.152 55.0837 615.634 55.2263 613.979C55.458 611.279 55.4386 608.583 55.4534 605.874C69.3411 603.904 83.5255 603.178 97.4862 601.651L243.038 586.872C268.819 584.29 294.864 582.33 320.501 578.562Z" fill="#77A1C2"/>
<path d="M50.36 235.121C51.7603 234.974 52.4464 234.695 53.7599 235.318C55.1087 248.31 53.9733 266.007 53.9299 279.327L53.7348 367.851L52.7203 661.545C52.7135 672.179 53.7485 741.226 52.2376 743.833L49.8287 743.876L42.5215 742.002L42.9978 235.574C45.451 235.409 47.9051 235.258 50.36 235.121Z" fill="#77A1C2"/>
<path d="M370.326 368.775C372.573 368.882 375.432 371.373 376.855 373.015C384.772 382.149 384.151 401.896 382.97 413.072C380.646 435.066 375.73 449.707 358.436 463.792C361.273 454.93 373.317 400.119 370.882 392.689C370.654 391.992 369.989 391.947 369.371 391.675L368.924 392.064C367.08 393.668 367.561 402.741 367.258 405.512C366.088 415.759 364.394 425.919 362.176 435.993C360.258 444.908 358.414 454.002 355.562 462.672C353.041 472.582 350.321 484.325 342.129 491.228C331.63 500.077 305.106 498.105 291.888 496.821L291.2 485.765C298.935 484.183 306.413 481.062 313.419 477.477C313.784 472.299 314.394 467.316 315.596 462.262C317.68 453.494 320.945 444.769 323.769 436.209C329.405 419.135 334.938 397.17 345.545 382.688C350.094 376.478 359.076 370.513 366.941 369.488C367.837 369.372 368.633 369.278 369.506 369.022L370.326 368.775Z" fill="#FEFEFE"/>
<path d="M320.914 720.657C322.356 722.987 321.639 738.597 321.663 742.337C303.899 743.406 286.005 745.925 268.259 747.566L117.36 762.202C96.0074 764.228 74.3462 767.016 52.9236 767.916C51.0909 763.844 52.2549 751.77 52.2971 746.899L232.294 729.486C261.838 726.658 291.314 722.877 320.914 720.657Z" fill="#77A1C2"/>
<path d="M3.76611 217.229C6.64784 218.739 9.82386 219.772 12.6578 221.337C13.8337 221.988 15.374 223.032 15.6398 224.432C16.6688 229.85 16.6594 337.529 16.5589 337.769C16.4416 338.048 16.1938 338.253 16.0114 338.495C14.8755 338.53 13.4873 338.451 12.3882 338.706C11.6137 338.885 10.9248 339.113 10.6103 339.869C9.66342 342.143 9.35942 348.944 10.324 351.255C11.0342 352.955 14.536 353.886 16.0884 354.465C15.4409 364.29 15.761 374.337 15.7249 384.187L15.619 436.982C15.6066 445.267 16.2091 454.02 15.5837 462.242C15.3258 465.633 12.8543 463.304 11.2139 464.954C8.27567 467.909 9.29837 474.722 9.52066 478.501C11.5017 479.571 13.603 480.486 15.6328 481.465C15.346 494.542 16.6148 592.643 15.0205 595.211C14.706 595.202 14.3917 595.185 14.0772 595.183C13.1649 595.176 11.4927 595.109 10.8604 595.921C8.92727 598.406 9.95863 606.564 10.0386 609.865C11.838 610.847 13.7841 611.604 15.6663 612.418C15.6681 625.74 14.4804 730.784 15.4689 733.479C15.6312 733.922 15.987 734.267 16.2462 734.661L16.4193 735.989C12.3106 734.819 7.95912 734.113 3.77342 733.238L3.76611 217.229Z" fill="#77A1C2"/>
<path d="M255.503 470.845L256.157 471.154C257.289 473.012 259.213 475.409 258.753 477.674C257.261 478.936 256.293 478.654 254.427 479.021C252.96 479.308 252.582 479.529 251.716 480.739C251.463 484.052 253.261 487.352 255.37 489.81C262.731 498.397 277.038 499.384 287.573 500.44C277.611 501.145 267.663 502.468 257.704 503.294L59.6118 521.66C61.0656 536.059 59.9884 551.394 59.9484 565.883C59.8743 575.577 60.8796 588.869 59.7522 598.17C59.5411 599.914 59.2877 601.902 57.8556 603.068L56.9769 602.535C56.1553 600.619 55.7981 598.896 55.6874 596.807C55.0461 584.666 55.8278 571.987 55.8563 559.794L55.7274 490.662C65.1155 489.261 74.7239 488.644 84.1749 487.739L135.45 482.988C175.512 479.382 215.53 475.334 255.503 470.845Z" fill="url(#paint2_linear_2_2)"/>
<path d="M308.913 181.477C310.365 181.304 311.931 181.081 313.366 181.452C319.922 183.142 326.941 187.993 332.89 191.186C339.881 194.851 346.902 198.458 353.953 202.005C334.432 203.219 314.972 205.824 295.528 207.895L227.039 214.606C187.645 218.224 148.283 222.159 108.954 226.412C88.7447 228.278 68.5518 230.305 48.3748 232.492L42.4545 232.766C36.5957 228.533 29.4148 225.935 22.8709 222.93C16.1043 219.859 9.4554 216.552 2.92419 213.008C37.1867 210.249 71.3857 206.849 105.521 202.807L192.356 193.612C231.134 189.3 270.028 184.629 308.913 181.477Z" fill="#77A1C2"/>
<path d="M326.173 336.094C327.594 335.901 328.881 335.609 330.276 336.083C331.249 351.387 330.376 367.264 330.408 382.628C330.423 390.058 331.546 398.626 330.613 405.884C329.633 413.518 325.772 421.816 323.165 429.093C319.846 423.6 317.487 417.935 315.174 411.97C297.847 413.633 280.36 416.642 263.099 419.033C262.9 404.419 262.796 389.804 262.785 375.188C255.505 375.301 248.141 376.379 240.897 377.117C230.381 378.188 219.858 379.189 209.327 380.117C160.179 384.653 111.141 390.568 61.9284 394.343L62.0379 412.999L62.4156 472.147C60.3353 472.322 58.2493 472.63 56.1736 472.873L56.2124 363.421L326.173 336.094Z" fill="#DEE9EA"/>
<path d="M321.37 595.178L322.365 595.108L323.101 595.764C324.407 605.371 323.178 616.368 322.945 626.075L189.136 638.977L155.479 642.427C141.848 643.905 128.723 646.055 115.032 643.863C114.212 670.292 114.95 696.946 115.055 723.396C96.4295 726.002 77.3861 726.99 58.6726 729.168C57.6512 729.086 56.9814 728.935 56.0194 728.638C54.1993 723.793 55.5093 633.933 55.5458 622.252C85.8705 617.492 116.852 615.737 147.381 612.553L247.335 602.934C272.019 600.457 296.662 597.383 321.37 595.178Z" fill="#DEE9EA"/>
<path d="M56.623 234.437C74.1898 232.074 91.9562 230.807 109.593 229.016C141.242 225.573 172.916 222.376 204.614 219.427C233.674 216.368 262.753 213.491 291.849 210.798C304.707 209.499 317.55 207.764 330.433 206.759L330.403 276.608C314.03 277.797 297.671 279.153 281.325 280.676C271.587 281.53 261.446 281.921 251.828 283.633L250.569 283.736L249.65 282.305C248.342 281.141 247.729 281.002 245.962 281.108C244.115 281.22 242.178 281.666 240.352 281.982C240.05 297.013 239.816 312.226 240.247 327.248C226.191 328.638 211.849 330.727 197.722 330.855C197.698 320.128 197.506 309.375 197.668 298.652L204.198 296.267C196.829 290.997 187.349 288.116 179.012 284.685C174.264 282.732 169.678 280.42 164.988 278.33C134.754 282.478 104.131 283.267 73.9216 287.295C75.0901 294.71 74.6359 302.778 74.596 310.281C68.4966 310.752 62.363 311.11 56.2841 311.793C56.243 286.015 56.8866 260.208 56.623 234.437Z" fill="#DEE9EA"/>
<path d="M390.767 364.053L391.458 363.922C397.887 365.982 393.138 409.728 394.873 412.985C402.051 415.663 429.079 413.953 438.272 413.291C440.891 394.365 440.462 382.682 433.12 364.967C437.191 366.53 440.427 368.132 443.618 371.217C444.261 373.287 444.819 375.38 445.291 377.495C445.764 379.611 446.151 381.743 446.451 383.89C446.75 386.037 446.963 388.193 447.087 390.357C447.213 392.521 447.25 394.686 447.199 396.854C447.004 406.18 445.147 415.406 443.583 424.577C439.636 447.696 434.189 471.058 434.502 494.618C434.883 523.323 442.372 551.347 444.169 580.008C445.293 598.68 445.832 617.369 445.785 636.075C445.642 654.27 444.782 672.537 445.547 690.724C446.405 711.143 451.949 731.318 453.772 751.716C455.987 776.479 454.516 801.652 455.741 826.525C444.119 828.849 432.13 830.021 420.491 827.363C416.225 816.869 414.625 804.345 412.335 793.265C407.146 767.281 402.146 741.262 397.336 715.206C395.052 703.271 392.523 691.418 390.446 679.44C389.705 675.168 388.409 670.417 388.41 666.104C388.413 659.718 390.325 652.893 391.556 646.645C393.59 636.697 395.488 626.724 397.25 616.724C399.045 608.942 404.208 581.05 403.121 574.717L402.516 574.44C399.527 577.089 397.431 599.825 396.487 605.179C390.399 639.727 382.613 674.277 378.072 709.055C375.794 726.383 373.691 743.732 371.765 761.103C369.065 786.729 366.716 812.599 360.789 837.734C348.972 837.381 337.218 835.947 325.441 834.994C325.705 817.414 326.113 799.866 325.84 782.281C325.512 761.18 324.476 740.125 324.341 719.016C324.257 682.596 324.743 646.182 325.799 609.777C326.57 572.705 331.333 535.882 331.91 498.85C334.588 498.261 337.267 497.659 339.724 496.393C350.478 490.854 353.736 478.593 357.123 467.979C362.642 464.326 367.492 460.213 371.562 454.962C384.745 437.957 388.181 411.228 385.392 390.436C384.128 381.02 381.266 373.069 373.442 367.128C379.192 365.796 384.904 364.742 390.767 364.053Z" fill="#77A1C2"/>
<path d="M423.237 510.126C424.025 510.136 424.166 510.385 424.801 510.816L424.853 511.851C420.352 514.941 367.357 515.496 359.169 515.375C358.736 515.365 358.018 515.073 357.592 514.946L357.92 514.012C358.923 513.548 359.682 513.292 360.801 513.235C368.196 512.858 375.645 512.955 383.052 512.642C396.459 511.994 409.854 511.155 423.237 510.126Z" fill="black"/>
</g>
<defs>
<linearGradient id="paint0_linear_2_2" x1="448.684" y1="852.551" x2="410.038" y2="864.193" gradientUnits="userSpaceOnUse">
<stop stop-color="#B67E7F"/>
<stop offset="1" stop-color="#F5AB9D"/>
</linearGradient>
<linearGradient id="paint1_linear_2_2" x1="327.354" y1="877.589" x2="322.557" y2="848.152" gradientUnits="userSpaceOnUse">
<stop stop-color="#D47E85"/>
<stop offset="1" stop-color="#EA9E8E"/>
</linearGradient>
<linearGradient id="paint2_linear_2_2" x1="154.354" y1="475.268" x2="171.912" y2="583.099" gradientUnits="userSpaceOnUse">
<stop stop-color="#D9ECF0"/>
<stop offset="1" stop-color="#F8F7F8"/>
</linearGradient>
<clipPath id="clip0_2_2">
<rect width="1013" height="908" fill="white"/>
</clipPath>
</defs>
</svg>
